SubSource-HROTdd_VROTn.ufo
<glyph name="exclam" format="2">
  <advance width="261"/>
  <unicode hex="0021"/>
  <outline>
    <contour>
      <point x="177.2018680563711" y="525.7794986442279" type="curve" smooth="yes"/>
      <point x="177.24567981845553" y="274.75659132300365" type="line" smooth="yes"/>
      <point x="177.25746079066735" y="207.25659235108742"/>
      <point x="87.25746216144569" y="207.2408843881384"/>
      <point x="87.24568118923388" y="274.7408833600546" type="curve" smooth="yes"/>
      <point x="87.20186942714945" y="525.763790681279" type="line" smooth="yes"/>
      <point x="87.19008845493764" y="593.2637896531953"/>
      <point x="177.1900870841593" y="593.2794976161442"/>
    </contour>
    <contour>
      <point x="135.6217131427783" y="56.74890763349125" type="curve" smooth="yes"/>
      <point x="47.68603948016115" y="65.89284640075266"/>
      <point x="47.68363399231642" y="168.23498649342292"/>
      <point x="135.61611581818798" y="177.37892526068433" type="curve" smooth="yes"/>
      <point x="202.75409222466482" y="184.3604812508171"/>
      <point x="212.06283354484185" y="94.84317937551464"/>
      <point x="144.924857138365" y="87.86162338538188" type="curve" smooth="yes"/>
      <point x="142.36062536490513" y="87.59497358959871"/>
      <point x="142.36579534243788" y="146.53289406394202"/>
      <point x="144.93012019423506" y="146.26624426815877" type="curve" smooth="yes"/>
      <point x="212.0681226702357" y="139.2849389795662"/>
      <point x="202.75971561877896" y="49.76760234489867"/>
    </contour>
  </outline>
</glyph>
<glyph name="quotedbl" format="2">
  <advance width="496"/>
  <unicode hex="0022"/>
  <outline>
    <contour>
      <point x="103" y="470" type="curve" smooth="yes"/>
      <point x="103" y="537"/>
      <point x="103" y="581"/>
      <point x="103" y="585" type="curve" smooth="yes"/>
      <point x="103" y="653"/>
      <point x="193" y="653"/>
      <point x="193" y="585" type="curve" smooth="yes"/>
      <point x="193" y="579"/>
      <point x="193" y="515"/>
      <point x="193" y="470" type="curve" smooth="yes"/>
      <point x="193" y="403"/>
      <point x="103" y="403"/>
    </contour>
    <contour>
      <point x="303" y="456" type="curve" smooth="yes"/>
      <point x="303" y="549"/>
      <point x="303" y="581"/>
      <point x="303" y="585" type="curve" smooth="yes"/>
      <point x="303" y="653"/>
      <point x="393" y="653"/>
      <point x="393" y="585" type="curve" smooth="yes"/>
      <point x="393" y="579"/>
      <point x="393" y="518"/>
      <point x="393" y="456" type="curve" smooth="yes"/>
      <point x="393" y="389"/>
      <point x="303" y="389"/>
    </contour>
  </outline>
</glyph>
<glyph name="percent" format="2">
  <advance width="1023"/>
  <unicode hex="0025"/>
  <outline>
    <contour>
      <point x="706.8427797765806" y="136.05771772121327" type="curve" smooth="yes"/>
      <point x="641.5061669911257" y="170.94278877362564"/>
      <point x="603.0335674089004" y="227.3627017255339"/>
      <point x="603.0227066746106" y="289.5901257649722" type="curve" smooth="yes"/>
      <point x="603.0080036711965" y="373.83213037187744"/>
      <point x="672.9908064808196" y="441.3711037056153"/>
      <point x="784.0040684922603" y="441.3711037056153" type="curve" smooth="yes"/>
      <point x="895.1283715190281" y="441.3711037056153"/>
      <point x="967.0079834204803" y="373.9321013999344"/>
      <point x="967.0227011305736" y="289.60583372792115" type="curve" smooth="yes"/>
      <point x="967.0335728782487" y="227.31530763951173"/>
      <point x="927.6478396146957" y="170.63549275454565"/>
      <point x="859.5778202780389" y="135.71504631104338" type="curve" smooth="yes"/>
      <point x="799.5197077814852" y="104.90477004887222"/>
      <point x="758.4393394319237" y="184.98225337761042"/>
      <point x="818.4974519284774" y="215.79252963978158" type="curve" smooth="yes"/>
      <point x="851.8478133858162" y="232.90152303351894"/>
      <point x="877.0280290271586" y="259.0713807923595"/>
      <point x="877.022702501352" y="289.59012576497213" type="curve" smooth="yes"/>
      <point x="877.0158475695534" y="328.865992054869"/>
      <point x="835.7614080227258" y="351.3711037056153"/>
      <point x="784.0040684922603" y="351.3711037056153" type="curve" smooth="yes"/>
      <point x="732.039945386339" y="351.3711037056153"/>
      <point x="693.0158229848588" y="329.0386169717073"/>
      <point x="693.0227053038323" y="289.6058337279211" type="curve" smooth="yes"/>
      <point x="693.0280611401857" y="258.9191516894262"/>
      <point x="717.0125559218433" y="232.65299816028306"/>
      <point x="749.2324958111889" y="215.4498582296117" type="curve" smooth="yes"/>
      <point x="808.7766011924876" y="183.65757120365552"/>
      <point x="766.3868851578794" y="104.2654306952571"/>
    </contour>
    <contour>
      <point x="418.4933530349878" y="513.2790968784115" type="curve" smooth="yes"/>
      <point x="431.2386080423365" y="427.3105158175382"/>
      <point x="350.6855130094909" y="354.90663761154804"/>
      <point x="239.00345972601338" y="354.90663761154804" type="curve" smooth="yes"/>
      <point x="126.86237756764051" y="354.90663761154804"/>
      <point x="56.999377090814086" y="423.3064428651964"/>
      <point x="56.98470365905483" y="507.3790143704288" type="curve" smooth="yes"/>
      <point x="56.969830227628165" y="592.5974995661048"/>
      <point x="130.96939332538327" y="669.7124544205396"/>
      <point x="243.2575587790091" y="658.9548925242163" type="curve" smooth="yes"/>
      <point x="323.800341062659" y="651.238638881473"/>
      <point x="400.32540104372833" y="580.0500176309951"/>
      <point x="518.0410958557034" y="563.9948896786086" type="curve" smooth="yes"/>
      <point x="810.8919990610623" y="524.0532427347231"/>
      <point x="865.9715970675139" y="703.7417871234898"/>
      <point x="637.3142822326723" y="467.59833530801956" type="curve" smooth="yes"/>
      <point x="559.201974449557" y="386.9286659274423"/>
      <point x="508.33751690602645" y="335.7653642770574"/>
      <point x="429.1045715987185" y="255.2134784247742" type="curve" smooth="yes"/>
      <point x="398.07529946734564" y="223.6676816970177"/>
      <point x="363.6575155458734" y="186.954827464021"/>
      <point x="332.47973706144273" y="140.18634718214685" type="curve" smooth="yes"/>
      <point x="295.03847844824156" y="84.0222825726531"/>
      <point x="220.15305896891653" y="133.943960723588"/>
      <point x="257.5943175821177" y="190.10802533308174" type="curve" smooth="yes"/>
      <point x="292.38623542678175" y="242.29792476736372"/>
      <point x="330.31563875149715" y="283.12302992274283"/>
      <point x="364.9418353329361" y="318.32562681862663" type="curve" smooth="yes"/>
      <point x="443.96938163862615" y="398.6686945224954"/>
      <point x="494.7482564555769" y="449.7442927504974"/>
      <point x="572.6580703143467" y="530.2048386473099" type="curve" smooth="yes"/>
      <point x="584.7958185115153" y="542.7399712260196"/>
      <point x="521.4240027550051" y="472.70026702706707"/>
      <point x="505.8786854097563" y="474.82047758554063" type="curve" smooth="yes"/>
      <point x="361.27142495817674" y="494.5433197528713"/>
      <point x="300.2393469563605" y="563.0837790101791"/>
      <point x="234.67457214393832" y="569.3650920979278" type="curve" smooth="yes"/>
      <point x="183.33024041794982" y="574.2840416981493"/>
      <point x="146.97790133651117" y="546.3613058143418"/>
      <point x="146.98470228827648" y="507.39472233337773" type="curve" smooth="yes"/>
      <point x="146.99161219856992" y="467.803852469261"/>
      <point x="186.19476230348903" y="444.90663761154804"/>
      <point x="239.00345972601338" y="444.90663761154804" type="curve" smooth="yes"/>
      <point x="282.6387076291684" y="444.90663761154804"/>
      <point x="334.4461115852393" y="466.4916782396308"/>
      <point x="329.4664183804326" y="500.0804262630221" type="curve" smooth="yes"/>
      <point x="319.56741541889045" y="566.8506272539386"/>
      <point x="408.5943500734457" y="580.0492978693279"/>
    </contour>
  </outline>
</glyph>
<glyph name="ampersand" format="2">
  <advance width="634"/>
  <unicode hex="0026"/>
  <outline>
    <contour>
      <point x="403.0" y="543.0" type="curve" smooth="yes"/>
      <point x="369.0" y="564.0"/>
      <point x="335.0" y="572.0"/>
      <point x="303.0" y="574.0" type="curve" smooth="yes"/>
      <point x="241" y="578"/>
      <point x="170.0" y="570.0"/>
      <point x="170.0" y="514.0" type="curve" smooth="yes"/>
      <point x="170.0" y="459.0"/>
      <point x="293.0" y="386.0"/>
      <point x="364.0" y="373.0" type="curve" smooth="yes"/>
      <point x="436.0" y="362.0"/>
      <point x="491" y="358"/>
      <point x="511.0" y="361.0" type="curve" smooth="yes"/>
      <point x="532.0" y="364.0"/>
      <point x="529.0" y="393.0"/>
      <point x="510.0" y="396.0" type="curve" smooth="yes"/>
      <point x="492" y="399"/>
      <point x="429.0" y="395.0"/>
      <point x="371.0" y="385.0" type="curve" smooth="yes"/>
      <point x="308.0" y="373.0"/>
      <point x="153.0" y="339.0"/>
      <point x="153.0" y="288.0" type="curve" smooth="yes"/>
      <point x="153.0" y="252.0"/>
      <point x="229.0" y="234.0"/>
      <point x="291.0" y="230.0" type="curve" smooth="yes"/>
      <point x="357.0" y="225.0"/>
      <point x="426.0" y="226.0"/>
      <point x="426.0" y="276.0" type="curve" smooth="yes"/>
      <point x="426.0" y="333.0"/>
      <point x="426.0" y="351.0"/>
      <point x="426.0" y="390.0" type="curve" smooth="yes"/>
      <point x="426.0" y="423.0"/>
      <point x="426.0" y="435.0"/>
      <point x="426.0" y="461.0" type="curve" smooth="yes"/>
      <point x="426.0" y="525.0"/>
      <point x="516.0" y="522.0"/>
      <point x="516.0" y="463.0" type="curve" smooth="yes"/>
      <point x="516.0" y="427.0"/>
      <point x="516.0" y="412.0"/>
      <point x="516.0" y="390.0" type="curve" smooth="yes"/>
      <point x="516.0" y="332.0"/>
      <point x="516.0" y="317.0"/>
      <point x="516.0" y="271.0" type="curve" smooth="yes"/>
      <point x="516.0" y="177.0"/>
      <point x="431.0" y="129.0"/>
      <point x="286.0" y="140.0" type="curve" smooth="yes"/>
      <point x="141.0" y="149.0"/>
      <point x="63.0" y="205.0"/>
      <point x="63.0" y="288.0" type="curve" smooth="yes"/>
      <point x="63.0" y="389.0"/>
      <point x="172.0" y="434.0"/>
      <point x="371.0" y="471.0" type="curve" smooth="yes"/>
      <point x="488.0" y="493.0"/>
      <point x="525.0" y="488.0"/>
      <point x="568.0" y="452.0" type="curve" smooth="yes"/>
      <point x="610.0" y="416.0"/>
      <point x="610.0" y="337.0"/>
      <point x="566.0" y="303.0" type="curve" smooth="yes"/>
      <point x="522.0" y="269.0"/>
      <point x="483.0" y="264.0"/>
      <point x="373.0" y="285.0" type="curve" smooth="yes"/>
      <point x="192.0" y="317.0"/>
      <point x="80.0" y="424.0"/>
      <point x="80.0" y="518.0" type="curve" smooth="yes"/>
      <point x="80.0" y="625.0"/>
      <point x="175" y="669"/>
      <point x="302.0" y="664.0" type="curve" smooth="yes"/>
      <point x="352.0" y="662.0"/>
      <point x="406.0" y="648.0"/>
      <point x="453.0" y="616.0" type="curve" smooth="yes"/>
      <point x="514" y="575"/>
      <point x="463" y="506"/>
    </contour>
  </outline>
</glyph>
<glyph name="quotesingle" format="2">
  <advance width="297"/>
  <unicode hex="0027"/>
  <outline>
    <contour>
      <point x="103" y="470" type="curve" smooth="yes"/>
      <point x="103" y="537"/>
      <point x="103" y="581"/>
      <point x="103" y="585" type="curve" smooth="yes"/>
      <point x="103" y="653"/>
      <point x="193" y="653"/>
      <point x="193" y="585" type="curve" smooth="yes"/>
      <point x="193" y="579"/>
      <point x="193" y="515"/>
      <point x="193" y="470" type="curve" smooth="yes"/>
      <point x="193" y="403"/>
      <point x="103" y="403"/>
    </contour>
  </outline>
</glyph>
<glyph name="asterisk" format="2">
  <advance width="614"/>
  <unicode hex="002A"/>
  <outline>
    <contour>
      <point x="84.9735929105884" y="446.32085117392114" type="curve" smooth="yes"/>
      <point x="133.7117918453234" y="446.32085117392114"/>
      <point x="154.26811989459094" y="446.32085117392114"/>
      <point x="186.97359135703954" y="446.32085117392114" type="curve" smooth="yes"/>
      <point x="263.1284712225222" y="446.32085117392114"/>
      <point x="349.85332568885605" y="405.7057353652432"/>
      <point x="385.14528981889754" y="361.52391162507706" type="curve" smooth="yes"/>
      <point x="405.15228849492945" y="336.47725551330404"/>
      <point x="415.22979143197654" y="324.6572970332669"/>
      <point x="435.3783105109345" y="299.01811418825554" type="curve" smooth="yes"/>
      <point x="477.0856766399232" y="245.94509269350277"/>
      <point x="406.32164798025286" y="190.33527118818455"/>
      <point x="364.6142818512642" y="243.40829268293732" type="curve" smooth="yes"/>
      <point x="344.77729026014646" y="268.6510538261511"/>
      <point x="335.14679456468446" y="279.9132715476604"/>
      <point x="314.82558330546755" y="305.35328873494814" type="curve" smooth="yes"/>
      <point x="294.62769970343203" y="330.638912678726"/>
      <point x="230.55766034176034" y="356.32085117392114"/>
      <point x="186.97359135703954" y="356.32085117392114" type="curve" smooth="yes"/>
      <point x="138.23539242230453" y="356.32085117392114"/>
      <point x="117.67906437303692" y="356.32085117392114"/>
      <point x="84.9735929105884" y="356.32085117392114" type="curve" smooth="yes"/>
      <point x="17.473592910588394" y="356.32085117392114"/>
      <point x="17.473592910588394" y="446.32085117392114"/>
    </contour>
    <contour>
      <point x="435.3537044221295" y="588.4840392128849" type="curve" smooth="yes"/>
      <point x="415.2744482223166" y="562.9216394899714"/>
      <point x="406.4242949916453" y="551.380010251201"/>
      <point x="386.14238914163815" y="525.978098822665" type="curve" smooth="yes"/>
      <point x="350.8482244492679" y="481.7742033855193"/>
      <point x="263.1813582721736" y="441.17366491630685"/>
      <point x="186.9884009667582" y="441.17366491630685" type="curve" smooth="yes"/>
      <point x="138.2502020320232" y="441.17366491630685"/>
      <point x="117.69387398275558" y="441.17366491630685"/>
      <point x="84.98840252030705" y="441.17366491630685" type="curve" smooth="yes"/>
      <point x="17.488402520307048" y="441.17366491630685"/>
      <point x="17.488402520307076" y="531.1736649163068"/>
      <point x="84.98840252030708" y="531.1736649163068" type="curve" smooth="yes"/>
      <point x="133.7266014550421" y="531.1736649163068"/>
      <point x="154.2829295043096" y="531.1736649163068"/>
      <point x="186.9884009667582" y="531.1736649163068" type="curve" smooth="yes"/>
      <point x="230.50712653060566" y="531.1736649163068"/>
      <point x="295.65193237619934" y="556.8860295037132"/>
      <point x="315.8107124206028" y="582.1337329977658" type="curve" smooth="yes"/>
      <point x="335.92908555533194" y="607.3308291796537"/>
      <point x="344.66031744081437" y="618.7222956349228"/>
      <point x="364.5776748865654" y="644.0785860963783" type="curve" smooth="yes"/>
      <point x="406.27358504918544" y="697.1606082480515"/>
      <point x="477.0496145847496" y="641.5660613645581"/>
    </contour>
    <contour>
      <point x="503.9735865288535" y="356.32085117392114" type="curve" smooth="yes"/>
      <point x="455.2353875941184" y="356.32085117392114"/>
      <point x="434.67905954485093" y="356.32085117392114"/>
      <point x="401.97358808240233" y="356.32085117392114" type="curve" smooth="yes"/>
      <point x="325.8187082169196" y="356.32085117392114"/>
      <point x="239.0938537505859" y="396.93596698259915"/>
      <point x="203.80188962054433" y="441.1177907227653" type="curve" smooth="yes"/>
      <point x="183.79489094451228" y="466.1644468345384"/>
      <point x="173.71738800746525" y="477.98440531457544"/>
      <point x="153.5688689285073" y="503.6235881595868" type="curve" smooth="yes"/>
      <point x="111.8615027995186" y="556.6966096543396"/>
      <point x="182.62553145918898" y="612.3064311596578"/>
      <point x="224.33289758817767" y="559.233409664905" type="curve" smooth="yes"/>
      <point x="244.16988917929544" y="533.9906485216912"/>
      <point x="253.8003848747574" y="522.7284308001822"/>
      <point x="274.1215961339743" y="497.2884136128942" type="curve" smooth="yes"/>
      <point x="294.31947973600984" y="472.00278966911634"/>
      <point x="358.3895190976814" y="446.32085117392114"/>
      <point x="401.97358808240233" y="446.32085117392114" type="curve" smooth="yes"/>
      <point x="450.7117870171374" y="446.32085117392114"/>
      <point x="471.2681150664049" y="446.32085117392114"/>
      <point x="503.9735865288535" y="446.32085117392114" type="curve" smooth="yes"/>
      <point x="571.4735865288535" y="446.32085117392114"/>
      <point x="571.4735865288535" y="356.32085117392114"/>
    </contour>
    <contour>
      <point x="153.62309423674964" y="383.8632906197288" type="curve" smooth="yes"/>
      <point x="174.44019487798818" y="410.3650216782936"/>
      <point x="188.48324617579712" y="424.2548047659168"/>
      <point x="207.83403920084368" y="448.4905513535084" type="curve" smooth="yes"/>
      <point x="243.11056562999926" y="492.6723558883866"/>
      <point x="325.8335178266383" y="531.1736649163068"/>
      <point x="401.988397692121" y="531.1736649163068" type="curve" smooth="yes"/>
      <point x="450.72659662685606" y="531.1736649163068"/>
      <point x="471.28292467612357" y="531.1736649163068"/>
      <point x="503.98839613857217" y="531.1736649163068" type="curve" smooth="yes"/>
      <point x="571.4883961385722" y="531.1736649163068"/>
      <point x="571.4883961385722" y="441.17366491630685"/>
      <point x="503.98839613857217" y="441.17366491630685" type="curve" smooth="yes"/>
      <point x="455.25019720383705" y="441.17366491630685"/>
      <point x="434.6938691545696" y="441.17366491630685"/>
      <point x="401.988397692121" y="441.17366491630685" type="curve" smooth="yes"/>
      <point x="358.4479018803675" y="441.17366491630685"/>
      <point x="298.3345803985209" y="417.5952508392908"/>
      <point x="278.16571592187915" y="392.3349171784075" type="curve" smooth="yes"/>
      <point x="257.13851894435084" y="365.9995718137426"/>
      <point x="243.55657049812666" y="352.65761083382307"/>
      <point x="224.39912377231389" y="328.2687437362355" type="curve" smooth="yes"/>
      <point x="182.70321360969388" y="275.1867215845623"/>
      <point x="111.92718407412963" y="330.7812684680556"/>
    </contour>
    <contour>
      <point x="225.3478305960798" y="643.3791166261042" type="curve" smooth="yes"/>
      <point x="245.22427332634626" y="618.0861535317636"/>
      <point x="254.82774955653701" y="606.6334463944604"/>
      <point x="275.01389605872134" y="581.5869606710384" type="curve" smooth="yes"/>
      <point x="303.65600246948424" y="546.0485229990302"/>
      <point x="357.0306810556894" y="480.6893280758966"/>
      <point x="385.87560928592785" y="445.3153132174576" type="curve" smooth="yes"/>
      <point x="406.0702879816579" y="420.54954300849306"/>
      <point x="415.1414654665605" y="408.9324055863282"/>
      <point x="435.008119761254" y="384.35398304958744" type="curve" smooth="yes"/>
      <point x="477.44006856866196" y="331.85846209393344"/>
      <point x="407.44604062778996" y="275.2825303507228"/>
      <point x="365.014091820382" y="327.7780513063768" type="curve" smooth="yes"/>
      <point x="344.9864716446539" y="352.55561595227084"/>
      <point x="336.1572259728132" y="363.8730033427686"/>
      <point x="316.1253766810701" y="388.4390875025928" type="curve" smooth="yes"/>
      <point x="287.1624664135278" y="423.95778978432185"/>
      <point x="233.6987145742631" y="489.42685996661163"/>
      <point x="204.93945571160157" y="525.1106575870195" type="curve" smooth="yes"/>
      <point x="184.49744064264016" y="550.4746188823226"/>
      <point x="174.71218759760973" y="562.1557322420442"/>
      <point x="154.58380193640943" y="587.769295120786" type="curve" smooth="yes"/>
      <point x="112.87643580742085" y="640.8423166155388"/>
      <point x="183.64046446709122" y="696.4521381208571"/>
    </contour>
  </outline>
</glyph>
<glyph name="plus" format="2">
  <advance width="540"/>
  <unicode hex="002B"/>
  <outline>
    <contour>
      <point x="314.96865230737296" y="429.61297640285756" type="curve" smooth="yes"/>
      <point x="315.01678353895863" y="153.84133174010404" type="line" smooth="yes"/>
      <point x="315.02856451117043" y="86.3413327681878"/>
      <point x="225.02856588194882" y="86.32562480523877"/>
      <point x="225.016784909737" y="153.82562377715502" type="curve" smooth="yes"/>
      <point x="224.96865367815133" y="429.59726843990853" type="line" smooth="yes"/>
      <point x="224.95687270593953" y="497.09726741182476"/>
      <point x="314.95687133516117" y="497.1129753747738"/>
    </contour>
    <contour>
      <point x="459.9928391281038" y="246.01219330881975" type="curve" smooth="yes"/>
      <point x="79.99284491583474" y="246.01219330881975" type="line" smooth="yes"/>
      <point x="12.492844915834738" y="246.01219330881977"/>
      <point x="12.492844915834766" y="336.01219330881975"/>
      <point x="79.99284491583477" y="336.01219330881975" type="curve" smooth="yes"/>
      <point x="459.9928391281038" y="336.01219330881975" type="line" smooth="yes"/>
      <point x="527.4928391281038" y="336.01219330881975"/>
      <point x="527.4928391281038" y="246.01219330881972"/>
    </contour>
  </outline>
</glyph>
<glyph name="comma" format="2">
  <advance width="269"/>
  <unicode hex="002C"/>
  <outline>
    <contour>
      <point x="66.03112769176413" y="92.79720636383372" type="curve" smooth="yes"/>
      <point x="69.12296403580991" y="98.18353223865546"/>
      <point x="115.69121206924076" y="163.28542418182167"/>
      <point x="112.44751196274233" y="163.7653938142314" type="curve" smooth="yes"/>
      <point x="45.674552819098935" y="173.64577473812955"/>
      <point x="58.84839405096311" y="262.6763869296541"/>
      <point x="125.6213531946065" y="252.79600600575594" type="curve" smooth="yes"/>
      <point x="198.11885995611314" y="242.0685649574172"/>
      <point x="213.18918290066063" y="168.37827611364503"/>
      <point x="144.08586912363478" y="47.992548793400076" type="curve" smooth="yes"/>
      <point x="110.48237594580954" y="-10.548507280502903"/>
      <point x="32.427634513938884" y="34.256150289930744"/>
    </contour>
  </outline>
</glyph>
<glyph name="hyphen" format="2">
  <advance width="340"/>
  <unicode hex="002D"/>
  <outline>
    <contour>
      <point x="255.0" y="320.0" type="curve" smooth="yes"/>
      <point x="198.0" y="340.0"/>
      <point x="132.0" y="342.0"/>
      <point x="91.0" y="322.0" type="curve" smooth="yes"/>
      <point x="38.0" y="296.0"/>
      <point x="-7.0" y="374.0"/>
      <point x="57.0" y="405.0" type="curve" smooth="yes"/>
      <point x="106.0" y="429.0"/>
      <point x="205.0" y="431.0"/>
      <point x="277.0" y="408.0" type="curve" smooth="yes"/>
      <point x="346.0" y="384.0"/>
      <point x="311.0" y="302.0"/>
    </contour>
  </outline>
</glyph>
<glyph name="period" format="2">
  <advance width="260"/>
  <unicode hex="002E"/>
  <outline>
    <contour>
      <point x="89.04122003849875" y="183.5306535715327" type="curve" smooth="yes"/>
      <point x="89.04072709104457" y="200.47693884474083"/>
      <point x="89.03765375139518" y="218.14598276093565"/>
      <point x="89.03457282980668" y="221.67645885952072" type="curve" smooth="yes"/>
      <point x="88.97566799028066" y="289.1764331574409"/>
      <point x="178.97563372084082" y="289.25497294347565"/>
      <point x="179.03453856036685" y="221.75499864555547" type="curve" smooth="yes"/>
      <point x="179.03762748952042" y="218.21534655328492"/>
      <point x="179.04072577175697" y="200.52360160829514"/>
      <point x="179.04122000042156" y="183.53327156539632" type="curve" smooth="yes"/>
      <point x="179.04318349581928" y="116.03327159395421"/>
      <point x="89.04318353389647" y="116.03065360009059"/>
    </contour>
  </outline>
</glyph>
<glyph name="zero" format="2">
  <advance width="592"/>
  <unicode hex="0030"/>
  <outline>
    <contour>
      <point x="333.87745906467023" y="208.8685314248531" type="curve" smooth="yes"/>
      <point x="362.72278896952736" y="220.7666639504108"/>
      <point x="385.1511082768945" y="243.72668556852594"/>
      <point x="403.6796361600269" y="262.8925496266043" type="curve" smooth="yes"/>
      <point x="439.8045563455697" y="300.2600789711964"/>
      <point x="462.0136377249571" y="341.54487865313564"/>
      <point x="462.00357646069074" y="399.1916768488871" type="curve" smooth="yes"/>
      <point x="461.98593059852266" y="500.2950201727711"/>
      <point x="397.9811066949086" y="569.1599923110721"/>
      <point x="295.96606131106137" y="569.1599923110721" type="curve" smooth="yes"/>
      <point x="193.04485237469152" y="569.1599923110721"/>
      <point x="129.98591799606635" y="500.4119073571347"/>
      <point x="130.00358151733997" y="399.20738481183605" type="curve" smooth="yes"/>
      <point x="130.01364278160636" y="341.56058661608455"/>
      <point x="152.24887509012026" y="300.26391214678745"/>
      <point x="188.38233444079444" y="262.8963612793864" type="curve" smooth="yes"/>
      <point x="206.91521113284986" y="243.7305181812018"/>
      <point x="229.350220283515" y="220.76670542192244"/>
      <point x="258.1957479613115" y="208.86857289636475" type="curve" smooth="yes"/>
      <point x="320.5958474040977" y="183.1299328870248"/>
      <point x="286.2776607249779" y="99.92980029664315"/>
      <point x="223.87756128219172" y="125.6684403059831" type="curve" smooth="yes"/>
      <point x="181.00983788904432" y="143.35041373693622"/>
      <point x="151.22528098426253" y="171.8514710569336"/>
      <point x="123.68332576026884" y="200.33408609891305" type="curve" smooth="yes"/>
      <point x="72.08427865699385" y="253.69543184299496"/>
      <point x="40.01795050356751" y="316.8713037401864"/>
      <point x="40.00358288811829" y="399.191676848887" type="curve" smooth="yes"/>
      <point x="39.97730632061429" y="549.7453194202627"/>
      <point x="142.85864561939067" y="659.1599923110721"/>
      <point x="295.96606131106137" y="659.1599923110721" type="curve" smooth="yes"/>
      <point x="447.95328094964407" y="659.1599923110721"/>
      <point x="551.9772853841248" y="549.8363042044972"/>
      <point x="552.0035750899124" y="399.207384811836" type="curve" smooth="yes"/>
      <point x="552.0179427053617" y="316.8870117031354"/>
      <point x="519.9728685768177" y="253.69921276092734"/>
      <point x="468.3860155117487" y="200.33789775169515" type="curve" smooth="yes"/>
      <point x="440.85052311069535" y="171.8552515609382"/>
      <point x="411.063276308186" y="143.35045520844787"/>
      <point x="368.19584682804145" y="125.66848177749475" type="curve" smooth="yes"/>
      <point x="305.7958095925227" y="99.92969095496636"/>
      <point x="271.47742182915147" y="183.12974060232472"/>
    </contour>
  </outline>
</glyph>
<glyph name="one" format="2">
  <advance width="344"/>
  <unicode hex="0031"/>
  <outline>
    <contour>
      <point x="42.11510409830821" y="543.3281131302629" type="curve" smooth="yes"/>
      <point x="80.22516809712864" y="565.7848380132085"/>
      <point x="129.0982723231124" y="587.8677971946634"/>
      <point x="158.78106352359825" y="602.76184343656" type="curve" smooth="yes"/>
      <point x="213.61175794197985" y="630.2744480506883"/>
      <point x="263.96315304104047" y="630.8229776509054"/>
      <point x="263.98765725732767" y="490.42415958490056" type="curve" smooth="yes"/>
      <point x="264.00600284759946" y="385.311669526757"/>
      <point x="264.0087572427135" y="369.5301479328055"/>
      <point x="264.02529834869597" y="274.75659132300365" type="curve" smooth="yes"/>
      <point x="264.03134660007373" y="240.10266341014687"/>
      <point x="264.03554207468795" y="206.16774629984673"/>
      <point x="264.03702327910685" y="165.14881121932237" type="curve" smooth="yes"/>
      <point x="264.03946072166895" y="97.64881126333071"/>
      <point x="174.03946078034676" y="97.64556133991456"/>
      <point x="174.03702333778466" y="165.14556129590622" type="curve" smooth="yes"/>
      <point x="174.03521885349568" y="215.1170729628926"/>
      <point x="174.0326680303212" y="232.52357177932475"/>
      <point x="174.02529971947433" y="274.7408833600546" type="curve" smooth="yes"/>
      <point x="174.01419991107974" y="338.33810112444695"/>
      <point x="173.9999693246891" y="419.8733555559891"/>
      <point x="173.98765862810603" y="490.40845162195177" type="curve" smooth="yes"/>
      <point x="173.98651376455788" y="496.9680365982197"/>
      <point x="201.7061440421438" y="523.6059698443487"/>
      <point x="199.14439456091893" y="522.3205511323481" type="curve" smooth="yes"/>
      <point x="172.78297887030467" y="509.0930840236804"/>
      <point x="121.65162781372115" y="485.73268415640695"/>
      <point x="87.80591457593191" y="465.7887693240514" type="curve" smooth="yes"/>
      <point x="29.651406721273297" y="431.52066146583354"/>
      <point x="-16.039403756350403" y="509.06000527204503"/>
    </contour>
  </outline>
</glyph>
<glyph name="two" format="2">
  <advance width="505"/>
  <unicode hex="0032"/>
  <outline>
    <contour>
      <point x="41.753427197763116" y="224.8939729021956" type="curve" smooth="yes"/>
      <point x="55.9443829173387" y="236.363614823746"/>
      <point x="70.98785965026461" y="248.03277412686143"/>
      <point x="86.34964981354673" y="260.0205311067832" type="curve" smooth="yes"/>
      <point x="100.03840530591243" y="270.7027154391977"/>
      <point x="113.21513258452292" y="281.37125046178284"/>
      <point x="127.1088430179328" y="292.36269695855185" type="curve" smooth="yes"/>
      <point x="172.3836124225346" y="328.17999774003283"/>
      <point x="217.19737370396464" y="363.7545942827056"/>
      <point x="263.1933508517495" y="399.92437950081586" type="curve" smooth="yes"/>
      <point x="320.7656934195106" y="445.19745324134556"/>
      <point x="366.9884692766259" y="485.75396023531295"/>
      <point x="366.9837076853747" y="513.0358686199213" type="curve" smooth="yes"/>
      <point x="366.97730740960884" y="549.706747716284"/>
      <point x="296.7679728816666" y="569.1599923110721"/>
      <point x="235.96606156237075" y="569.1599923110721" type="curve" smooth="yes"/>
      <point x="200.4353919082599" y="569.1599923110721"/>
      <point x="161.05652508089955" y="562.0790500406686"/>
      <point x="119.6042859587856" y="539.3478319993146" type="curve" smooth="yes"/>
      <point x="60.41905408014053" y="506.89234975869743"/>
      <point x="17.145077759317637" y="585.8059922635575"/>
      <point x="76.3303096379627" y="618.2614745041747" type="curve" smooth="yes"/>
      <point x="132.88299548031748" y="649.273344066149"/>
      <point x="187.4920866632569" y="659.1599923110721"/>
      <point x="235.96606156237075" y="659.1599923110721" type="curve" smooth="yes"/>
      <point x="373.6402852111786" y="659.1599923110721"/>
      <point x="456.9692141221954" y="596.0857230523553"/>
      <point x="456.98370631459636" y="513.0515765828702" type="curve" smooth="yes"/>
      <point x="456.9929113217214" y="460.3107704488509"/>
      <point x="430.1235309432798" y="416.6991626775239"/>
      <point x="318.82590046810765" y="329.17821760362557" type="curve" smooth="yes"/>
      <point x="272.9262108425919" y="293.08414985507744"/>
      <point x="228.12792177414295" y="257.52175986452085"/>
      <point x="182.94793012267527" y="221.77943866517907" type="curve" smooth="yes"/>
      <point x="169.36428336079427" y="211.03328648863746"/>
      <point x="155.7200645529978" y="199.99408596980527"/>
      <point x="141.7184786101104" y="189.0677806477853" type="curve" smooth="yes"/>
      <point x="126.77460983241876" y="177.40615362758302"/>
      <point x="112.13168426188358" y="166.05548170908952"/>
      <point x="98.32679708081425" y="154.89787429609126" type="curve" smooth="yes"/>
      <point x="45.82972312623596" y="112.46784688380293"/>
      <point x="-10.743646756815167" y="182.46394548990727"/>
    </contour>
    <contour>
      <point x="398.8169590274723" y="137.20771107539585" type="curve" smooth="yes"/>
      <point x="381.45939249075496" y="147.66414455853982"/>
      <point x="340.3800238774711" y="152.34332838756782"/>
      <point x="314.65562180405595" y="144.17688727119963" type="curve" smooth="yes"/>
      <point x="269.7359876490036" y="129.91674834749892"/>
      <point x="239.22159106866343" y="95.7416453682256"/>
      <point x="216.93233632687947" y="81.76654003981585" type="curve" smooth="yes"/>
      <point x="183.1396066524638" y="60.57888876993593"/>
      <point x="148.73108748045217" y="60.04310985675775"/>
      <point x="125.02530169187209" y="60.04310985675775" type="curve" smooth="yes"/>
      <point x="100.65620222450458" y="60.04310985675775"/>
      <point x="86.3780382607943" y="60.04310985675775"/>
      <point x="70.02530252957" y="60.04310985675775" type="curve" smooth="yes"/>
      <point x="2.5253025295699985" y="60.043109856757766"/>
      <point x="2.525302529570027" y="150.04310985675778"/>
      <point x="70.02530252957003" y="150.04310985675775" type="curve" smooth="yes"/>
      <point x="94.39440199693753" y="150.04310985675775"/>
      <point x="108.67256596064782" y="150.04310985675775"/>
      <point x="125.02530169187212" y="150.04310985675775" type="curve" smooth="yes"/>
      <point x="134.86019404361946" y="150.04310985675775"/>
      <point x="155.10375452459976" y="149.22797835412086"/>
      <point x="169.12344834886784" y="158.01816448353466" type="curve" smooth="yes"/>
      <point x="204.1256003635594" y="179.96410959444648"/>
      <point x="216.88361559360118" y="207.56455523634568"/>
      <point x="287.4236081305445" y="229.95810567759492" type="curve" smooth="yes"/>
      <point x="341.61778937385503" y="247.16253238147763"/>
      <point x="408.69073892255864" y="236.3286704323814"/>
      <point x="445.258317991999" y="214.2998648754291" type="curve" smooth="yes"/>
      <point x="503.07743334202394" y="179.4688456520342"/>
      <point x="456.63607437749727" y="102.37669185200093"/>
    </contour>
  </outline>
</glyph>
<glyph name="three" format="2">
  <advance width="488"/>
  <unicode hex="0033"/>
  <outline>
    <contour>
      <point x="97.86969895714932" y="241.98713660586992" type="curve" smooth="yes"/>
      <point x="138.30197685679747" y="234.84019327147183"/>
      <point x="184.0273542367975" y="234.48273314859034"/>
      <point x="229.9777338022717" y="237.61984290589965" type="curve" smooth="yes"/>
      <point x="269.14818140409665" y="240.29407529596654"/>
      <point x="365.0278668955878" y="269.4249492707164"/>
      <point x="365.0213514502832" y="286.04480459090433" type="curve" smooth="yes"/>
      <point x="365.0198252519456" y="289.9378916131128"/>
      <point x="201.70479576566674" y="289.0143695190104"/>
      <point x="192.92170392915273" y="290.4117744010507" type="curve" smooth="yes"/>
      <point x="64.43901620304744" y="310.853589018055"/>
      <point x="82.60145982172631" y="423.8146683322098"/>
      <point x="168.08535744945502" y="487.5930680485701" type="curve" smooth="yes"/>
      <point x="223.78207093727903" y="529.1476456274215"/>
      <point x="285.437537290467" y="564.5746439772316"/>
      <point x="332.6055810162674" y="588.5234095278419" type="curve" smooth="yes"/>
      <point x="353.9056520090879" y="599.3381554050252"/>
      <point x="560.4703096254436" y="406.7607513598397"/>
      <point x="282.1705177776494" y="518.6689266419776" type="curve" smooth="yes"/>
      <point x="224.02759685197321" y="542.048995103993"/>
      <point x="134.06907942928626" y="560.5370565862098"/>
      <point x="92.32021875646967" y="559.2808545476564" type="curve" smooth="yes"/>
      <point x="24.850754516263805" y="557.2507325957577"/>
      <point x="22.143925247065567" y="647.2100182493655"/>
      <point x="89.61338948727143" y="649.2401402012642" type="curve" smooth="yes"/>
      <point x="141.83045957100123" y="650.8113253504957"/>
      <point x="243.0259645603035" y="631.4132701177404"/>
      <point x="315.7477808666734" y="602.1708272398112" type="curve" smooth="yes"/>
      <point x="349.03547012893375" y="588.785389399686"/>
      <point x="553.6802704906315" y="599.8340730850695"/>
      <point x="373.350480487904" y="508.27471379360435" type="curve" smooth="yes"/>
      <point x="330.13782272619085" y="486.33422765493617"/>
      <point x="272.93066023637095" y="453.52771909660646"/>
      <point x="221.9045241431959" y="415.45779722776194" type="curve" smooth="yes"/>
      <point x="203.60749743521012" y="401.806628816083"/>
      <point x="179.56247961725018" y="383.66923182037885"/>
      <point x="207.06299414778795" y="379.2938530837207" type="curve" smooth="yes"/>
      <point x="414.00842530937047" y="346.36848224575056"/>
      <point x="454.9853845582697" y="377.80821510663174"/>
      <point x="455.0213445344232" y="286.0800870901235" type="curve" smooth="yes"/>
      <point x="455.0443985096154" y="227.2730962653498"/>
      <point x="374.70696509380633" y="157.29124895360292"/>
      <point x="236.10791544234712" y="147.82885854187964" type="curve" smooth="yes"/>
      <point x="182.0954140701459" y="144.14133415853965"/>
      <point x="129.73009356129194" y="144.96016537228044"/>
      <point x="82.203860128895" y="153.361059778521" type="curve" smooth="yes"/>
      <point x="15.73430250838328" y="165.11043889971174"/>
      <point x="31.400141336637603" y="253.73651572706066"/>
    </contour>
  </outline>
</glyph>
<glyph name="five" format="2">
  <advance width="501"/>
  <unicode hex="0035"/>
  <outline>
    <contour>
      <point x="390.04725755768584" y="477.23611075682084" type="curve" smooth="yes"/>
      <point x="142.04726133494177" y="477.23611075682084" type="line"/>
      <point x="186.60184532866134" y="515.9203332792185" type="line"/>
      <point x="158.63627809772166" y="318.6375413281718" type="line"/>
      <point x="106.64946092311571" y="369.3353186474321" type="line"/>
      <point x="323.651387587082" y="405.67457612619006"/>
      <point x="466.0778937403252" y="346.7049350334436"/>
      <point x="466.10032416829824" y="218.18804882807987" type="curve" smooth="yes"/>
      <point x="466.12492029276535" y="77.26263567874993"/>
      <point x="291.3220284700231" y="17.498630780452288"/>
      <point x="83.23919251428804" y="75.10964873458087" type="curve" smooth="yes"/>
      <point x="18.186457567206105" y="93.12052533469961"/>
      <point x="42.20095970069784" y="179.85750526414216"/>
      <point x="107.25369464777977" y="161.84662866402343" type="curve" smooth="yes"/>
      <point x="226.287485500635" y="128.89024458518165"/>
      <point x="376.1143957526152" y="137.55595519534876"/>
      <point x="376.1003255390766" y="218.17234086513085" type="curve" smooth="yes"/>
      <point x="376.08766579326203" y="290.70734172128107"/>
      <point x="243.9899333655595" y="301.0812157579241"/>
      <point x="121.51392728488845" y="280.5713189641161" type="curve" smooth="yes"/>
      <point x="91.50044023857133" y="275.5452445398995"/>
      <point x="65.25604287158829" y="301.1388985833983"/>
      <point x="69.5271101102825" y="331.26909628337637" type="curve" smooth="yes"/>
      <point x="97.49267734122219" y="528.5518882344231" type="line" smooth="yes"/>
      <point x="100.63832073865922" y="550.7427956029021"/>
      <point x="119.63450955787852" y="567.2361107568208"/>
      <point x="142.04726133494177" y="567.2361107568208" type="curve" smooth="yes"/>
      <point x="390.04725755768584" y="567.2361107568208" type="line" smooth="yes"/>
      <point x="457.54725755768584" y="567.2361107568208"/>
      <point x="457.54725755768584" y="477.23611075682084"/>
    </contour>
  </outline>
</glyph>
<glyph name="six" format="2">
  <advance width="534"/>
  <unicode hex="0036"/>
  <outline>
    <contour>
      <point x="96.81476814315229" y="336.75160740877186" type="curve" smooth="yes"/>
      <point x="133.65099016548174" y="395.79568402461956"/>
      <point x="198.5310296567161" y="438.24061706462805"/>
      <point x="277.1389463582736" y="446.76563851545404" type="curve" smooth="yes"/>
      <point x="410.81451554057406" y="461.26274189318457"/>
      <point x="501.00121903281104" y="412.7085175625556"/>
      <point x="501.01838503471026" y="314.3545710694503" type="curve" smooth="yes"/>
      <point x="501.0351510109719" y="218.2926026605992"/>
      <point x="418.0197287139032" y="139.23906934965106"/>
      <point x="277.0410965146606" y="139.23906934965106" type="curve" smooth="yes"/>
      <point x="158.75546723017743" y="139.23906934965106"/>
      <point x="40.036706513910744" y="209.40474914890152"/>
      <point x="40.006914608609705" y="380.0997937568503" type="curve" smooth="yes"/>
      <point x="39.97286197441242" y="575.2070168293623"/>
      <point x="180.29431013052624" y="664.5709511720408"/>
      <point x="316.4746399790851" y="656.9687163353049" type="curve" smooth="yes"/>
      <point x="362.34725446041534" y="654.4078884371057"/>
      <point x="408.4688487657096" y="636.4042779554416"/>
      <point x="449.3788837296418" y="603.0932707380819" type="curve" smooth="yes"/>
      <point x="501.721712535845" y="560.4731079912726"/>
      <point x="444.89482887343263" y="490.68266958300177"/>
      <point x="392.55200006722947" y="533.302832329811" type="curve" smooth="yes"/>
      <point x="367.49501920981874" y="553.7054858822299"/>
      <point x="339.5547320945005" y="565.5401465245786"/>
      <point x="311.45822169182173" y="567.1086275997197" type="curve" smooth="yes"/>
      <point x="217.65407669170543" y="572.3452218989341"/>
      <point x="129.98345699977236" y="514.5098468063238"/>
      <point x="130.00691323783138" y="380.1155017197992" type="curve" smooth="yes"/>
      <point x="130.02647492436859" y="268.0352932762037"/>
      <point x="199.3734757788834" y="229.23906934965106"/>
      <point x="277.0410965146606" y="229.23906934965106" type="curve" smooth="yes"/>
      <point x="354.6660381991361" y="229.23906934965106"/>
      <point x="411.0276180025702" y="261.44570774310966"/>
      <point x="411.0183864054886" y="314.33886310650126" type="curve" smooth="yes"/>
      <point x="411.0107900957197" y="357.862512289962"/>
      <point x="345.996736656793" y="363.70554454047704"/>
      <point x="286.8425411726519" y="357.29027739476135" type="curve" smooth="yes"/>
      <point x="237.4530546540703" y="351.93399205247533"/>
      <point x="196.3174017291639" y="326.2108924699307"/>
      <point x="173.17314136319405" y="289.1133996424336" type="curve" smooth="yes"/>
      <point x="137.4444855384403" y="231.84461972740232"/>
      <point x="61.08611231839855" y="279.48282749374056"/>
    </contour>
  </outline>
</glyph>
<glyph name="seven" format="2">
  <advance width="483"/>
  <unicode hex="0037"/>
  <outline>
    <contour>
      <point x="53" y="627" type="curve" smooth="yes"/>
      <point x="86" y="646"/>
      <point x="122" y="655"/>
      <point x="167" y="655" type="curve" smooth="yes"/>
      <point x="238" y="655"/>
      <point x="260" y="655"/>
      <point x="306" y="655" type="curve" smooth="yes"/>
      <point x="426" y="655"/>
      <point x="480" y="508"/>
      <point x="405" y="440" type="curve" smooth="yes"/>
      <point x="358" y="399"/>
      <point x="309" y="324"/>
      <point x="256" y="239" type="curve" smooth="yes"/>
      <point x="241" y="216"/>
      <point x="228" y="187"/>
      <point x="214" y="152" type="curve" smooth="yes"/>
      <point x="190" y="89"/>
      <point x="106" y="121"/>
      <point x="130" y="184" type="curve" smooth="yes"/>
      <point x="146" y="227"/>
      <point x="163" y="260"/>
      <point x="180" y="287" type="curve" smooth="yes"/>
      <point x="239" y="384"/>
      <point x="292" y="459"/>
      <point x="345" y="508" type="curve" smooth="yes"/>
      <point x="363" y="524"/>
      <point x="335" y="565"/>
      <point x="306" y="565" type="curve" smooth="yes"/>
      <point x="238" y="565"/>
      <point x="214" y="565"/>
      <point x="167" y="565" type="curve" smooth="yes"/>
      <point x="138" y="565"/>
      <point x="118" y="560"/>
      <point x="97" y="549" type="curve" smooth="yes"/>
      <point x="38" y="516"/>
      <point x="-6" y="595"/>
    </contour>
  </outline>
</glyph>
<glyph name="eight" format="2">
  <advance width="535"/>
  <unicode hex="0038"/>
  <outline>
    <contour>
      <point x="212.0" y="156.0" type="curve" smooth="yes"/>
      <point x="110.0" y="146.0"/>
      <point x="45.0" y="217.0"/>
      <point x="45.0" y="292.0" type="curve" smooth="yes"/>
      <point x="45.0" y="388.0"/>
      <point x="124.0" y="380.0"/>
      <point x="265.0" y="380.0" type="curve" smooth="yes"/>
      <point x="337.0" y="380.0"/>
      <point x="380.0" y="452.0"/>
      <point x="380.0" y="501.0" type="curve" smooth="yes"/>
      <point x="380.0" y="554.0"/>
      <point x="328.0" y="570.0"/>
      <point x="270.0" y="568.0" type="curve" smooth="yes"/>
      <point x="211" y="566"/>
      <point x="156.0" y="543.0"/>
      <point x="156.0" y="517.0" type="curve" smooth="yes"/>
      <point x="156.0" y="490.0"/>
      <point x="218.0" y="490.0"/>
      <point x="277.0" y="485.0" type="curve" smooth="yes"/>
      <point x="390.0" y="475.0"/>
      <point x="490.0" y="393.0"/>
      <point x="490.0" y="293.0" type="curve" smooth="yes"/>
      <point x="490.0" y="214.0"/>
      <point x="422.0" y="144.0"/>
      <point x="321.0" y="155.0" type="curve" smooth="yes"/>
      <point x="251.0" y="162.0"/>
      <point x="265.0" y="251.0"/>
      <point x="325.0" y="245.0" type="curve" smooth="yes"/>
      <point x="375.0" y="240.0"/>
      <point x="400.0" y="260.0"/>
      <point x="400.0" y="297.0" type="curve" smooth="yes"/>
      <point x="400.0" y="346.0"/>
      <point x="342.0" y="395.0"/>
      <point x="264.0" y="395.0" type="curve" smooth="yes"/>
      <point x="144.0" y="395.0"/>
      <point x="66.0" y="425.0"/>
      <point x="66.0" y="508.0" type="curve" smooth="yes"/>
      <point x="66.0" y="588.0"/>
      <point x="145" y="653"/>
      <point x="268.0" y="658.0" type="curve" smooth="yes"/>
      <point x="389.0" y="663.0"/>
      <point x="470.0" y="603.0"/>
      <point x="470.0" y="502.0" type="curve" smooth="yes"/>
      <point x="470.0" y="406.0"/>
      <point x="379.0" y="302.0"/>
      <point x="287.0" y="292.0" type="curve" smooth="yes"/>
      <point x="228.0" y="286.0"/>
      <point x="142.0" y="299.0"/>
      <point x="142.0" y="275.0" type="curve" smooth="yes"/>
      <point x="142.0" y="257.0"/>
      <point x="161.0" y="241.0"/>
      <point x="210.0" y="246.0" type="curve" smooth="yes"/>
      <point x="269.0" y="252.0"/>
      <point x="283.0" y="163.0"/>
    </contour>
  </outline>
</glyph>
<glyph name="semicolon" format="2">
  <advance width="279"/>
  <unicode hex="003B"/>
  <outline>
    <contour>
      <point x="140.66281577271064" y="311.30734886064835" type="curve" smooth="yes"/>
      <point x="52.72714211009352" y="320.45128762790955"/>
      <point x="52.72473662224876" y="422.7934277205802"/>
      <point x="140.65721844812032" y="431.9373664878414" type="curve" smooth="yes"/>
      <point x="207.79519485459716" y="438.9189224779742"/>
      <point x="217.1039361747742" y="349.40162060267176"/>
      <point x="149.96595976829735" y="342.42006461253897" type="curve" smooth="yes"/>
      <point x="147.40172799483747" y="342.1534148167556"/>
      <point x="147.4068979723702" y="401.09133529109926"/>
      <point x="149.9712228241674" y="400.8246854953159" type="curve" smooth="yes"/>
      <point x="217.10922530016805" y="393.84338020672334"/>
      <point x="207.8008182487113" y="304.32604357205577"/>
    </contour>
    <contour>
      <point x="80.5233891388715" y="21.07336727283746" type="curve" smooth="yes"/>
      <point x="95.63430177387941" y="39.580665404765035"/>
      <point x="120.91837719742237" y="82.45240533878099"/>
      <point x="105.06518487424717" y="92.61838600279758" type="curve" smooth="yes"/>
      <point x="48.24433290923332" y="129.05519132337943"/>
      <point x="96.82674000334248" y="204.81632727673122"/>
      <point x="153.64759196835632" y="168.37952195614935" type="curve" smooth="yes"/>
      <point x="218.84112620534896" y="126.57367017806243"/>
      <point x="212.37855569945802" y="40.26098515782195"/>
      <point x="150.23751936178212" y="-35.84710397664412" type="curve" smooth="yes"/>
      <point x="107.5471659246709" y="-88.13270164382706"/>
      <point x="37.833035701760274" y="-31.212230394345482"/>
    </contour>
  </outline>
</glyph>
<glyph name="less" format="2">
  <advance width="447"/>
  <unicode hex="003C"/>
  <outline>
    <contour>
      <point x="380.0" y="454.0" type="curve" smooth="yes"/>
      <point x="329.0" y="421.0"/>
      <point x="292.0" y="399.0"/>
      <point x="247.0" y="377.0" type="curve" smooth="yes"/>
      <point x="232.0" y="369.0"/>
      <point x="228.0" y="372.0"/>
      <point x="244.0" y="362.0" type="curve" smooth="yes"/>
      <point x="290.0" y="331.0"/>
      <point x="328.0" y="298.0"/>
      <point x="377.0" y="278.0" type="curve" smooth="yes"/>
      <point x="424.0" y="259.0"/>
      <point x="398.0" y="171.0"/>
      <point x="334.0" y="197.0" type="curve" smooth="yes"/>
      <point x="266.0" y="225.0"/>
      <point x="195.0" y="297.0"/>
      <point x="89.0" y="332.0" type="curve" smooth="yes"/>
      <point x="31.0" y="350.0"/>
      <point x="35.0" y="412.0"/>
      <point x="88.0" y="426.0" type="curve" smooth="yes"/>
      <point x="201.0" y="453.0"/>
      <point x="270.0" y="490.0"/>
      <point x="328.0" y="528.0" type="curve" smooth="yes"/>
      <point x="383.0" y="564.0"/>
      <point x="429.0" y="487.0"/>
    </contour>
  </outline>
</glyph>
<glyph name="equal" format="2">
  <advance width="490"/>
  <unicode hex="003D"/>
  <outline>
    <contour>
      <point x="409.9780298991569" y="330.86500705120545" type="curve" smooth="yes"/>
      <point x="79.97803492534432" y="330.86500705120545" type="line" smooth="yes"/>
      <point x="12.478034925344318" y="330.86500705120545"/>
      <point x="12.478034925344346" y="420.86500705120545"/>
      <point x="79.97803492534435" y="420.86500705120545" type="curve" smooth="yes"/>
      <point x="409.9780298991569" y="420.86500705120545" type="line" smooth="yes"/>
      <point x="477.4780298991569" y="420.86500705120545"/>
      <point x="477.4780298991569" y="330.86500705120545"/>
    </contour>
    <contour>
      <point x="410.00764911859426" y="161.15937956643404" type="curve" smooth="yes"/>
      <point x="80.00765414478168" y="161.15937956643404" type="line" smooth="yes"/>
      <point x="12.507654144781682" y="161.15937956643407"/>
      <point x="12.50765414478171" y="251.15937956643407"/>
      <point x="80.00765414478171" y="251.15937956643404" type="curve" smooth="yes"/>
      <point x="410.00764911859426" y="251.15937956643404" type="line" smooth="yes"/>
      <point x="477.50764911859426" y="251.159379566434"/>
      <point x="477.50764911859426" y="161.159379566434"/>
    </contour>
  </outline>
</glyph>
<glyph name="greater" format="2">
  <advance width="447"/>
  <unicode hex="003E"/>
  <outline>
    <contour>
      <point x="72.38117537065895" y="214.3583538693528" type="curve" smooth="yes"/>
      <point x="349.36068452493026" y="331.7380795463197" type="line"/>
      <point x="349.0950268938672" y="248.98568256085045" type="line"/>
      <point x="72.07417424579799" y="368.48672858137706" type="line" smooth="yes"/>
      <point x="10.095068295623868" y="395.2232284573348"/>
      <point x="45.74373479690096" y="477.86203639090024"/>
      <point x="107.72284074707508" y="451.1255365149425" type="curve" smooth="yes"/>
      <point x="384.74369339514436" y="331.6244904944159" type="line" smooth="yes"/>
      <point x="421.1047325093327" y="315.93909292595583"/>
      <point x="420.9390331439439" y="264.3237125959498"/>
      <point x="384.4780357640813" y="248.8720935089467" type="curve" smooth="yes"/>
      <point x="107.49852660981006" y="131.49236783197983" type="line" smooth="yes"/>
      <point x="45.34903708178034" y="105.15435440261649"/>
      <point x="10.231685842629233" y="188.02034043998947"/>
    </contour>
  </outline>
</glyph>
<glyph name="question" format="2">
  <advance width="511"/>
  <unicode hex="003F"/>
  <outline>
    <contour>
      <point x="74.0" y="633.0" type="curve" smooth="yes"/>
      <point x="133.0" y="650.0"/>
      <point x="189.0" y="658.0"/>
      <point x="242.0" y="658.0" type="curve" smooth="yes"/>
      <point x="381.0" y="658.0"/>
      <point x="472.0" y="606.0"/>
      <point x="472.0" y="508.0" type="curve" smooth="yes"/>
      <point x="472.0" y="441.0"/>
      <point x="421.0" y="375.0"/>
      <point x="338.0" y="358.0" type="curve" smooth="yes"/>
      <point x="280.0" y="347.0"/>
      <point x="271.0" y="359.0"/>
      <point x="271.0" y="336.0" type="curve" smooth="yes"/>
      <point x="271.0" y="289.0"/>
      <point x="181.0" y="279.0"/>
      <point x="181.0" y="346.0" type="curve" smooth="yes"/>
      <point x="181.0" y="405.0"/>
      <point x="184.0" y="419.0"/>
      <point x="307.0" y="436.0" type="curve" smooth="yes"/>
      <point x="360.0" y="443.0"/>
      <point x="382.0" y="475.0"/>
      <point x="382.0" y="507.0" type="curve" smooth="yes"/>
      <point x="382.0" y="556.0"/>
      <point x="310.0" y="568.0"/>
      <point x="239.0" y="568.0" type="curve" smooth="yes"/>
      <point x="200.0" y="568.0"/>
      <point x="150.0" y="561.0"/>
      <point x="101.0" y="547.0" type="curve" smooth="yes"/>
      <point x="36.0" y="528.0"/>
      <point x="11.0" y="615.0"/>
    </contour>
    <contour>
      <point x="182.0" y="182.0" type="curve" smooth="yes"/>
      <point x="182.0" y="203.0"/>
      <point x="182.0" y="210.0"/>
      <point x="182.0" y="229.0" type="curve" smooth="yes"/>
      <point x="182.0" y="285.0"/>
      <point x="272.0" y="285.0"/>
      <point x="272.0" y="229.0" type="curve" smooth="yes"/>
      <point x="272.0" y="210.0"/>
      <point x="272.0" y="203.0"/>
      <point x="272.0" y="182.0" type="curve" smooth="yes"/>
      <point x="272.0" y="118.0"/>
      <point x="182.0" y="118.0"/>
    </contour>
  </outline>
</glyph>
<glyph name="at" format="2">
  <advance width="956"/>
  <unicode hex="0040"/>
  <outline>
    <contour>
      <point x="674.9928390214877" y="460.72567477506567" type="curve" smooth="yes"/>
      <point x="674.9972789448454" y="435.2867876693086"/>
      <point x="675.0075680692904" y="376.33444681091714"/>
      <point x="675.0130788214366" y="344.76016266047174" type="curve" smooth="yes"/>
      <point x="675.0288762531313" y="254.24754587583422"/>
      <point x="596.7034754787652" y="185.20101012677665"/>
      <point x="482.0330747341149" y="185.20101012677665" type="curve" smooth="yes"/>
      <point x="366.31887217320735" y="185.20101012677665"/>
      <point x="288.02847247282745" y="256.57910077169066"/>
      <point x="288.01271447554063" y="346.8657750410825" type="curve" smooth="yes"/>
      <point x="287.9962704256788" y="441.0832410379744"/>
      <point x="375.08690919579743" y="508.73474075442937"/>
      <point x="490.49383994112713" y="486.52197606528915" type="curve" smooth="yes"/>
      <point x="599.2407055570261" y="465.59109677574287"/>
      <point x="674.9846777514989" y="366.06495135729546"/>
      <point x="674.9999969995184" y="278.2921252289364" type="curve" smooth="yes"/>
      <point x="675.006198642441" y="242.7593284980658"/>
      <point x="701.5844515283715" y="256.15204752477814"/>
      <point x="727.3854552755411" y="263.06235514874675" type="curve" smooth="yes"/>
      <point x="784.5224808304429" y="278.365419602053"/>
      <point x="822.018466080963" y="313.8649029697498"/>
      <point x="822.0071527386111" y="378.68558019447727" type="curve" smooth="yes"/>
      <point x="821.9869758885108" y="494.2904162457069"/>
      <point x="682.7395359146535" y="568.4528855298854"/>
      <point x="499.9661843893965" y="568.4528855298854" type="curve" smooth="yes"/>
      <point x="307.1400035464496" y="568.4528855298854"/>
      <point x="156.99020609075558" y="475.85646074983447"/>
      <point x="157.01358036468503" y="341.9317355357257" type="curve" smooth="yes"/>
      <point x="157.03729486164363" y="206.0576759457859"/>
      <point x="302.7363554168814" y="126.00147929641517"/>
      <point x="488.05911487315166" y="126.00147929641514" type="curve"/>
      <point x="488.05911487315166" y="126.00147929641514" type="line"/>
      <point x="551.6199347180325" y="126.00147929641514"/>
      <point x="611.4749284741486" y="134.161087648624"/>
      <point x="682.698496507366" y="120.21286051994502" type="curve" smooth="yes"/>
      <point x="748.9401895451197" y="107.24027005034226"/>
      <point x="731.643402252316" y="18.918012666670798"/>
      <point x="665.4017092145624" y="31.890603136273562" type="curve" smooth="yes"/>
      <point x="606.8300262831459" y="43.361119980576305"/>
      <point x="540.3292312071012" y="36.00147929641514"/>
      <point x="488.05911487315166" y="36.00147929641514" type="curve"/>
      <point x="488.05911487315166" y="36.00147929641514"/>
      <point x="488.05911487315166" y="36.00147929641514"/>
      <point x="488.05911487315166" y="36.00147929641514" type="curve"/>
      <point x="240.23238540715946" y="36.00147929641517"/>
      <point x="67.04529444165996" y="160.21560445023067"/>
      <point x="67.01358173546338" y="341.91602757277667" type="curve" smooth="yes"/>
      <point x="66.98249545949173" y="520.0272698722849"/>
      <point x="243.51980704645587" y="658.4528855298854"/>
      <point x="499.9661843893965" y="658.4528855298854" type="curve" smooth="yes"/>
      <point x="751.6949984672733" y="658.4528855298854"/>
      <point x="911.9793623356505" y="537.9207150486707"/>
      <point x="912.0071513678328" y="378.70128815742606" type="curve" smooth="yes"/>
      <point x="912.025938892429" y="271.05670092378915"/>
      <point x="845.5542948824252" y="201.5395262500518"/>
      <point x="750.6695791567322" y="176.1264616692101" type="curve" smooth="yes"/>
      <point x="668.8092898859743" y="154.20174174004626"/>
      <point x="585.019674670047" y="165.53952348110107"/>
      <point x="584.9999983702968" y="278.2764172659874" type="curve" smooth="yes"/>
      <point x="584.991384670025" y="327.62928467269865"/>
      <point x="534.629593292883" y="386.3751069806134"/>
      <point x="473.48345186879055" y="398.14411290019274" type="curve" smooth="yes"/>
      <point x="421.8077454696324" y="408.0903119627309"/>
      <point x="378.0053499603897" y="389.06919286759256"/>
      <point x="378.01271310476227" y="346.8814830040315" type="curve" smooth="yes"/>
      <point x="378.0205228101388" y="302.1351670450297"/>
      <point x="424.6848081085753" y="275.2010101267766"/>
      <point x="482.0330747341149" y="275.2010101267766" type="curve" smooth="yes"/>
      <point x="538.3281728114154" y="275.2010101267766"/>
      <point x="585.0208356196038" y="300.30912870201337"/>
      <point x="585.0130801922149" y="344.74445469752294" type="curve" smooth="yes"/>
      <point x="585.0048679842159" y="391.79694082092743"/>
      <point x="584.9994568346586" y="422.80054416819587"/>
      <point x="584.9928403922661" y="460.70996681211665" type="curve" smooth="yes"/>
      <point x="584.9810594200543" y="528.2099657840329"/>
      <point x="674.9810580492759" y="528.2256737469819"/>
    </contour>
  </outline>
</glyph>
<glyph name="A" format="2">
  <advance width="651"/>
  <unicode hex="0041"/>
  <outline>
    <contour>
      <point x="42.0" y="191.0" type="curve" smooth="yes"/>
      <point x="56.0" y="233.0"/>
      <point x="67.0" y="265.0"/>
      <point x="82.0" y="297.0" type="curve" smooth="yes"/>
      <point x="106.0" y="347.0"/>
      <point x="137.0" y="363.0"/>
      <point x="219.0" y="362.0" type="curve" smooth="yes"/>
      <point x="261.0" y="361.0"/>
      <point x="289.0" y="361.0"/>
      <point x="363.0" y="361.0" type="curve" smooth="yes"/>
      <point x="479.0" y="361.0"/>
      <point x="477.0" y="182.0"/>
      <point x="372.0" y="182.0" type="curve" smooth="yes"/>
      <point x="303.0" y="182.0"/>
      <point x="283.0" y="182.0"/>
      <point x="266.0" y="182.0" type="curve" smooth="yes"/>
      <point x="151.0" y="182.0"/>
      <point x="106.0" y="301.0"/>
      <point x="145.0" y="409.0" type="curve" smooth="yes"/>
      <point x="171.0" y="480.0"/>
      <point x="205.0" y="497.0"/>
      <point x="240.0" y="568.0" type="curve" smooth="yes"/>
      <point x="283.0" y="658.0"/>
      <point x="371.0" y="687.0"/>
      <point x="414.0" y="595.0" type="curve" smooth="yes"/>
      <point x="465.0" y="485.0"/>
      <point x="523.0" y="371.0"/>
      <point x="564.0" y="289.0" type="curve" smooth="yes"/>
      <point x="575.0" y="267.0"/>
      <point x="593.0" y="233.0"/>
      <point x="607.0" y="191.0" type="curve" smooth="yes"/>
      <point x="629.0" y="124.0"/>
      <point x="545" y="98"/>
      <point x="522.0" y="161.0" type="curve" smooth="yes"/>
      <point x="508.0" y="199.0"/>
      <point x="493.0" y="228.0"/>
      <point x="482.0" y="251.0" type="curve" smooth="yes"/>
      <point x="443.0" y="330.0"/>
      <point x="373.0" y="470.0"/>
      <point x="339.0" y="543.0" type="curve" smooth="yes"/>
      <point x="331.0" y="560.0"/>
      <point x="324.0" y="531.0"/>
      <point x="314.0" y="514.0" type="curve" smooth="yes"/>
      <point x="290" y="473"/>
      <point x="252.0" y="439.0"/>
      <point x="229.0" y="376.0" type="curve" smooth="yes"/>
      <point x="214.0" y="335.0"/>
      <point x="219.0" y="267.0"/>
      <point x="266.0" y="267.0" type="curve" smooth="yes"/>
      <point x="291.0" y="267.0"/>
      <point x="331.0" y="267.0"/>
      <point x="342.0" y="267.0" type="curve" smooth="yes"/>
      <point x="367.0" y="267.0"/>
      <point x="370.0" y="275.0"/>
      <point x="340.0" y="275.0" type="curve" smooth="yes"/>
      <point x="312.0" y="275.0"/>
      <point x="261.0" y="275.0"/>
      <point x="216.0" y="276.0" type="curve" smooth="yes"/>
      <point x="188.0" y="276.0"/>
      <point x="172.0" y="276.0"/>
      <point x="163.0" y="257.0" type="curve" smooth="yes"/>
      <point x="150.0" y="230.0"/>
      <point x="140.0" y="202.0"/>
      <point x="127.0" y="162.0" type="curve" smooth="yes"/>
      <point x="106.0" y="98.0"/>
      <point x="20.0" y="124.0"/>
    </contour>
  </outline>
</glyph>
<glyph name="B" format="2">
  <advance width="540"/>
  <unicode hex="0042"/>
  <outline>
    <contour>
      <point x="224.0" y="206.0" type="curve" smooth="yes"/>
      <point x="277" y="222"/>
      <point x="326" y="229"/>
      <point x="363.0" y="246.0" type="curve" smooth="yes"/>
      <point x="396" y="261"/>
      <point x="419.0" y="277.0"/>
      <point x="419.0" y="302.0" type="curve" smooth="yes"/>
      <point x="419.0" y="331.0"/>
      <point x="392" y="364"/>
      <point x="351.0" y="370.0" type="curve" smooth="yes"/>
      <point x="332.0" y="373.0"/>
      <point x="307.0" y="371.0"/>
      <point x="293.0" y="367.0" type="curve" smooth="yes"/>
      <point x="276" y="362"/>
      <point x="277" y="355"/>
      <point x="294.0" y="355.0" type="curve" smooth="yes"/>
      <point x="306.0" y="355.0"/>
      <point x="326" y="359"/>
      <point x="343.0" y="368.0" type="curve" smooth="yes"/>
      <point x="377" y="386"/>
      <point x="391.0" y="425.0"/>
      <point x="391.0" y="480.0" type="curve" smooth="yes"/>
      <point x="391.0" y="553.0"/>
      <point x="346.0" y="576.0"/>
      <point x="277.0" y="565.0" type="curve" smooth="yes"/>
      <point x="251" y="561"/>
      <point x="225.0" y="560.0"/>
      <point x="210.0" y="560.0" type="curve" smooth="yes"/>
      <point x="178.0" y="559.0"/>
      <point x="170.0" y="572.0"/>
      <point x="170.0" y="540.0" type="curve" smooth="yes"/>
      <point x="170" y="454"/>
      <point x="170.0" y="383.0"/>
      <point x="170.0" y="288.0" type="curve" smooth="yes"/>
      <point x="170.0" y="253.0"/>
      <point x="170" y="232"/>
      <point x="170.0" y="177.0" type="curve" smooth="yes"/>
      <point x="170" y="107"/>
      <point x="80" y="110"/>
      <point x="80.0" y="174.0" type="curve" smooth="yes"/>
      <point x="80" y="216"/>
      <point x="80.0" y="256.0"/>
      <point x="80.0" y="291.0" type="curve" smooth="yes"/>
      <point x="80.0" y="367.0"/>
      <point x="80.0" y="472.0"/>
      <point x="80.0" y="554.0" type="curve" smooth="yes"/>
      <point x="80.0" y="606.0"/>
      <point x="110.0" y="660.0"/>
      <point x="203.0" y="653.0" type="curve" smooth="yes"/>
      <point x="230" y="651"/>
      <point x="251" y="654"/>
      <point x="269.0" y="655.0" type="curve" smooth="yes"/>
      <point x="406.0" y="665.0"/>
      <point x="481.0" y="604.0"/>
      <point x="481.0" y="482.0" type="curve" smooth="yes"/>
      <point x="481.0" y="387.0"/>
      <point x="441" y="346"/>
      <point x="410.0" y="317.0" type="curve" smooth="yes"/>
      <point x="392" y="300"/>
      <point x="361" y="279"/>
      <point x="268.0" y="274.0" type="curve" smooth="yes"/>
      <point x="155" y="268"/>
      <point x="153" y="418"/>
      <point x="269.0" y="436.0" type="curve" smooth="yes"/>
      <point x="346" y="448"/>
      <point x="370" y="448"/>
      <point x="395.0" y="441.0" type="curve" smooth="yes"/>
      <point x="464" y="422"/>
      <point x="509" y="370"/>
      <point x="509.0" y="302.0" type="curve" smooth="yes"/>
      <point x="509.0" y="242.0"/>
      <point x="469" y="194"/>
      <point x="404.0" y="166.0" type="curve" smooth="yes"/>
      <point x="348" y="142"/>
      <point x="320" y="140"/>
      <point x="248.0" y="118.0" type="curve" smooth="yes"/>
      <point x="183" y="98"/>
      <point x="155" y="185"/>
    </contour>
  </outline>
</glyph>
<glyph name="C" format="2">
  <advance width="600"/>
  <unicode hex="0043"/>
  <outline>
    <contour>
      <point x="522.7108959135658" y="151.91996729478518" type="curve" smooth="yes"/>
      <point x="471.2683445396732" y="143.01054472615508"/>
      <point x="406.9587521055006" y="139.6282106301886"/>
      <point x="352.3608846226872" y="139.24020564003246" type="curve" smooth="yes"/>
      <point x="178.5380311351788" y="138.0049168336049"/>
      <point x="45.031141058752915" y="241.29490193402287"/>
      <point x="45.00370628630172" y="398.48457006770053" type="curve" smooth="yes"/>
      <point x="44.97627151385053" y="555.6742382013783"/>
      <point x="182.30863157927732" y="658.3662468322968"/>
      <point x="356.1270141020668" y="657.745491784661" type="curve" smooth="yes"/>
      <point x="415.8356977666265" y="657.5322550358517"/>
      <point x="484.2775107068625" y="638.8793858133328"/>
      <point x="541.6409804353076" y="596.6628604894165" type="curve" smooth="yes"/>
      <point x="596.0054557580908" y="556.6534388130351"/>
      <point x="542.6595601895823" y="484.1674717159908"/>
      <point x="488.29508486679913" y="524.1768933923722" type="curve" smooth="yes"/>
      <point x="447.6399722011612" y="554.0969383533993"/>
      <point x="398.1228325493763" y="567.5949388006386"/>
      <point x="355.8056004678557" y="567.7460657127369" type="curve" smooth="yes"/>
      <point x="236.01569349776747" y="568.1738696557276"/>
      <point x="134.98479777352856" y="506.8302224766777"/>
      <point x="135.00370491552337" y="398.50027803064944" type="curve" smooth="yes"/>
      <point x="135.02263097885003" y="290.061922338518"/>
      <point x="231.80843602256982" y="228.3857607214543"/>
      <point x="351.72130712724083" y="229.23793305926966" type="curve" smooth="yes"/>
      <point x="401.0740672870582" y="229.58866319036892"/>
      <point x="460.85171628171724" y="232.54628970395518"/>
      <point x="507.3522852052929" y="240.59980196485958" type="curve" smooth="yes"/>
      <point x="573.8621612078487" y="252.11875999606426"/>
      <point x="589.2207719161215" y="163.43892532598986"/>
    </contour>
  </outline>
</glyph>
<glyph name="D" format="2">
  <advance width="660"/>
  <unicode hex="0044"/>
  <outline>
    <contour>
      <point x="80.0" y="169.0" type="curve" smooth="yes"/>
      <point x="80.0" y="197.0"/>
      <point x="80.0" y="241.0"/>
      <point x="80.0" y="299.0" type="curve" smooth="yes"/>
      <point x="80.0" y="353.0"/>
      <point x="80.0" y="443.0"/>
      <point x="80.0" y="517.0" type="curve" smooth="yes"/>
      <point x="80.0" y="612.0"/>
      <point x="111.0" y="612.0"/>
      <point x="175.0" y="612.0" type="curve" smooth="yes"/>
      <point x="211.0" y="612.0"/>
      <point x="216.0" y="626.0"/>
      <point x="298.0" y="650.0" type="curve" smooth="yes"/>
      <point x="507.0" y="709.0"/>
      <point x="615.0" y="547.0"/>
      <point x="615.0" y="404.0" type="curve" smooth="yes"/>
      <point x="615.0" y="259.0"/>
      <point x="499.0" y="159.0"/>
      <point x="314.0" y="145.0" type="curve" smooth="yes"/>
      <point x="288.0" y="143.0"/>
      <point x="271.0" y="138.0"/>
      <point x="248.0" y="127.0" type="curve" smooth="yes"/>
      <point x="189.0" y="100.0"/>
      <point x="148.0" y="180.0"/>
      <point x="213.0" y="210.0" type="curve" smooth="yes"/>
      <point x="240.0" y="223.0"/>
      <point x="275.0" y="233.0"/>
      <point x="303.0" y="235.0" type="curve" smooth="yes"/>
      <point x="439.0" y="245.0"/>
      <point x="525.0" y="304.0"/>
      <point x="525.0" y="402.0" type="curve" smooth="yes"/>
      <point x="525.0" y="500.0"/>
      <point x="463.0" y="603.0"/>
      <point x="322.0" y="563.0" type="curve" smooth="yes"/>
      <point x="265.0" y="547.0"/>
      <point x="222.0" y="522.0"/>
      <point x="180.0" y="522.0" type="curve" smooth="yes"/>
      <point x="161.0" y="522.0"/>
      <point x="170.0" y="532.0"/>
      <point x="170.0" y="495.0" type="curve" smooth="yes"/>
      <point x="170.0" y="437.0"/>
      <point x="170.0" y="386.0"/>
      <point x="170.0" y="295.0" type="curve" smooth="yes"/>
      <point x="170.0" y="222.0"/>
      <point x="170.0" y="207.0"/>
      <point x="170.0" y="172.0" type="curve" smooth="yes"/>
      <point x="170.0" y="98.0"/>
      <point x="80.0" y="101.0"/>
    </contour>
  </outline>
</glyph>
<glyph name="E" format="2">
  <advance width="523"/>
  <unicode hex="0045"/>
  <outline>
    <contour>
      <point x="405.08440205845676" y="544.5800237368398" type="curve" smooth="yes"/>
      <point x="363.0767779281185" y="562.7674447010846"/>
      <point x="330.83391398421173" y="562.0889244992065"/>
      <point x="293.9672949502013" y="562.0889244992065" type="curve" smooth="yes"/>
      <point x="250.10291590893974" y="562.0889244992065"/>
      <point x="237.03749417984406" y="562.0889244992065"/>
      <point x="205.96729629051794" y="562.0889244992065" type="curve" smooth="yes"/>
      <point x="176.2152035401852" y="562.0889244992065"/>
      <point x="169.97491128557266" y="563.4692120868568"/>
      <point x="169.97852745953264" y="542.7500613927051" type="curve" smooth="yes"/>
      <point x="169.9840819761038" y="510.92502555436727"/>
      <point x="169.9874365688408" y="469.210224803599"/>
      <point x="169.98815438329004" y="431.0201817971584" type="curve" smooth="yes"/>
      <point x="169.98837799452588" y="419.12334310604365"/>
      <point x="180.7967018194104" y="365.71067811865476"/>
      <point x="188.9876597628059" y="365.71067811865476" type="curve" smooth="yes"/>
      <point x="242.59967859101454" y="365.71067811865476"/>
      <point x="298.10581815011466" y="365.71067811865476"/>
      <point x="338.98765747817527" y="365.71067811865476" type="curve" smooth="yes"/>
      <point x="345.3229333093753" y="365.71067811865476"/>
      <point x="345.33774291909396" y="360.56349186104046"/>
      <point x="339.00246708789393" y="360.56349186104046" type="curve" smooth="yes"/>
      <point x="285.3904482596856" y="360.56349186104046"/>
      <point x="232.51958225847693" y="360.56349186104046"/>
      <point x="190.0024693572937" y="360.56349186104046" type="curve" smooth="yes"/>
      <point x="186.3823117394652" y="360.56349186104046"/>
      <point x="170.00864756735504" y="370.1745548467372"/>
      <point x="170.00901057287024" y="368.09468643962794" type="curve" smooth="yes"/>
      <point x="170.0177322469339" y="318.12317477264156"/>
      <point x="170.02504409381888" y="276.22937786436995"/>
      <point x="170.03060792037667" y="244.3509997319821" type="curve" smooth="yes"/>
      <point x="170.03258004951115" y="233.05153206869798"/>
      <point x="189.63203958707908" y="234.8959235991434"/>
      <point x="204.04011023542984" y="234.89592359914343" type="curve" smooth="yes"/>
      <point x="240.59375943648104" y="234.89592359914343"/>
      <point x="253.6993639204657" y="234.89592359914343"/>
      <point x="288.04010895603665" y="234.89592359914343" type="curve" smooth="yes"/>
      <point x="330.4065124458722" y="234.89592359914343"/>
      <point x="376.54768339843747" y="234.41499102080758"/>
      <point x="438.97825544983704" y="210.76427655362772" type="curve" smooth="yes"/>
      <point x="502.1005900349581" y="186.8515001250314"/>
      <point x="470.2168881301629" y="102.68838734487004"/>
      <point x="407.09455354504183" y="126.60116377346635" type="curve" smooth="yes"/>
      <point x="357.62698786690635" y="145.3410732889011"/>
      <point x="321.609605090949" y="144.89592359914343"/>
      <point x="288.04010895603665" y="144.89592359914343" type="curve" smooth="yes"/>
      <point x="236.86500007456476" y="144.89592359914343"/>
      <point x="228.56921383226623" y="144.89592359914343"/>
      <point x="204.04011023542984" y="144.89592359914343" type="curve" smooth="yes"/>
      <point x="119.39908642921365" y="144.8959235991434"/>
      <point x="80.0421946750063" y="177.95593155989414"/>
      <point x="80.03060929115499" y="244.3352917690331" type="curve" smooth="yes"/>
      <point x="80.02687571924044" y="265.72708319887425"/>
      <point x="80.01486456989299" y="334.5459000190903"/>
      <point x="80.00901194364859" y="368.0789784766789" type="curve" smooth="yes"/>
      <point x="80.00075791228723" y="415.3710948141846"/>
      <point x="107.68720621985537" y="450.56349186104046"/>
      <point x="190.0024693572937" y="450.56349186104046" type="curve" smooth="yes"/>
      <point x="253.36212797244937" y="450.56349186104046"/>
      <point x="303.02644847920055" y="450.56349186104046"/>
      <point x="339.00246708789393" y="450.56349186104046" type="curve" smooth="yes"/>
      <point x="482.5254307599027" y="450.56349186104046"/>
      <point x="482.510621150184" y="275.71067811865476"/>
      <point x="338.98765747817527" y="275.71067811865476" type="curve" smooth="yes"/>
      <point x="278.06490880975633" y="275.71067811865476"/>
      <point x="224.96367837149936" y="275.71067811865476"/>
      <point x="188.9876597628059" y="275.71067811865476" type="curve" smooth="yes"/>
      <point x="128.92990837588636" y="275.71067811865476"/>
      <point x="79.98979396175189" y="343.7884756422766"/>
      <point x="79.98815439918783" y="431.0184901703539" type="curve" smooth="yes"/>
      <point x="79.98727991834004" y="477.5436906884232"/>
      <point x="79.98529564639475" y="503.9633529984735"/>
      <point x="79.97852883031096" y="542.7343534297562" type="curve" smooth="yes"/>
      <point x="79.96683624255981" y="609.7279467427963"/>
      <point x="109.76646106563315" y="652.0889244992065"/>
      <point x="205.96729629051794" y="652.0889244992065" type="curve" smooth="yes"/>
      <point x="252.2685852785162" y="652.0889244992065"/>
      <point x="264.5323706339976" y="652.0889244992065"/>
      <point x="293.9672949502013" y="652.0889244992065" type="curve" smooth="yes"/>
      <point x="342.95255443488765" y="652.0889244992065"/>
      <point x="385.02658488419297" y="651.3373321257536"/>
      <point x="440.8427791075217" y="627.1714183903805" type="curve" smooth="yes"/>
      <point x="502.7863250976772" y="600.3526356035818"/>
      <point x="467.02794804861225" y="517.7612409500412"/>
    </contour>
  </outline>
</glyph>
<glyph name="F" format="2">
  <advance width="503"/>
  <unicode hex="0046"/>
  <outline>
    <contour>
      <point x="80.03134961933219" y="240.09265108191383" type="curve" smooth="yes"/>
      <point x="80.00578609190443" y="386.5608749334255"/>
      <point x="79.99272615539391" y="480.63322624730154"/>
      <point x="79.97778865281825" y="546.97471586281" type="curve" smooth="yes"/>
      <point x="79.96404851667047" y="607.9983772778678"/>
      <point x="98.09135623648488" y="623.8046532517446"/>
      <point x="209.96235954071284" y="623.8046532517446" type="curve" smooth="yes"/>
      <point x="248.78874013523162" y="623.8046532517446"/>
      <point x="344.80822952566024" y="652.0889244992065"/>
      <point x="422.96729283311026" y="652.0889244992065" type="curve" smooth="yes"/>
      <point x="490.46729283311026" y="652.0889244992065"/>
      <point x="490.46729283311026" y="562.0889244992065"/>
      <point x="422.96729283311026" y="562.0889244992065" type="curve" smooth="yes"/>
      <point x="358.95474885603994" y="562.0889244992065"/>
      <point x="257.3692050070449" y="533.8046532517446"/>
      <point x="209.96235954071284" y="533.8046532517446" type="curve" smooth="yes"/>
      <point x="204.68296301471287" y="533.8046532517446"/>
      <point x="169.97713794937042" y="549.8747981290549"/>
      <point x="169.97778637143605" y="546.99498033389" type="curve" smooth="yes"/>
      <point x="169.9878100915341" y="502.4769279064338"/>
      <point x="170.01419399921676" y="338.3949683171056"/>
      <point x="170.03134824855385" y="240.1083590448628" type="curve" smooth="yes"/>
      <point x="170.04312922076568" y="172.60836007294654"/>
      <point x="80.043130591544" y="172.59265210999757"/>
    </contour>
    <contour>
      <point x="170.03147166196817" y="239.40125226367627" type="curve" smooth="yes"/>
      <point x="170.05878256293465" y="82.92131546122368"/>
      <point x="80.04444169547054" y="-3.2108340008326635"/>
      <point x="80.01740390351378" y="151.7043034335954" type="curve" smooth="yes"/>
      <point x="80.00853185575949" y="202.53739288794353"/>
      <point x="80.00769629635509" y="207.3247956521801"/>
      <point x="80.00345818769536" y="231.60736970767528" type="curve" smooth="yes"/>
      <point x="79.99195288324772" y="297.52790872882366"/>
      <point x="134.41147041437236" y="404.10283068918966"/>
      <point x="222.28804806119942" y="427.79845797390055" type="curve" smooth="yes"/>
      <point x="283.356105191802" y="444.2652567446017"/>
      <point x="367.2158900687263" y="437.4043055791127"/>
      <point x="411.0279061577069" y="428.4361558345338" type="curve" smooth="yes"/>
      <point x="477.1567072713416" y="414.89984676324883"/>
      <point x="459.10829517629486" y="326.7281119450693"/>
      <point x="392.9794940626602" y="340.2644210163543" type="curve" smooth="yes"/>
      <point x="360.83384615119184" y="346.8445104493779"/>
      <point x="290.5260664491932" y="352.9840991820457"/>
      <point x="245.7193572767404" y="340.9021188769875" type="curve" smooth="yes"/>
      <point x="203.650793657914" y="329.55847042584816"/>
      <point x="169.9979489598171" y="263.1807744296381"/>
      <point x="170.00345681691704" y="231.62307767062424" type="curve" smooth="yes"/>
      <point x="170.0097725119285" y="195.43681060142723"/>
      <point x="170.0114489991419" y="185.83124637926392"/>
      <point x="170.01740253273545" y="151.72001139654438" type="curve" smooth="yes"/>
      <point x="170.01832400827428" y="146.44034544003594"/>
      <point x="80.03240381611907" y="234.05254838506212"/>
      <point x="80.03147303274652" y="239.38554430072725" type="curve" smooth="yes"/>
      <point x="80.01969206053471" y="306.8855432726435"/>
      <point x="170.01969068975637" y="306.9012512355925"/>
    </contour>
  </outline>
</glyph>
<glyph name="G" format="2">
  <advance width="653"/>
  <unicode hex="0047"/>
  <outline>
    <contour>
      <point x="514.0" y="536.0" type="curve" smooth="yes"/>
      <point x="462.0" y="563.0"/>
      <point x="413.0" y="570.0"/>
      <point x="370.0" y="570.0" type="curve" smooth="yes"/>
      <point x="228.0" y="569.0"/>
      <point x="135.0" y="497.0"/>
      <point x="135.0" y="399.0" type="curve" smooth="yes"/>
      <point x="135.0" y="300.0"/>
      <point x="222.0" y="228.0"/>
      <point x="360.0" y="228.0" type="curve" smooth="yes"/>
      <point x="454.0" y="228.0"/>
      <point x="506.0" y="225.0"/>
      <point x="509.0" y="229.0" type="curve" smooth="yes"/>
      <point x="512.0" y="236.0"/>
      <point x="513.0" y="257.0"/>
      <point x="513.0" y="286.0" type="curve" smooth="yes"/>
      <point x="513.0" y="302.0"/>
      <point x="512.0" y="318.0"/>
      <point x="503.0" y="318.0" type="curve" smooth="yes"/>
      <point x="456.0" y="318.0"/>
      <point x="410.0" y="318.0"/>
      <point x="387.0" y="318.0" type="curve" smooth="yes"/>
      <point x="320.0" y="318.0"/>
      <point x="320.0" y="408.0"/>
      <point x="387.0" y="408.0" type="curve" smooth="yes"/>
      <point x="421.0" y="408.0"/>
      <point x="473.0" y="408.0"/>
      <point x="507.0" y="408.0" type="curve" smooth="yes"/>
      <point x="567.0" y="408.0"/>
      <point x="603.0" y="369.0"/>
      <point x="603.0" y="284.0" type="curve" smooth="yes"/>
      <point x="603.0" y="214.0"/>
      <point x="603.0" y="196.0"/>
      <point x="584.0" y="172.0" type="curve" smooth="yes"/>
      <point x="562.0" y="144.0"/>
      <point x="518.0" y="138.0"/>
      <point x="371.0" y="138.0" type="curve" smooth="yes"/>
      <point x="152.0" y="138.0"/>
      <point x="45.0" y="257.0"/>
      <point x="45.0" y="399.0" type="curve" smooth="yes"/>
      <point x="45.0" y="539.0"/>
      <point x="167.0" y="659.0"/>
      <point x="369.0" y="660.0" type="curve" smooth="yes"/>
      <point x="426.0" y="660.0"/>
      <point x="489.0" y="651.0"/>
      <point x="555.0" y="616.0" type="curve" smooth="yes"/>
      <point x="617.0" y="583.0"/>
      <point x="574.0" y="504.0"/>
    </contour>
  </outline>
</glyph>
<glyph name="H" format="2">
  <advance width="688"/>
  <unicode hex="0048"/>
  <outline>
    <contour>
      <point x="171.0" y="591.0" type="curve" smooth="yes"/>
      <point x="171" y="562"/>
      <point x="171.0" y="557.0"/>
      <point x="171.0" y="528.0" type="curve" smooth="yes"/>
      <point x="171.0" y="445.0"/>
      <point x="171" y="243"/>
      <point x="171.0" y="169.0" type="curve" smooth="yes"/>
      <point x="171.0" y="94.0"/>
      <point x="81.0" y="96.0"/>
      <point x="81.0" y="166.0" type="curve" smooth="yes"/>
      <point x="81.0" y="227.0"/>
      <point x="81.0" y="233.0"/>
      <point x="81.0" y="261.0" type="curve" smooth="yes"/>
      <point x="81.0" y="329.0"/>
      <point x="143.0" y="369.0"/>
      <point x="214.0" y="369.0" type="curve" smooth="yes"/>
      <point x="322.0" y="369.0"/>
      <point x="408.0" y="369.0"/>
      <point x="471.0" y="369.0" type="curve" smooth="yes"/>
      <point x="504.0" y="369.0"/>
      <point x="519.0" y="369.0"/>
      <point x="519.0" y="389.0" type="curve" smooth="yes"/>
      <point x="519.0" y="406.0"/>
      <point x="519.0" y="523.0"/>
      <point x="519.0" y="590.0" type="curve" smooth="yes"/>
      <point x="519.0" y="660.0"/>
      <point x="609.0" y="662.0"/>
      <point x="609.0" y="587.0" type="curve" smooth="yes"/>
      <point x="609" y="515"/>
      <point x="609.0" y="307.0"/>
      <point x="609.0" y="271.0" type="curve" smooth="yes"/>
      <point x="609.0" y="244.0"/>
      <point x="609.0" y="207.0"/>
      <point x="609.0" y="165.0" type="curve" smooth="yes"/>
      <point x="609.0" y="98.0"/>
      <point x="519.0" y="92.0"/>
      <point x="519.0" y="170.0" type="curve" smooth="yes"/>
      <point x="519.0" y="215.0"/>
      <point x="519.0" y="238.0"/>
      <point x="519.0" y="268.0" type="curve" smooth="yes"/>
      <point x="519.0" y="296.0"/>
      <point x="519" y="522"/>
      <point x="519.0" y="590.0" type="curve" smooth="yes"/>
      <point x="519.0" y="660.0"/>
      <point x="609.0" y="662.0"/>
      <point x="609.0" y="587.0" type="curve" smooth="yes"/>
      <point x="609" y="514"/>
      <point x="609.0" y="418.0"/>
      <point x="609.0" y="387.0" type="curve" smooth="yes"/>
      <point x="609.0" y="328.0"/>
      <point x="567.0" y="279.0"/>
      <point x="475.0" y="279.0" type="curve" smooth="yes"/>
      <point x="367.0" y="279.0"/>
      <point x="283.0" y="279.0"/>
      <point x="220.0" y="279.0" type="curve" smooth="yes"/>
      <point x="197.0" y="279.0"/>
      <point x="171.0" y="277.0"/>
      <point x="171.0" y="257.0" type="curve" smooth="yes"/>
      <point x="171.0" y="223.0"/>
      <point x="171.0" y="232.0"/>
      <point x="171.0" y="169.0" type="curve" smooth="yes"/>
      <point x="171.0" y="94.0"/>
      <point x="81.0" y="96.0"/>
      <point x="81.0" y="166.0" type="curve" smooth="yes"/>
      <point x="81.0" y="234.0"/>
      <point x="81.0" y="472.0"/>
      <point x="81.0" y="529.0" type="curve" smooth="yes"/>
      <point x="81.0" y="557.0"/>
      <point x="81" y="563"/>
      <point x="81.0" y="590.0" type="curve" smooth="yes"/>
      <point x="81.0" y="660"/>
      <point x="171.0" y="662"/>
    </contour>
  </outline>
</glyph>
<glyph name="J" format="2">
  <advance width="448"/>
  <unicode hex="004A"/>
  <outline>
    <contour>
      <point x="74.06458191022921" y="238.14945008790005" type="curve" smooth="yes"/>
      <point x="115.58099907802405" y="233.47954980591928"/>
      <point x="153.98690725808947" y="230.5892096181512"/>
      <point x="187.0062142193779" y="231.34849682563382" type="curve" smooth="yes"/>
      <point x="246.5356454174641" y="232.71739095870615"/>
      <point x="287.0291679033929" y="252.57249870206596"/>
      <point x="287.0204856672326" y="302.31804782633" type="curve" smooth="yes"/>
      <point x="287.0106976543756" y="358.39923076402147"/>
      <point x="287.002737600683" y="404.0069791231076"/>
      <point x="286.9881513526802" y="487.58002449720544" type="curve" smooth="yes"/>
      <point x="286.9794296786167" y="537.5515361641914"/>
      <point x="286.9741075359418" y="566.9878788609717"/>
      <point x="286.96297988282623" y="589.3889013323791" type="curve" smooth="yes"/>
      <point x="286.92944942708067" y="656.8888930042937"/>
      <point x="376.92943832296675" y="656.9336002786212"/>
      <point x="376.9629687787123" y="589.4336086067066" type="curve" smooth="yes"/>
      <point x="376.9721028726294" y="571.0458101223336"/>
      <point x="376.98099082721" y="528.6146675406787"/>
      <point x="376.9881499819018" y="487.59573246015447" type="curve" smooth="yes"/>
      <point x="376.99793799475884" y="431.51454952246297"/>
      <point x="377.0058980484514" y="385.9068011633768"/>
      <point x="377.02048429645424" y="302.333755789279" type="curve" smooth="yes"/>
      <point x="377.0373259081051" y="205.83842851990966"/>
      <point x="304.5491272793004" y="144.0276334352543"/>
      <point x="189.0752397306975" y="141.37228256078762" type="curve" smooth="yes"/>
      <point x="152.13659199374942" y="140.52286913362954"/>
      <point x="110.44888613423643" y="143.48925468413321"/>
      <point x="64.00453432336121" y="148.71346492225234" type="curve" smooth="yes"/>
      <point x="-3.072454550874525" y="156.25850061240348"/>
      <point x="6.98759303599347" y="245.6944857780512"/>
    </contour>
  </outline>
</glyph>
<glyph name="M" format="2">
  <advance width="808"/>
  <unicode hex="004D"/>
  <outline>
    <contour>
      <point x="80.03727516150403" y="166.5590574044274" type="curve" smooth="yes"/>
      <point x="80.03485289150326" y="213.0931360482729"/>
      <point x="80.03218105853774" y="235.3421634533613"/>
      <point x="80.0269090591244" y="265.5484952046296" type="curve" smooth="yes"/>
      <point x="80.01439654784323" y="337.23990432085367"/>
      <point x="79.99939877982109" y="424.58499929790406"/>
      <point x="79.98075244216788" y="531.4206449307715" type="curve" smooth="yes"/>
      <point x="79.95107090671526" y="701.4833168848816"/>
      <point x="165.83479757172358" y="640.9268351776776"/>
      <point x="259.603216524486" y="466.4656213928366" type="curve" smooth="yes"/>
      <point x="305.25655468580794" y="381.5251171387721"/>
      <point x="353.9056459979967" y="289.3647849230408"/>
      <point x="397.6937619079824" y="215.72322567717035" type="curve" smooth="yes"/>
      <point x="400.9308173670095" y="210.2792414724568"/>
      <point x="404.56759683685186" y="259.97082039667896"/>
      <point x="407.8194790201755" y="267.3793820166625" type="curve" smooth="yes"/>
      <point x="451.15849101079954" y="366.1159667946387"/>
      <point x="502.93160782142064" y="468.08970423889616"/>
      <point x="548.2536942904735" y="553.2725702592685" type="curve" smooth="yes"/>
      <point x="635.399093806792" y="717.0623573062354"/>
      <point x="727.9378475317072" y="604.6727798421063"/>
      <point x="727.9655627226019" y="445.87643237014817" type="curve" smooth="yes"/>
      <point x="727.9816127756352" y="353.91640192581497"/>
      <point x="728.0109674495608" y="342.7042140048424"/>
      <point x="728.0250479883052" y="262.0286692616457" type="curve" smooth="yes"/>
      <point x="728.0291587510196" y="238.47573372896304"/>
      <point x="728.0350170245335" y="200.7810795169015"/>
      <point x="728.0370197038048" y="165.14971550592014" type="curve" smooth="yes"/>
      <point x="728.0408135762636" y="97.64971561253843"/>
      <point x="638.0408137184213" y="97.64465711592673"/>
      <point x="638.0370198459625" y="165.14465700930845" type="curve" smooth="yes"/>
      <point x="638.0343367913682" y="212.88115495309683"/>
      <point x="638.0305566816722" y="230.45832706466712"/>
      <point x="638.0250493590836" y="262.0129612986969" type="curve" smooth="yes"/>
      <point x="638.0089993060503" y="353.97299174303"/>
      <point x="637.9796446321247" y="365.18517966400253"/>
      <point x="637.9655640933803" y="445.86072440719914" type="curve" smooth="yes"/>
      <point x="637.9629017783876" y="461.11466576672495"/>
      <point x="636.0787157351524" y="526.7322511676186"/>
      <point x="627.7075482924688" y="510.9986411275965" type="curve" smooth="yes"/>
      <point x="583.3980705940598" y="427.71897339223125"/>
      <point x="532.6008418654678" y="327.73696693653"/>
      <point x="490.2301318016037" y="231.20640442096445" type="curve" smooth="yes"/>
      <point x="426.7817992809396" y="86.65600109605548"/>
      <point x="383.49514989432424" y="63.50646149351428"/>
      <point x="320.33610550906195" y="169.72547577060894" type="curve" smooth="yes"/>
      <point x="275.90478941594057" y="244.44875007566813"/>
      <point x="226.65210766919813" y="337.669133196264"/>
      <point x="180.32817122211128" y="423.8573218221376" type="curve" smooth="yes"/>
      <point x="175.79982559574287" y="432.2825537204328"/>
      <point x="169.9793176649959" y="539.6491666038447"/>
      <point x="169.98075107138953" y="531.4363528937204" type="curve" smooth="yes"/>
      <point x="169.99326358267072" y="459.74494377749625"/>
      <point x="170.0082613506929" y="372.39984880044585"/>
      <point x="170.02690768834606" y="265.5642031675785" type="curve" smooth="yes"/>
      <point x="170.03076488251304" y="243.46410840204643"/>
      <point x="170.0355028152256" y="200.60983417163754"/>
      <point x="170.03727503957268" y="166.5637422355474" type="curve" smooth="yes"/>
      <point x="170.04078866291275" y="99.06374232699592"/>
      <point x="80.0407887848441" y="99.0590574958759"/>
    </contour>
  </outline>
</glyph>
<glyph name="N" format="2">
  <advance width="688"/>
  <unicode hex="004E"/>
  <outline>
    <contour>
      <point x="169.96668102830455" y="610.6323123866136" type="curve" smooth="yes"/>
      <point x="169.9719282104548" y="580.5681730798102"/>
      <point x="169.97799067560544" y="545.8328062455143"/>
      <point x="169.98581010752451" y="501.03076130269886" type="curve" smooth="yes"/>
      <point x="169.99660719387194" y="439.168013113699"/>
      <point x="170.01462872717457" y="335.9122327308169"/>
      <point x="170.02542581352196" y="274.049484541817" type="curve" smooth="yes"/>
      <point x="170.02969146395145" y="249.60910776850682"/>
      <point x="170.03558291377138" y="205.75504255913893"/>
      <point x="170.0377677591134" y="169.39253077445784" type="curve" smooth="yes"/>
      <point x="170.04182350369982" y="101.89253089630276"/>
      <point x="80.04182366615971" y="101.8871232368542"/>
      <point x="80.0377679215733" y="169.38712311500927" type="curve" smooth="yes"/>
      <point x="80.03477271122851" y="219.23658814002903"/>
      <point x="80.03127497592581" y="240.5283984472975"/>
      <point x="80.02542718430028" y="274.0337765788682" type="curve" smooth="yes"/>
      <point x="80.00933719938988" y="366.22259982658437"/>
      <point x="80.00190146321329" y="408.8262300920337"/>
      <point x="79.98581147830284" y="501.01505333974984" type="curve" smooth="yes"/>
      <point x="79.98056429615266" y="531.0791926465533"/>
      <point x="79.97450183100196" y="565.814559480849"/>
      <point x="79.9666823990829" y="610.6166044236647" type="curve" smooth="yes"/>
      <point x="79.95490142687109" y="678.116603395581"/>
      <point x="169.95490005609275" y="678.1323113585299"/>
    </contour>
    <contour>
      <point x="531.8982675524157" y="69.0103505474637" type="curve" smooth="yes"/>
      <point x="500.79484068245904" y="98.80293889217144"/>
      <point x="470.4162543073846" y="128.58467990791863"/>
      <point x="439.7317983177432" y="158.25104003529378" type="curve" smooth="yes"/>
      <point x="353.5209691807117" y="241.60143428449214"/>
      <point x="266.62908765949453" y="325.79587674508645"/>
      <point x="180.6126962952597" y="409.3469132357609" type="curve" smooth="yes"/>
      <point x="151.66604849860323" y="437.46390800830335"/>
      <point x="122.573548219696" y="465.23689714118257"/>
      <point x="93.5348272044262" y="493.5541138793472" type="curve" smooth="yes"/>
      <point x="45.20853102931672" y="540.6796812286705"/>
      <point x="108.0426208284144" y="605.114742795483"/>
      <point x="156.36891700352388" y="557.9891754461598" type="curve" smooth="yes"/>
      <point x="185.96035251566437" y="529.1329771118715"/>
      <point x="214.9180056577414" y="501.49331973013096"/>
      <point x="243.32041765512753" y="473.9049621673479" type="curve" smooth="yes"/>
      <point x="329.2426224241217" y="390.44541274711503"/>
      <point x="416.1725016317331" y="306.21414760422056"/>
      <point x="502.2889312672217" y="222.95502072536624" type="curve" smooth="yes"/>
      <point x="533.1606212611192" y="193.10763893020507"/>
      <point x="563.2387256357246" y="163.61674476631066"/>
      <point x="594.153559410478" y="134.00480135418633" type="curve" smooth="yes"/>
      <point x="642.89939751552" y="87.31333246063964"/>
      <point x="580.6441056574578" y="22.318881653917018"/>
    </contour>
    <contour>
      <point x="607.9637073375612" y="593.6767096002653" type="curve" smooth="yes"/>
      <point x="607.9712405580857" y="578.8176003673453"/>
      <point x="607.9769143084031" y="551.9617133551828"/>
      <point x="607.9819776205591" y="522.9510715194817" type="curve" smooth="yes"/>
      <point x="607.9924719848595" y="462.82279290587473"/>
      <point x="608.008028549772" y="373.6902411341359"/>
      <point x="608.0203591924133" y="303.0408625704656" type="curve" smooth="yes"/>
      <point x="608.0245973010727" y="278.7582885149704"/>
      <point x="608.0324601233378" y="233.70763520128133"/>
      <point x="608.0407224057765" y="186.36824367468532" type="curve" smooth="yes"/>
      <point x="608.0525033779884" y="118.86824470276908"/>
      <point x="518.0525047487668" y="118.85253673981988"/>
      <point x="518.0407237765548" y="186.35253571173612" type="curve" smooth="yes"/>
      <point x="518.0351794222619" y="218.11934598505002"/>
      <point x="518.0266762582032" y="266.83888753831957"/>
      <point x="518.0203605631916" y="303.02515460751647" type="curve" smooth="yes"/>
      <point x="518.0120861605701" y="350.4339896682454"/>
      <point x="517.9976178551756" y="433.33127367090225"/>
      <point x="517.9819789913374" y="522.9353635565328" type="curve" smooth="yes"/>
      <point x="517.9769212234287" y="551.9142391958505"/>
      <point x="517.9712438754624" y="578.7882429709695"/>
      <point x="517.9637189036958" y="593.631081713059" type="curve" smooth="yes"/>
      <point x="517.9294979882911" y="661.131073038458"/>
      <point x="607.9294864221565" y="661.1767009256644"/>
    </contour>
  </outline>
</glyph>
<glyph name="P" format="2">
  <advance width="555"/>
  <unicode hex="0050"/>
  <outline>
    <contour>
      <point x="208.81359624592258" y="395.2233079535135" type="curve" smooth="yes"/>
      <point x="234.5439068910102" y="405.1466821746643"/>
      <point x="263.4115632105654" y="410.22225430715565"/>
      <point x="303.16608561960027" y="413.62956001667897" type="curve" smooth="yes"/>
      <point x="360.14994616612336" y="418.513568718711"/>
      <point x="429.99393411877315" y="439.3116529263162"/>
      <point x="429.9856823516017" y="473.4348608325766" type="curve" smooth="yes"/>
      <point x="429.9773269929458" y="507.9864465265466"/>
      <point x="364.6758757732091" y="524.3036685226082"/>
      <point x="299.928971143746" y="517.1093397488103" type="curve" smooth="yes"/>
      <point x="268.22487674151114" y="513.5865508230612"/>
      <point x="237.63798445237194" y="512.5914498161483"/>
      <point x="205.9586575952093" y="512.5914498161483" type="curve" smooth="yes"/>
      <point x="200.98094087069518" y="512.5914498161483"/>
      <point x="169.97718221354836" y="550.4591494250068"/>
      <point x="169.97778722274063" y="546.9927020798244" type="curve" smooth="yes"/>
      <point x="169.99029973402185" y="475.30129296360036"/>
      <point x="170.00685515950434" y="380.4456916629541"/>
      <point x="170.02369701286852" y="283.9489794784288" type="curve" smooth="yes"/>
      <point x="170.02833875092446" y="257.3537793224101"/>
      <point x="170.03563678370824" y="210.37967872085702"/>
      <point x="170.03826037478336" y="172.22134806222164" type="curve" smooth="yes"/>
      <point x="170.04290136389616" y="104.72134822176815"/>
      <point x="80.04290157662489" y="104.71516023628442"/>
      <point x="80.03826058751207" y="172.2151600767379" type="curve" smooth="yes"/>
      <point x="80.03435087155256" y="229.07929404261887"/>
      <point x="80.0306155734215" y="244.3006932968355"/>
      <point x="80.02369838364687" y="283.93327151547976" type="curve" smooth="yes"/>
      <point x="80.01239676055418" y="348.6868023301339"/>
      <point x="79.99643493117225" y="440.14134848400806"/>
      <point x="79.97778859351898" y="546.9769941168755" type="curve" smooth="yes"/>
      <point x="79.96312518543805" y="630.992134174767"/>
      <point x="85.31538044871161" y="602.5914498161483"/>
      <point x="205.9586575952093" y="602.5914498161483" type="curve" smooth="yes"/>
      <point x="234.27629788773" y="602.5914498161483"/>
      <point x="261.6500426942054" y="603.4098769481094"/>
      <point x="289.9898222965494" y="606.5588412577247" type="curve" smooth="yes"/>
      <point x="439.0320475886593" y="623.1196139474199"/>
      <point x="519.9664463489365" y="552.9916273406975"/>
      <point x="519.9856797200814" y="473.4566248773214" type="curve" smooth="yes"/>
      <point x="520.0048842699956" y="394.04080571448077"/>
      <point x="443.47168887693897" y="335.3249974956904"/>
      <point x="310.8516850134407" y="323.958318462001" type="curve" smooth="yes"/>
      <point x="282.9143123599374" y="321.5638444856332"/>
      <point x="259.28064614724826" y="318.22549393978323"/>
      <point x="241.19874669475107" y="311.25187215295836" type="curve" smooth="yes"/>
      <point x="178.22016984433475" y="286.96300931633704"/>
      <point x="145.83501939550627" y="370.93444511689216"/>
    </contour>
  </outline>
</glyph>
<glyph name="Q" format="2">
  <advance width="732"/>
  <unicode hex="0051"/>
  <outline>
    <contour>
      <point x="530.3930227240614" y="107.69931523366422" type="curve" smooth="yes"/>
      <point x="498.1884252413134" y="143.98519597854846"/>
      <point x="458.75956881758844" y="191.08387877561074"/>
      <point x="427.0641383051638" y="227.5510739272732" type="curve" smooth="yes"/>
      <point x="421.7816098231324" y="233.62889000151623"/>
      <point x="489.61334046333735" y="202.22429146921775"/>
      <point x="494.9096659560383" y="196.158494598965" type="curve" smooth="yes"/>
      <point x="505.3236600477257" y="184.23151374115233"/>
      <point x="533.6176094282026" y="210.02197353369135"/>
      <point x="547.1116267442567" y="231.1160272241999" type="curve" smooth="yes"/>
      <point x="579.4383513930599" y="281.64965626948526"/>
      <point x="597.008254391423" y="333.0809017347895"/>
      <point x="597.0011069425816" y="385.05120638020327" type="curve" smooth="yes"/>
      <point x="596.9851077266512" y="501.3842007728904"/>
      <point x="502.57308521208165" y="569.1599923110721"/>
      <point x="367.9660612805996" y="569.1599923110721" type="curve" smooth="yes"/>
      <point x="234.5395511130742" y="569.1599923110721"/>
      <point x="134.98560055265426" y="502.2363964611394"/>
      <point x="135.00358250734655" y="399.20738481183605" type="curve" smooth="yes"/>
      <point x="135.02332128769652" y="286.1125035586271"/>
      <point x="252.84862027893809" y="218.6709463563713"/>
      <point x="390.6415289786753" y="229.1104738566675" type="curve" smooth="yes"/>
      <point x="457.9486357392" y="234.209824749412"/>
      <point x="464.74777026285926" y="144.4670157353791"/>
      <point x="397.4406635023346" y="139.3676648426346" type="curve" smooth="yes"/>
      <point x="199.68685702855043" y="124.385353195016"/>
      <point x="45.031912033660625" y="236.88330066635177"/>
      <point x="45.0035838781249" y="399.191676848887" type="curve" smooth="yes"/>
      <point x="44.97769949167543" y="547.4982874856796"/>
      <point x="175.90332889802605" y="659.1599923110721"/>
      <point x="367.9660612805996" y="659.1599923110721" type="curve" smooth="yes"/>
      <point x="557.1354500745056" y="659.1599923110721"/>
      <point x="686.978621663726" y="548.5516458226961"/>
      <point x="687.0011060914355" y="385.0635840330579" type="curve" smooth="yes"/>
      <point x="687.0104803484946" y="316.90178169110703"/>
      <point x="665.324339660784" y="248.89447180280527"/>
      <point x="622.9261310894044" y="182.61694547104128" type="curve" smooth="yes"/>
      <point x="563.3612219347438" y="89.50417094659853"/>
      <point x="473.0846653348548" y="84.31656384982509"/>
      <point x="427.115507486618" y="136.9643050410098" type="curve" smooth="yes"/>
      <point x="312.4221517934727" y="268.3207707569206"/>
      <point x="380.59805126220033" y="418.2078065134718"/>
      <point x="494.992628971559" y="286.59106169645776" type="curve" smooth="yes"/>
      <point x="527.0889708980859" y="249.66259769498885"/>
      <point x="565.903956097432" y="203.27242606599606"/>
      <point x="597.7054551491428" y="167.44072834901368" type="curve" smooth="yes"/>
      <point x="642.5115149856549" y="116.95640403020263"/>
      <point x="575.1990825605735" y="57.21499091485317"/>
    </contour>
  </outline>
</glyph>
<glyph name="S" format="2">
  <advance width="521"/>
  <unicode hex="0053"/>
  <outline>
    <contour>
      <point x="92.80391848151183" y="219.09066759300936" type="curve" smooth="yes"/>
      <point x="152.28730618087138" y="231.5513953461564"/>
      <point x="203.18739249291488" y="227.56590930765012"/>
      <point x="256.0541900206921" y="229.90229576136525" type="curve" smooth="yes"/>
      <point x="313.4511510100295" y="232.43888750535064"/>
      <point x="384.0301599278634" y="246.88333751764821"/>
      <point x="384.0230764274657" y="287.46880542141247" type="curve" smooth="yes"/>
      <point x="384.016088722983" y="327.5054031586194"/>
      <point x="299.3702375930345" y="348.6091418252356"/>
      <point x="253.5825490604576" y="360.6225071192391" type="curve" smooth="yes"/>
      <point x="145.18741544315998" y="389.06225540027407"/>
      <point x="62.999223676257905" y="424.1630160482381"/>
      <point x="62.983465610577795" y="514.4500821822943" type="curve" smooth="yes"/>
      <point x="62.9686476732969" y="599.3506093415212"/>
      <point x="141.95868424671363" y="663.0332774533823"/>
      <point x="272.79616695377814" y="657.7085590912071" type="curve" smooth="yes"/>
      <point x="322.05883594619456" y="655.7037067146066"/>
      <point x="377.9784963606403" y="650.0494865263444"/>
      <point x="436.597278602403" y="609.4276393263627" type="curve" smooth="yes"/>
      <point x="492.0776992603484" y="570.9806248308597"/>
      <point x="440.81501326634447" y="497.0067306202658"/>
      <point x="385.334592608399" y="535.4537451157688" type="curve" smooth="yes"/>
      <point x="344.12032343269806" y="564.0145524353293"/>
      <point x="303.7725301782038" y="566.3734071054713"/>
      <point x="269.1364490021536" y="567.7829984061908" type="curve" smooth="yes"/>
      <point x="209.84042805707415" y="570.1961800495361"/>
      <point x="152.97674869696576" y="552.9430164914054"/>
      <point x="152.98346423979945" y="514.4657901452432" type="curve" smooth="yes"/>
      <point x="152.98968785935423" y="478.80707658600517"/>
      <point x="233.61241891459892" y="458.9082766516368"/>
      <point x="276.4228809926948" y="447.6760494780956" type="curve" smooth="yes"/>
      <point x="385.02571099977905" y="419.1818076709466"/>
      <point x="474.00650107126927" y="382.4464552832699"/>
      <point x="474.02307505668733" y="287.4845133843615" type="curve" smooth="yes"/>
      <point x="474.03901036355956" y="196.18193001851034"/>
      <point x="389.150102228308" y="145.69646796067585"/>
      <point x="260.0277565625722" y="139.99005650030998" type="curve" smooth="yes"/>
      <point x="217.0485545612535" y="138.0906407981463"/>
      <point x="159.61510727424758" y="141.1329118736486"/>
      <point x="111.25680574652083" y="131.00269479544255" type="curve" smooth="yes"/>
      <point x="45.19082614834572" y="117.1630293466858"/>
      <point x="26.737938883336724" y="205.25100214425262"/>
    </contour>
  </outline>
</glyph>
<glyph name="T" format="2">
  <advance width="498"/>
  <unicode hex="0054"/>
  <outline>
    <contour>
      <point x="411.0" y="551.0" type="curve" smooth="yes"/>
      <point x="363.0" y="567.0"/>
      <point x="189.0" y="568.0"/>
      <point x="136.0" y="564.0" type="curve" smooth="yes"/>
      <point x="80" y="560"/>
      <point x="83.0" y="543.0"/>
      <point x="141.0" y="554.0" type="curve" smooth="yes"/>
      <point x="230.0" y="570.0"/>
      <point x="294.0" y="607.0"/>
      <point x="294.0" y="499.0" type="curve" smooth="yes"/>
      <point x="294.0" y="407.0"/>
      <point x="294.0" y="340.0"/>
      <point x="294.0" y="296.0" type="curve" smooth="yes"/>
      <point x="294.0" y="253.0"/>
      <point x="294.0" y="195.0"/>
      <point x="294.0" y="153.0" type="curve" smooth="yes"/>
      <point x="294.0" y="86.0"/>
      <point x="204.0" y="74.0"/>
      <point x="204.0" y="153.0" type="curve" smooth="yes"/>
      <point x="204.0" y="203.0"/>
      <point x="204.0" y="253.0"/>
      <point x="204.0" y="296.0" type="curve" smooth="yes"/>
      <point x="204.0" y="340.0"/>
      <point x="204.0" y="436.0"/>
      <point x="204.0" y="465.0" type="curve" smooth="yes"/>
      <point x="204.0" y="493.0"/>
      <point x="188.0" y="474.0"/>
      <point x="94.0" y="464.0" type="curve" smooth="yes"/>
      <point x="-8" y="453"/>
      <point x="-23.0" y="645.0"/>
      <point x="87.0" y="651.0" type="curve" smooth="yes"/>
      <point x="255.0" y="659.0"/>
      <point x="389.0" y="649.0"/>
      <point x="423.0" y="638.0" type="curve" smooth="yes"/>
      <point x="490.0" y="618.0"/>
      <point x="477.0" y="530.0"/>
    </contour>
  </outline>
</glyph>
<glyph name="U" format="2">
  <advance width="668"/>
  <unicode hex="0055"/>
  <outline>
    <contour>
      <point x="159.96286348093858" y="589.5133564674553" type="curve" smooth="yes"/>
      <point x="159.97090272996152" y="585.9701638381795"/>
      <point x="159.97913642625542" y="539.2681385501743"/>
      <point x="159.98346525265237" y="514.4657901452432" type="curve" smooth="yes"/>
      <point x="159.99684851112931" y="437.7853670700398"/>
      <point x="159.99920755995547" y="424.26901286042147"/>
      <point x="160.01259081843244" y="347.58858978521806" type="curve" smooth="yes"/>
      <point x="160.0253683309728" y="274.378835289743"/>
      <point x="240.52493053029787" y="228.61485381850335"/>
      <point x="338.69951753694573" y="220.60474929934068" type="curve" smooth="yes"/>
      <point x="439.82029978751467" y="212.35426351087804"/>
      <point x="508.02535025631147" y="274.4363187788509"/>
      <point x="508.0125855180893" y="347.5728818222691" type="curve" smooth="yes"/>
      <point x="507.9992022596125" y="424.2533048974725"/>
      <point x="507.9924407063741" y="462.99415144564955"/>
      <point x="507.9834599523093" y="514.4500821822943" type="curve" smooth="yes"/>
      <point x="507.9791509152255" y="539.1390461743938"/>
      <point x="507.9710909679094" y="585.7821586156173"/>
      <point x="507.9630884704681" y="589.3091534716315" type="curve" smooth="yes"/>
      <point x="507.8099362236011" y="656.8089797261432"/>
      <point x="597.8097045629501" y="657.0131827219659"/>
      <point x="597.9628568098171" y="589.5133564674542" type="curve" smooth="yes"/>
      <point x="597.9708960588398" y="585.9701638381783"/>
      <point x="597.9791297551338" y="539.2681385501743"/>
      <point x="597.983458581531" y="514.4657901452432" type="curve" smooth="yes"/>
      <point x="597.9968418400083" y="437.7853670700398"/>
      <point x="598.0036033932461" y="399.04452052186275"/>
      <point x="598.0125841473109" y="347.588589785218" type="curve" smooth="yes"/>
      <point x="598.0331145849469" y="229.95784637756967"/>
      <point x="494.0204574532179" y="117.63298272683947"/>
      <point x="331.380701151902" y="130.90282665148428" type="curve" smooth="yes"/>
      <point x="174.73961601097005" y="143.68323655419115"/>
      <point x="70.03297917010627" y="230.76408499691655"/>
      <point x="70.01259218921076" y="347.57288182226904" type="curve" smooth="yes"/>
      <point x="70.003611435146" y="399.0288125589138"/>
      <point x="69.99244737749547" y="462.9941514456496"/>
      <point x="69.98346662343072" y="514.4500821822943" type="curve" smooth="yes"/>
      <point x="69.9791575863469" y="539.1390461743938"/>
      <point x="69.97109763903089" y="585.7821586156161"/>
      <point x="69.96309514158955" y="589.3091534716303" type="curve" smooth="yes"/>
      <point x="69.8099428947209" y="656.8089797261421"/>
      <point x="159.80971123406994" y="657.013182721967"/>
    </contour>
  </outline>
</glyph>
<glyph name="V" format="2">
  <advance width="620"/>
  <unicode hex="0056"/>
  <outline>
    <contour>
      <point x="547.962972350756" y="544.4112549695428" type="curve" smooth="yes"/>
      <point x="547.209331317065" y="544.4112549695428"/>
      <point x="541.3986980165205" y="497.58773001098956"/>
      <point x="539.9073580681829" y="494.327009421567" type="curve" smooth="yes"/>
      <point x="516.1859331796953" y="442.4616123801044"/>
      <point x="462.3516951469645" y="320.35122207912065"/>
      <point x="424.9743771171077" y="200.53635634626292" type="curve" smooth="yes"/>
      <point x="353.65344402847717" y="-28.086468200175737"/>
      <point x="286.37353184612675" y="80.0823255010034"/>
      <point x="205.81825666695053" y="240.40276251576984" type="curve" smooth="yes"/>
      <point x="163.52111820780462" y="324.5821748157267"/>
      <point x="112.5775161885309" y="428.2972484234189"/>
      <point x="78.67847107630904" y="496.56582930212954" type="curve" smooth="yes"/>
      <point x="77.24779345470981" y="499.44704116512384"/>
      <point x="72.71773757438837" y="544.4112549695428"/>
      <point x="71.9629796006506" y="544.4112549695428" type="curve" smooth="yes"/>
      <point x="4.462979600650598" y="544.4112549695428"/>
      <point x="4.462979600650627" y="634.4112549695428"/>
      <point x="71.96297960065063" y="634.4112549695428" type="curve" smooth="yes"/>
      <point x="96.17199624001312" y="634.4112549695428"/>
      <point x="113.39844164219006" y="629.0081445089567"/>
      <point x="159.2877194663593" y="536.5926837125272" type="curve" smooth="yes"/>
      <point x="192.0202495517415" y="470.673323149386"/>
      <point x="242.44150456887806" y="367.97243065135797"/>
      <point x="286.23728131904596" y="280.81044091982653" type="curve" smooth="yes"/>
      <point x="306.11799569073474" y="241.24400893699834"/>
      <point x="321.4562387130741" y="170.9155684686277"/>
      <point x="339.05795500419936" y="227.33875197270922" type="curve" smooth="yes"/>
      <point x="377.9644116751176" y="352.0553482368841"/>
      <point x="433.3696469490454" y="477.77318016535196"/>
      <point x="458.06153599413864" y="531.7604357812243" type="curve" smooth="yes"/>
      <point x="502.018115332646" y="627.8687197773787"/>
      <point x="525.7497392598658" y="634.4112549695428"/>
      <point x="547.962972350756" y="634.4112549695428" type="curve" smooth="yes"/>
      <point x="615.462972350756" y="634.4112549695428"/>
      <point x="615.462972350756" y="544.4112549695428"/>
    </contour>
  </outline>
</glyph>
<glyph name="W" format="2">
  <advance width="888"/>
  <unicode hex="0057"/>
  <outline>
    <contour>
      <point x="114.48607462665163" y="625.348241319787" type="curve" smooth="yes"/>
      <point x="131.00426538374828" y="605.593503529489"/>
      <point x="157.28767776928814" y="550.0631644726188"/>
      <point x="173.49898397600606" y="511.3230523051668" type="curve" smooth="yes"/>
      <point x="202.6366882054073" y="441.69276368096695"/>
      <point x="226.66735542489135" y="383.5700503816234"/>
      <point x="259.1900632574007" y="309.8912198119843" type="curve" smooth="yes"/>
      <point x="265.4278730621077" y="295.7597233174875"/>
      <point x="272.54895036659" y="280.1629559623952"/>
      <point x="279.3939962544881" y="264.1856291731065" type="curve" smooth="yes"/>
      <point x="282.13178834939254" y="257.7952265815396"/>
      <point x="267.5276069282155" y="171.41644528379587"/>
      <point x="270.1137232694297" y="178.02040255018633" type="curve" smooth="yes"/>
      <point x="276.54903819898004" y="194.45374861170342"/>
      <point x="282.8026055168012" y="212.30882280168763"/>
      <point x="288.70389192635974" y="228.5763323213866" type="curve" smooth="yes"/>
      <point x="311.9909000805153" y="292.7693913499126"/>
      <point x="333.08979850414056" y="354.6959366833323"/>
      <point x="352.59026953013927" y="409.36763729883506" type="curve" smooth="yes"/>
      <point x="359.6278427827276" y="429.0982426474043"/>
      <point x="365.88476086368166" y="446.98910863474373"/>
      <point x="372.53617172809" y="465.81161391456527" type="curve" smooth="yes"/>
      <point x="427.8763328089163" y="622.4160539896546"/>
      <point x="457.6136255552573" y="705.4228711863852"/>
      <point x="513.4626848715216" y="545.5630388439661" type="curve" smooth="yes"/>
      <point x="518.8719507478509" y="530.0797997944283"/>
      <point x="524.6374879794544" y="512.8752941549169"/>
      <point x="530.5017518607897" y="495.9781790927919" type="curve" smooth="yes"/>
      <point x="550.5242722892801" y="438.2858858467856"/>
      <point x="574.4033216938279" y="374.8476633775839"/>
      <point x="596.4026950616241" y="313.2097621047869" type="curve" smooth="yes"/>
      <point x="602.45764803913" y="296.24497917213876"/>
      <point x="608.4034502137174" y="279.16857183418495"/>
      <point x="614.4220390254961" y="262.26873922522975" type="curve" smooth="yes"/>
      <point x="616.7584706723854" y="255.7081807671705"/>
      <point x="607.724021135434" y="173.85973510285442"/>
      <point x="610.600492148083" y="180.6276813022771" type="curve" smooth="yes"/>
      <point x="617.8893020664171" y="197.77726256632317"/>
      <point x="625.6002085426658" y="215.99299282828855"/>
      <point x="632.2110253155037" y="236.33257194478742" type="curve" smooth="yes"/>
      <point x="664.2169812330585" y="334.80567972460335"/>
      <point x="681.3245790461613" y="426.83300748799206"/>
      <point x="721.3919215267248" y="523.8562335100071" type="curve" smooth="yes"/>
      <point x="737.7681040390507" y="563.511223307294"/>
      <point x="756.8936237441693" y="605.5336905328345"/>
      <point x="773.4256314220311" y="625.3282404335106" type="curve" smooth="yes"/>
      <point x="816.6945079001845" y="677.1361001491782"/>
      <point x="885.7716541877413" y="619.4442648449738"/>
      <point x="842.5027777095879" y="567.6364051293061" type="curve" smooth="yes"/>
      <point x="833.4336491229028" y="556.7775111665849"/>
      <point x="813.5613550751781" y="511.25722349010033"/>
      <point x="804.5777090560563" y="489.50328963142647" type="curve" smooth="yes"/>
      <point x="766.4872064855064" y="397.2669891583585"/>
      <point x="751.4696299955923" y="312.0939907391165"/>
      <point x="717.803530430724" y="208.51309912266188" type="curve" smooth="yes"/>
      <point x="710.1981185140846" y="185.11343721891143"/>
      <point x="701.8152701169768" y="165.15378048096434"/>
      <point x="693.4298612157979" y="145.42405052583217" type="curve" smooth="yes"/>
      <point x="632.3551215518103" y="1.7234707626813974"/>
      <point x="579.2465237188054" y="92.77719194730723"/>
      <point x="529.6381828215901" y="232.0744065252778" type="curve" smooth="yes"/>
      <point x="523.6702703859895" y="248.83194294131818"/>
      <point x="517.7456586597667" y="265.84922569778934"/>
      <point x="511.6397558021111" y="282.95676013658357" type="curve" smooth="yes"/>
      <point x="489.82810150663545" y="344.06870962642466"/>
      <point x="465.67214455321766" y="408.27931409166837"/>
      <point x="445.47677286480166" y="466.4696558032102" type="curve" smooth="yes"/>
      <point x="439.5708227332462" y="483.4868843835418"/>
      <point x="433.86965594688706" y="500.5057693942151"/>
      <point x="428.4985624939141" y="515.8797454181527" type="curve" smooth="yes"/>
      <point x="425.88658789724235" y="523.3561438789046"/>
      <point x="459.9819045449577" y="443.1491865712777"/>
      <point x="457.3937303359655" y="435.8250377993938" type="curve" smooth="yes"/>
      <point x="450.71177277402853" y="416.9160899005197"/>
      <point x="444.4292726957346" y="398.95314785517917"/>
      <point x="437.3593792894426" y="379.1319294252764" type="curve" smooth="yes"/>
      <point x="417.52495648487934" y="323.52395852002735"/>
      <point x="396.2067453054888" y="261.00472539962675"/>
      <point x="373.30894651090654" y="197.88456243521244" type="curve" smooth="yes"/>
      <point x="366.9379656007874" y="180.32229119257062"/>
      <point x="360.8646478709742" y="162.9442091803574"/>
      <point x="353.91713410510084" y="145.20290215317678" type="curve" smooth="yes"/>
      <point x="297.46282234571044" y="1.0400675501986636"/>
      <point x="256.4318403986939" y="89.24231675894154"/>
      <point x="196.66648259364865" y="228.74330301502798" type="curve" smooth="yes"/>
      <point x="190.0772111557754" y="244.12361525695997"/>
      <point x="183.33456740070758" y="258.8673296807362"/>
      <point x="176.85461928293762" y="273.5473803680283" type="curve" smooth="yes"/>
      <point x="144.0675497804053" y="347.82511121359295"/>
      <point x="119.84965952131965" y="406.3843464911215"/>
      <point x="90.4751087110497" y="476.58062671355094" type="curve" smooth="yes"/>
      <point x="81.42587320112298" y="498.2055589808211"/>
      <point x="54.662896744501474" y="556.5892067783876"/>
      <point x="45.44235668111539" y="567.6164042430297" type="curve" smooth="yes"/>
      <point x="2.1434788735474513" y="619.3991927021818"/>
      <point x="71.18719681908368" y="677.1310297789391"/>
    </contour>
  </outline>
</glyph>
<glyph name="X" format="2">
  <advance width="617"/>
  <unicode hex="0058"/>
  <outline>
    <contour>
      <point x="118.65954305394293" y="631.1991091000085" type="curve" smooth="yes"/>
      <point x="146.64271843938036" y="620.0182794882651"/>
      <point x="176.37260442829864" y="599.929758378813"/>
      <point x="204.66898785039083" y="571.862896873171" type="curve" smooth="yes"/>
      <point x="250.798551730949" y="526.107506106857"/>
      <point x="299.29140455537345" y="454.771055013896"/>
      <point x="340.7813312193153" y="413.37935520691445" type="curve" smooth="yes"/>
      <point x="383.4658638230501" y="370.79587767402734"/>
      <point x="426.15955573003777" y="352.8218429422832"/>
      <point x="474.7431482965976" y="304.54921895105554" type="curve" smooth="yes"/>
      <point x="503.36945201744913" y="276.10614336165395"/>
      <point x="532.5662654398064" y="246.75157654490076"/>
      <point x="561.4577679526374" y="218.57792047661695" type="curve" smooth="yes"/>
      <point x="609.7840641277468" y="171.45235312729363"/>
      <point x="546.9499743286489" y="107.01729156048117"/>
      <point x="498.6236781535395" y="154.1428589098045" type="curve" smooth="yes"/>
      <point x="469.5122877026215" y="182.5309395182617"/>
      <point x="440.1523608661243" y="212.04606441264067"/>
      <point x="411.30818758665623" y="240.70561504488342" type="curve" smooth="yes"/>
      <point x="369.33128809832266" y="282.4138333603939"/>
      <point x="326.6197870005049" y="300.378728203811"/>
      <point x="277.21718780448197" y="349.6643673944813" type="curve" smooth="yes"/>
      <point x="230.84885080846297" y="395.9229279610915"/>
      <point x="182.56533057188867" y="467.02319522450307"/>
      <point x="141.28905571630557" y="507.96466369979805" type="curve" smooth="yes"/>
      <point x="123.16179430884054" y="525.9448885154777"/>
      <point x="103.19302890576031" y="540.4607250263737"/>
      <point x="85.26641518781342" y="547.6234008390771" type="curve" smooth="yes"/>
      <point x="22.58463399211479" y="572.6682467386742"/>
      <point x="55.97776185824429" y="656.2439549996055"/>
    </contour>
    <contour>
      <point x="553.3387623090853" y="578.3631480504998" type="curve" smooth="yes"/>
      <point x="529.4127594590364" y="555.0966210838309"/>
      <point x="505.3291577752587" y="531.2450509615348"/>
      <point x="481.5406911109667" y="507.837920782182" type="curve" smooth="yes"/>
      <point x="430.12804451247945" y="457.2494348247298"/>
      <point x="380.38506862774676" y="451.6462743535504"/>
      <point x="340.31852643339056" y="412.83811882176946" type="curve" smooth="yes"/>
      <point x="298.7071887010367" y="372.5336857921051"/>
      <point x="256.9063634804527" y="288.6283608419053"/>
      <point x="207.43731260871914" y="240.40461707635842" type="curve" smooth="yes"/>
      <point x="177.75727201873886" y="211.4717257606678"/>
      <point x="147.71704333655921" y="181.70937231290557"/>
      <point x="119.46325675990289" y="154.1482056859149" type="curve" smooth="yes"/>
      <point x="71.14498074895917" y="107.01441522376066"/>
      <point x="8.299926799420199" y="171.43878323835233"/>
      <point x="56.618202810363925" y="218.57257370050655" type="curve" smooth="yes"/>
      <point x="85.54323672273908" y="246.7885325486204"/>
      <point x="115.61914224570084" y="276.5852294006183"/>
      <point x="144.6140314078197" y="304.85021691958053" type="curve" smooth="yes"/>
      <point x="185.31209057181772" y="344.52376517439734"/>
      <point x="227.12305346776535" y="428.494231503591"/>
      <point x="277.7022070049847" y="477.48482439320475" type="curve" smooth="yes"/>
      <point x="330.09618546284344" y="528.2332432374889"/>
      <point x="379.10124253264127" y="533.3037875836841"/>
      <point x="418.4173440178272" y="571.9896397907871" type="curve" smooth="yes"/>
      <point x="442.3389692187294" y="595.5277939341859"/>
      <point x="466.53465668313976" y="619.489004870881"/>
      <point x="490.594587943599" y="642.8857687597786" type="curve" smooth="yes"/>
      <point x="538.9865534755581" y="689.9438995338933"/>
      <point x="601.7307278410444" y="625.4212788246145"/>
    </contour>
  </outline>
</glyph>
<glyph name="Y" format="2">
  <advance width="582"/>
  <unicode hex="0059"/>
  <outline>
    <contour>
      <point x="527.9505686101708" y="559.7439367952607" type="curve" smooth="yes"/>
      <point x="512.0261882059148" y="548.480058479731"/>
      <point x="490.64096415042854" y="520.7931224291881"/>
      <point x="474.7539780351615" y="501.4516825127355" type="curve" smooth="yes"/>
      <point x="435.1069755947643" y="453.18386695573133"/>
      <point x="406.53717012255714" y="414.6446912937783"/>
      <point x="367.89185170065673" y="363.56396155665607" type="curve" smooth="yes"/>
      <point x="352.366951420652" y="343.0434103545399"/>
      <point x="336.01766098445336" y="318.5195668390163"/>
      <point x="336.02246055601745" y="291.02004729029414" type="curve" smooth="yes"/>
      <point x="336.0257687772137" y="272.06533596833384"/>
      <point x="336.0280280023076" y="259.12092961903267"/>
      <point x="336.0319633889203" y="236.57282513893" type="curve" smooth="yes"/>
      <point x="336.0580525211819" y="87.09310740413704"/>
      <point x="246.04384911836385" y="-1.2408700284426282"/>
      <point x="246.01666149632268" y="154.53273055834163" type="curve" smooth="yes"/>
      <point x="246.01169916452798" y="182.9647975412821"/>
      <point x="246.00984977269073" y="193.5610322881368"/>
      <point x="246.00752890366283" y="206.8586323661461" type="curve" smooth="yes"/>
      <point x="245.9951803316456" y="277.6107386857506"/>
      <point x="215.7530811263204" y="321.30331935081017"/>
      <point x="164.90481197007747" y="402.10126606727397" type="curve" smooth="yes"/>
      <point x="122.72743857069773" y="469.12115140677474"/>
      <point x="98.03301659824875" y="498.5923534378129"/>
      <point x="44.184208728518556" y="569.1914585375118" type="curve" smooth="yes"/>
      <point x="3.247912362673773" y="622.8614654300745"/>
      <point x="74.80792155275726" y="677.4431939178676"/>
      <point x="115.74421791860205" y="623.7731870253049" type="curve" smooth="yes"/>
      <point x="171.90824323430354" y="550.138689198023"/>
      <point x="197.08540491302978" y="519.9393012779524"/>
      <point x="241.0761850447502" y="450.0379109636267" type="curve" smooth="yes"/>
      <point x="305.6660925200461" y="347.40448824918707"/>
      <point x="335.99184178512394" y="296.74705530437905"/>
      <point x="336.00752753288447" y="206.87434032909508" type="curve" smooth="yes"/>
      <point x="336.0109861277716" y="187.05805121977275"/>
      <point x="336.01333018302586" y="173.6276038506082"/>
      <point x="336.0166601255443" y="154.54843852129054" type="curve" smooth="yes"/>
      <point x="336.01758160108307" y="149.2687725647821"/>
      <point x="246.0328490039025" y="231.49077105609925"/>
      <point x="246.03196475969867" y="236.55711717598115" type="curve" smooth="yes"/>
      <point x="246.02610018575933" y="270.15865088309283"/>
      <point x="246.02468188847476" y="278.28489577446686"/>
      <point x="246.0224619267958" y="291.00433932734535" type="curve" smooth="yes"/>
      <point x="246.01377575523847" y="340.772436616621"/>
      <point x="268.0216034369512" y="380.72684166432305"/>
      <point x="296.1182669503863" y="417.86453735558985" type="curve" smooth="yes"/>
      <point x="335.5283428040108" y="469.9561105604221"/>
      <point x="364.77593010816344" y="509.35389430135785"/>
      <point x="405.2075124407704" y="558.5768881870101" type="curve" smooth="yes"/>
      <point x="430.7328744057886" y="589.6524648388756"/>
      <point x="450.3924024217053" y="615.123218844183"/>
      <point x="475.9778451820947" y="633.2207087675561" type="curve" smooth="yes"/>
      <point x="531.0854241613163" y="672.2002513386133"/>
      <point x="583.0581475893923" y="598.7234793663179"/>
    </contour>
  </outline>
</glyph>
<glyph name="Z" format="2">
  <advance width="595"/>
  <unicode hex="005A"/>
  <outline>
    <contour>
      <point x="95" y="637" type="curve" smooth="yes"/>
      <point x="162" y="652"/>
      <point x="267" y="652"/>
      <point x="357" y="652" type="curve" smooth="yes"/>
      <point x="569" y="652"/>
      <point x="565" y="496"/>
      <point x="450" y="414" type="curve" smooth="yes"/>
      <point x="369" y="356"/>
      <point x="292" y="281"/>
      <point x="211" y="181" type="curve" smooth="yes"/>
      <point x="205" y="174"/>
      <point x="260" y="235"/>
      <point x="275" y="235" type="curve"/>
      <point x="359" y="235"/>
      <point x="457" y="235"/>
      <point x="505" y="218" type="curve" smooth="yes"/>
      <point x="569" y="196"/>
      <point x="539" y="111"/>
      <point x="475" y="133" type="curve" smooth="yes"/>
      <point x="441" y="145"/>
      <point x="335" y="145"/>
      <point x="275" y="145" type="curve"/>
      <point x="-19" y="145"/>
      <point x="19" y="88"/>
      <point x="141" y="238" type="curve" smooth="yes"/>
      <point x="228" y="345"/>
      <point x="311" y="425"/>
      <point x="398" y="487" type="curve" smooth="yes"/>
      <point x="454" y="527"/>
      <point x="460" y="562"/>
      <point x="357" y="562" type="curve" smooth="yes"/>
      <point x="279" y="562"/>
      <point x="173" y="562"/>
      <point x="115" y="549" type="curve" smooth="yes"/>
      <point x="49" y="534"/>
      <point x="29" y="622"/>
    </contour>
  </outline>
</glyph>
<glyph name="bracketleft" format="2">
  <advance width="430"/>
  <unicode hex="005B"/>
  <outline>
    <contour>
      <point x="363" y="631" type="curve" smooth="yes"/>
      <point x="293" y="601"/>
      <point x="203" y="600"/>
      <point x="203" y="556" type="curve" smooth="yes"/>
      <point x="203" y="370"/>
      <point x="203" y="316"/>
      <point x="203" y="191" type="curve" smooth="yes"/>
      <point x="203" y="102"/>
      <point x="192" y="63"/>
      <point x="327" y="122" type="curve" smooth="yes"/>
      <point x="389" y="149"/>
      <point x="425" y="67"/>
      <point x="363" y="40" type="curve" smooth="yes"/>
      <point x="146" y="-55"/>
      <point x="113" y="48"/>
      <point x="113" y="191" type="curve" smooth="yes"/>
      <point x="113" y="377"/>
      <point x="113" y="431"/>
      <point x="113" y="556" type="curve" smooth="yes"/>
      <point x="113" y="706"/>
      <point x="92" y="613"/>
      <point x="327" y="713" type="curve" smooth="yes"/>
      <point x="390" y="740"/>
      <point x="425" y="657"/>
    </contour>
  </outline>
</glyph>
<glyph name="asciicircum" format="2">
  <advance width="560"/>
  <unicode hex="005E"/>
  <outline>
    <contour>
      <point x="75" y="401" type="curve" smooth="yes"/>
      <point x="107" y="447"/>
      <point x="142" y="494"/>
      <point x="183" y="555" type="curve" smooth="yes"/>
      <point x="257" y="668"/>
      <point x="294" y="673"/>
      <point x="375" y="554" type="curve" smooth="yes"/>
      <point x="417" y="493"/>
      <point x="454" y="434"/>
      <point x="489" y="349" type="curve" smooth="yes"/>
      <point x="514" y="286"/>
      <point x="430" y="253"/>
      <point x="405" y="315" type="curve" smooth="yes"/>
      <point x="374" y="394"/>
      <point x="339" y="447"/>
      <point x="301" y="504" type="curve" smooth="yes"/>
      <point x="274" y="543"/>
      <point x="282" y="543"/>
      <point x="257" y="505" type="curve" smooth="yes"/>
      <point x="216" y="443"/>
      <point x="181" y="395"/>
      <point x="149" y="349" type="curve" smooth="yes"/>
      <point x="110" y="294"/>
      <point x="37" y="345"/>
    </contour>
  </outline>
</glyph>
<glyph name="b" format="2">
  <advance width="584"/>
  <unicode hex="0062"/>
  <outline>
    <contour>
      <point x="66.03727371900405" y="172.21509207689772" type="curve" smooth="yes"/>
      <point x="66.03301032284914" y="232.88975260249427"/>
      <point x="66.03200416542349" y="236.34713423234547"/>
      <point x="66.01481305189547" y="334.84495976091125" type="curve" smooth="yes"/>
      <point x="65.99547647605662" y="445.63537890346623"/>
      <point x="162.09516677170728" y="530.4665581351203"/>
      <point x="304.9885223544667" y="530.4665581351203" type="curve" smooth="yes"/>
      <point x="446.7701027647295" y="530.4665581351203"/>
      <point x="545.9956966506574" y="444.3476914207894"/>
      <point x="546.0150525679062" y="333.446454161487" type="curve" smooth="yes"/>
      <point x="546.0338035313575" y="226.01134685929495"/>
      <point x="449.0162479325211" y="120.5096980077007"/>
      <point x="316.4881490315761" y="88.8517210341351" type="curve" smooth="yes"/>
      <point x="165.5440814173326" y="52.794584046154135"/>
      <point x="77.99182247950277" y="131.12242687441946"/>
      <point x="71.1788679969697" y="208.5805131506002" type="curve" smooth="yes"/>
      <point x="57.054513574766766" y="369.16362965831263"/>
      <point x="65.98964673497953" y="479.0373350098772"/>
      <point x="65.97075446298241" y="587.2820806445087" type="curve" smooth="yes"/>
      <point x="65.96754709796721" y="605.6589286109054"/>
      <point x="65.96322598980139" y="624.7576637285239"/>
      <point x="65.95816822189275" y="639.6005024706134" type="curve" smooth="yes"/>
      <point x="65.93516727713111" y="707.1004985517728"/>
      <point x="155.93516205201038" y="707.1311664781216"/>
      <point x="155.95816299677202" y="639.6311703969621" type="curve" smooth="yes"/>
      <point x="155.96322377853687" y="624.7794870057378"/>
      <point x="155.9675438159629" y="605.6855870918306"/>
      <point x="155.97075309220406" y="587.2977886074576" type="curve" smooth="yes"/>
      <point x="155.98912220601315" y="482.0505186072669"/>
      <point x="147.09951048530584" y="372.6024730575113"/>
      <point x="160.8327382252432" y="216.46616804362571" type="curve" smooth="yes"/>
      <point x="164.05939184573626" y="179.78158205963413"/>
      <point x="224.08954578406795" y="159.31196442355008"/>
      <point x="295.57750647837895" y="176.3888276119311" type="curve" smooth="yes"/>
      <point x="380.7481070771169" y="196.7341652040361"/>
      <point x="456.027104445952" y="264.3864251058713"/>
      <point x="456.0150539386845" y="333.4307461985382" type="curve" smooth="yes"/>
      <point x="456.0036573697874" y="398.72827640464516"/>
      <point x="388.46808722047695" y="440.46655813512035"/>
      <point x="304.9885223544667" y="440.46655813512035" type="curve" smooth="yes"/>
      <point x="220.64374636130205" y="440.46655813512035"/>
      <point x="156.00339800025736" y="400.2562422532547"/>
      <point x="156.01481168111712" y="334.86066772386016" type="curve" smooth="yes"/>
      <point x="156.02841684231134" y="256.9088357255461"/>
      <point x="156.0338994168457" y="220.23974457302327"/>
      <point x="156.03727349682188" y="172.22141606206182" type="curve" smooth="yes"/>
      <point x="156.04201648569492" y="104.72141622869844"/>
      <point x="66.0420167078771" y="104.71509224353434"/>
    </contour>
  </outline>
</glyph>
<glyph name="c" format="2">
  <advance width="475"/>
  <unicode hex="0063"/>
  <outline>
    <contour>
      <point x="396.08466611973137" y="139.99294500597023" type="curve" smooth="yes"/>
      <point x="364.5993323885846" y="138.55635039149684"/>
      <point x="316.0769321652197" y="137.4917059724306"/>
      <point x="278.48647887909044" y="137.11994946215955" type="curve" smooth="yes"/>
      <point x="145.15686871638408" y="135.80136598532283"/>
      <point x="39.03570597882276" y="215.1349058638697"/>
      <point x="39.01505945987519" y="333.43074619853815" type="curve" smooth="yes"/>
      <point x="38.99470307376776" y="450.0642478009003"/>
      <point x="142.7810796352458" y="529.7594513539339"/>
      <point x="274.9886453947247" y="529.7594513539339" type="curve" smooth="yes"/>
      <point x="323.71470555457023" y="529.7594513539339"/>
      <point x="383.9526010096667" y="511.8220495751924"/>
      <point x="424.9855474692373" y="472.8340309534811" type="curve" smooth="yes"/>
      <point x="473.91900769068707" y="426.3392304833662"/>
      <point x="411.9259403972005" y="361.09461685476657"/>
      <point x="362.99248017575076" y="407.5894173248815" type="curve" smooth="yes"/>
      <point x="340.0470505788156" y="429.3913329462691"/>
      <point x="302.23602778865927" y="439.7594513539338"/>
      <point x="274.9886453947247" y="439.7594513539338" type="curve" smooth="yes"/>
      <point x="197.7664450643295" y="439.7594513539338"/>
      <point x="129.0031679607448" y="401.57187175187437"/>
      <point x="129.01505808909684" y="333.44645416148705" type="curve" smooth="yes"/>
      <point x="129.0271418268428" y="264.21173645076476"/>
      <point x="199.56295822131682" y="226.34382441721738"/>
      <point x="277.59645370163355" y="227.11554855002325" type="curve" smooth="yes"/>
      <point x="314.01776785536697" y="227.47574268086325"/>
      <point x="361.47638984450066" y="228.50749363957937"/>
      <point x="391.98246601039745" y="229.899407255705" type="curve" smooth="yes"/>
      <point x="459.4123126976985" y="232.9760573377055"/>
      <point x="463.5145128070324" y="143.06959508797073"/>
    </contour>
  </outline>
</glyph>
<glyph name="e" format="2">
  <advance width="548"/>
  <unicode hex="0065"/>
  <outline>
    <contour>
      <point x="139.0" y="325.0" type="curve" smooth="yes"/>
      <point x="228.0" y="371.0"/>
      <point x="267.0" y="330.0"/>
      <point x="367.0" y="330.0" type="curve" smooth="yes"/>
      <point x="408.0" y="330.0"/>
      <point x="418.0" y="353.0"/>
      <point x="413.0" y="374.0" type="curve" smooth="yes"/>
      <point x="401.0" y="417.0"/>
      <point x="345.0" y="440.0"/>
      <point x="282.0" y="440.0" type="curve" smooth="yes"/>
      <point x="197.0" y="440.0"/>
      <point x="129.0" y="401.0"/>
      <point x="129.0" y="333.0" type="curve" smooth="yes"/>
      <point x="129.0" y="262.0"/>
      <point x="204.0" y="227.0"/>
      <point x="291.0" y="227.0" type="curve"/>
      <point x="338.0" y="227.0"/>
      <point x="392.0" y="238.0"/>
      <point x="450.0" y="238.0" type="curve" smooth="yes"/>
      <point x="518.0" y="239.0"/>
      <point x="519.0" y="149.0"/>
      <point x="452.0" y="148.0" type="curve" smooth="yes"/>
      <point x="400.0" y="148.0"/>
      <point x="344.0" y="137.0"/>
      <point x="291.0" y="137.0" type="curve"/>
      <point x="145.0" y="137.0"/>
      <point x="39.0" y="214.0"/>
      <point x="39.0" y="333.0" type="curve" smooth="yes"/>
      <point x="39.0" y="448.0"/>
      <point x="139.0" y="530.0"/>
      <point x="282.0" y="530.0" type="curve" smooth="yes"/>
      <point x="396.0" y="530.0"/>
      <point x="478.0" y="476.0"/>
      <point x="499.0" y="398.0" type="curve" smooth="yes"/>
      <point x="516.0" y="336.0"/>
      <point x="484.0" y="240.0"/>
      <point x="367.0" y="240.0" type="curve" smooth="yes"/>
      <point x="316.0" y="240.0"/>
      <point x="226.0" y="268.0"/>
      <point x="181.0" y="245.0" type="curve" smooth="yes"/>
      <point x="121.0" y="214.0"/>
      <point x="79.0" y="293.0"/>
    </contour>
  </outline>
</glyph>
<glyph name="f" format="2">
  <advance width="364"/>
  <unicode hex="0066"/>
  <outline>
    <contour>
      <point x="309.1279539349386" y="559.0994268644193" type="curve" smooth="yes"/>
      <point x="264.3408003425313" y="596.4628619148001"/>
      <point x="207.96775115180213" y="604.4835030662225"/>
      <point x="207.97358913333244" y="571.034332640167" type="curve" smooth="yes"/>
      <point x="207.9946414500376" y="450.4134424095101"/>
      <point x="208.00941668255297" y="365.75759553490843"/>
      <point x="208.0215969515038" y="295.9697947586001" type="curve" smooth="yes"/>
      <point x="208.02684413365404" y="265.9056554517963"/>
      <point x="208.03566815960684" y="205.94542518072151"/>
      <point x="208.0378881212858" y="170.09972062260945" type="curve" smooth="yes"/>
      <point x="208.04206846631982" y="102.59972075205602"/>
      <point x="118.0420686389152" y="102.59414695867733"/>
      <point x="118.03788829388118" y="170.09414682923077" type="curve" smooth="yes"/>
      <point x="118.0345800726846" y="223.51196964566446"/>
      <point x="118.02941775420118" y="251.15204185283577"/>
      <point x="118.02159832228212" y="295.95408679565105" type="curve" smooth="yes"/>
      <point x="118.01342482700971" y="342.7847653312491"/>
      <point x="117.98771753297662" y="490.07671115890076"/>
      <point x="117.97359050411076" y="571.0186246772181" type="curve" smooth="yes"/>
      <point x="117.95688356326382" y="666.7423450737656"/>
      <point x="238.611320193099" y="735.133796806751"/>
      <point x="366.7817026937458" y="628.208364448905" type="curve" smooth="yes"/>
      <point x="418.61340588211" y="584.9680528797995"/>
      <point x="360.9596571233028" y="515.8591152953139"/>
    </contour>
    <contour>
      <point x="308.9848182157177" y="405.111219075793" type="curve" smooth="yes"/>
      <point x="282.43908916451926" y="405.111219075793"/>
      <point x="260.76061116322853" y="400.9639563518285"/>
      <point x="241.16850801127273" y="391.7289096272696" type="curve" smooth="yes"/>
      <point x="190.96985577691174" y="368.06698342676737"/>
      <point x="141.6921795873703" y="367.5835194789686"/>
      <point x="91.38215717605247" y="391.9260624110606" type="curve" smooth="yes"/>
      <point x="82.07544560061467" y="396.42912194519295"/>
      <point x="67.27205614122983" y="405.111219075793"/>
      <point x="56.98482205389721" y="405.111219075793" type="curve" smooth="yes"/>
      <point x="-10.515177946102789" y="405.111219075793"/>
      <point x="-10.515177946102774" y="495.111219075793"/>
      <point x="56.984822053897226" y="495.111219075793" type="curve" smooth="yes"/>
      <point x="86.73187628615568" y="495.111219075793"/>
      <point x="103.6695858065533" y="485.96229730730414"/>
      <point x="130.5813146160918" y="472.9410366811979" type="curve" smooth="yes"/>
      <point x="156.258558200127" y="460.51708267831617"/>
      <point x="177.17455795825504" y="461.06160882365174"/>
      <point x="202.7949603996182" y="473.1381894649889" type="curve" smooth="yes"/>
      <point x="233.34734922448283" y="487.53953964960897"/>
      <point x="267.5887807754618" y="495.111219075793"/>
      <point x="308.9848182157177" y="495.111219075793" type="curve" smooth="yes"/>
      <point x="376.4848182157177" y="495.111219075793"/>
      <point x="376.4848182157177" y="405.111219075793"/>
    </contour>
  </outline>
</glyph>
<glyph name="i" format="2">
  <advance width="231"/>
  <unicode hex="0069"/>
  <anchor x="115" y="584.0" name="above"/>
  <anchor x="115" y="73.0" name="below"/>
  <outline>
    <contour>
      <point x="70.0" y="169.0" type="curve" smooth="yes"/>
      <point x="70.0" y="208.0"/>
      <point x="70.0" y="253.0"/>
      <point x="70.0" y="273.0" type="curve" smooth="yes"/>
      <point x="70.0" y="309.0"/>
      <point x="70.0" y="344.0"/>
      <point x="70.0" y="394.0" type="curve" smooth="yes"/>
      <point x="70.0" y="422.0"/>
      <point x="70.0" y="440.0"/>
      <point x="70.0" y="477.0" type="curve" smooth="yes"/>
      <point x="70.0" y="526.0"/>
      <point x="160.0" y="527.0"/>
      <point x="160.0" y="477.0" type="curve" smooth="yes"/>
      <point x="160.0" y="438.0"/>
      <point x="160.0" y="427.0"/>
      <point x="160.0" y="394.0" type="curve" smooth="yes"/>
      <point x="160.0" y="361.0"/>
      <point x="160.0" y="320.0"/>
      <point x="160.0" y="278.0" type="curve" smooth="yes"/>
      <point x="160.0" y="236.0"/>
      <point x="160.0" y="220.0"/>
      <point x="160.0" y="173.0" type="curve" smooth="yes"/>
      <point x="160.0" y="104.0"/>
      <point x="70.0" y="107.0"/>
    </contour>
    <contour>
      <point x="70.0" y="599.0" type="curve" smooth="yes"/>
      <point x="70.0" y="619.0"/>
      <point x="70.0" y="621.0"/>
      <point x="70.0" y="642.0" type="curve" smooth="yes"/>
      <point x="70.0" y="701.0"/>
      <point x="160.0" y="701.0"/>
      <point x="160.0" y="642.0" type="curve" smooth="yes"/>
      <point x="160.0" y="621.0"/>
      <point x="160.0" y="619.0"/>
      <point x="160.0" y="599.0" type="curve" smooth="yes"/>
      <point x="160.0" y="539.0"/>
      <point x="70.0" y="539.0"/>
    </contour>
  </outline>
</glyph>
<glyph name="j" format="2">
  <advance width="245"/>
  <unicode hex="006A"/>
  <outline>
    <contour>
      <point x="173.98567850147606" y="462.1541683014156" type="curve" smooth="yes"/>
      <point x="173.99283418510035" y="447.60611924936376"/>
      <point x="174.00258176657542" y="404.91655432235393"/>
      <point x="174.01135324972785" y="354.65965759708354" type="curve" smooth="yes"/>
      <point x="174.01831585681163" y="314.76685736305564"/>
      <point x="174.03603305756943" y="213.25477402818285"/>
      <point x="174.0477602069529" y="146.0631571470519" type="curve" smooth="yes"/>
      <point x="174.06531979836387" y="45.454108854233965"/>
      <point x="73.39387205813031" y="-28.241337332195005"/>
      <point x="-26.631318805420555" y="-1.3458491747090022" type="curve" smooth="yes"/>
      <point x="-91.81600206421658" y="16.18147430751266"/>
      <point x="-68.44623742125428" y="103.09438531924066"/>
      <point x="-3.2615541624582622" y="85.567061837019" type="curve" smooth="yes"/>
      <point x="38.6851719069509" y="74.28812635581502"/>
      <point x="84.05512539642976" y="103.85587571737697"/>
      <point x="84.04776157773124" y="146.04744918410304" type="curve" smooth="yes"/>
      <point x="84.03028559851316" y="246.1774348979332"/>
      <point x="84.02173040516809" y="295.1950823061682"/>
      <point x="84.01135462050617" y="354.6439496341345" type="curve" smooth="yes"/>
      <point x="84.001376071814" y="411.8168224972013"/>
      <point x="83.99382978338559" y="445.55985826594093"/>
      <point x="83.98568938839986" y="462.1099004105129" type="curve" smooth="yes"/>
      <point x="83.95248847022297" y="529.6098922453201"/>
      <point x="173.95247758329918" y="529.6541601362228"/>
    </contour>
    <contour>
      <point x="83.96680184633203" y="609.9136313168946" type="curve" smooth="yes"/>
      <point x="83.96569215971685" y="623.3361517517353"/>
      <point x="83.96396516966854" y="634.6517207113463"/>
      <point x="83.9614991994126" y="640.303308262858" type="curve" smooth="yes"/>
      <point x="83.9320467712382" y="707.8033018373353"/>
      <point x="173.93203820387455" y="707.8425717415678"/>
      <point x="173.96149063204896" y="640.3425781670904" type="curve" smooth="yes"/>
      <point x="173.96396054041767" y="634.6819651259782"/>
      <point x="173.96569007999537" y="623.3650279036527"/>
      <point x="173.96680153876127" y="609.9210719310109" type="curve" smooth="yes"/>
      <point x="173.97238199934864" y="542.421072161689"/>
      <point x="83.9723823069194" y="542.4136315475727"/>
    </contour>
  </outline>
</glyph>
<glyph name="k" format="2">
  <advance width="501"/>
  <unicode hex="006B"/>
  <outline>
    <contour>
      <point x="159.95742187400955" y="635.3883801102193" type="curve" smooth="yes"/>
      <point x="159.96458102870133" y="614.1716895513273"/>
      <point x="159.97087491997425" y="586.595796273771"/>
      <point x="159.97630600284396" y="555.477983454063" type="curve" smooth="yes"/>
      <point x="159.98932305087035" y="480.8957917121848"/>
      <point x="160.01142018640323" y="354.2885305331877"/>
      <point x="160.02443723442963" y="279.7063387913095" type="curve" smooth="yes"/>
      <point x="160.02887715778743" y="254.26745168555252"/>
      <point x="160.0352328183836" y="205.75539493132464"/>
      <point x="160.03826003885482" y="172.22231647373602" type="curve" smooth="yes"/>
      <point x="160.0443536452392" y="104.72231674878815"/>
      <point x="70.04435401197537" y="104.71419194027565"/>
      <point x="70.03826040559099" y="172.21419166522352" type="curve" smooth="yes"/>
      <point x="70.0337491948685" y="222.1857033322099"/>
      <point x="70.03105504760107" y="241.78120818443995"/>
      <point x="70.02443860520798" y="279.6906308283605" type="curve" smooth="yes"/>
      <point x="70.00504039910096" y="390.834165398037"/>
      <point x="69.99570557972929" y="444.3187409214375"/>
      <point x="69.97630737362228" y="555.462275491114" type="curve" smooth="yes"/>
      <point x="69.96999084635624" y="591.6533110270814"/>
      <point x="69.96575332907021" y="610.6823053358672"/>
      <point x="69.95742699767405" y="635.3580113831176" type="curve" smooth="yes"/>
      <point x="69.93465045234778" y="702.8580075403693"/>
      <point x="159.93464532868327" y="702.8883762674709"/>
    </contour>
    <contour>
      <point x="434.7617469925225" y="442.0123734570231" type="curve" smooth="yes"/>
      <point x="384.6385207111483" y="415.92957244824186"/>
      <point x="328.33983468388595" y="382.94193173919524"/>
      <point x="271.20802768568086" y="331.197735628318" type="curve" smooth="yes"/>
      <point x="264.7525004896159" y="325.35097385439417"/>
      <point x="240.95074873185246" y="317.3277059998994"/>
      <point x="247.21401331949122" y="316.16724541251" type="curve" smooth="yes"/>
      <point x="315.55698760020294" y="303.50462722546354"/>
      <point x="385.9010441576369" y="265.28728835695205"/>
      <point x="448.7608139060418" y="223.96247932087036" type="curve" smooth="yes"/>
      <point x="505.16394834753123" y="186.88234413806305"/>
      <point x="455.7237681037882" y="111.67816488274376"/>
      <point x="399.32063366229875" y="148.75830006555108" type="curve" smooth="yes"/>
      <point x="348.30311079692785" y="182.29786596507262"/>
      <point x="286.28556591298116" y="217.39628658311278"/>
      <point x="230.81782769171397" y="227.67337502105596" type="curve" smooth="yes"/>
      <point x="111.63832396449605" y="249.75500912174442"/>
      <point x="87.95353768806861" y="286.6507132795508"/>
      <point x="210.7914789500484" y="397.9048614761234" type="curve" smooth="yes"/>
      <point x="274.48228707437534" y="455.5895355517913"/>
      <point x="337.33891800788587" y="492.77244531653776"/>
      <point x="393.2165272660619" y="521.8496750013521" type="curve" smooth="yes"/>
      <point x="453.09450342430864" y="553.0085897961975"/>
      <point x="494.6397231507692" y="473.1712882518685"/>
    </contour>
  </outline>
</glyph>
<glyph name="l" format="2">
  <advance width="231"/>
  <unicode hex="006C"/>
  <outline>
    <contour>
      <point x="70.03702406228948" y="165.14553278780613" type="curve" smooth="yes"/>
      <point x="70.03478035097913" y="226.2092476488026"/>
      <point x="70.0301467385717" y="246.97365462592938"/>
      <point x="70.02369606855449" y="283.9332715154798" type="curve" smooth="yes"/>
      <point x="70.00414748875691" y="395.93838387251805"/>
      <point x="69.98880620575851" y="483.8374611300376"/>
      <point x="69.97568825038312" y="558.9978093970468" type="curve" smooth="yes"/>
      <point x="69.97075384266736" y="587.269883191503"/>
      <point x="69.96519921418803" y="619.0952402372959"/>
      <point x="69.95742752203573" y="635.3516826691083" type="curve" smooth="yes"/>
      <point x="69.92515790569549" y="702.8516749555661"/>
      <point x="159.92514762097252" y="702.8947011106864"/>
      <point x="159.95741723731277" y="635.3947088242286" type="curve" smooth="yes"/>
      <point x="159.9651974486741" y="619.1204463310305"/>
      <point x="159.97074706286742" y="587.3165825655574"/>
      <point x="159.97568687960478" y="559.0135173599957" type="curve" smooth="yes"/>
      <point x="159.9952354594025" y="447.0084050029575"/>
      <point x="160.0105767424007" y="359.10932774543795"/>
      <point x="160.02369469777614" y="283.9489794784287" type="curve" smooth="yes"/>
      <point x="160.0285872479258" y="255.91673187256544"/>
      <point x="160.035322244961" y="211.46298794580503"/>
      <point x="160.03702400153477" y="165.14883972742246" type="curve" smooth="yes"/>
      <point x="160.03950420624713" y="97.6488397729885"/>
      <point x="70.03950426700185" y="97.64553283337217"/>
    </contour>
  </outline>
</glyph>
<glyph name="m" format="2">
  <advance width="828"/>
  <unicode hex="006D"/>
  <outline>
    <contour>
      <point x="156.0" y="472.0" type="curve" smooth="yes"/>
      <point x="156.0" y="439.0"/>
      <point x="156.0" y="424.0"/>
      <point x="156.0" y="399.0" type="curve" smooth="yes"/>
      <point x="156.0" y="381.0"/>
      <point x="156.0" y="216.0"/>
      <point x="156.0" y="159.0" type="curve" smooth="yes"/>
      <point x="156.0" y="91.0"/>
      <point x="66.0" y="91.0"/>
      <point x="66.0" y="159.0" type="curve" smooth="yes"/>
      <point x="66.0" y="215.0"/>
      <point x="66.0" y="222.0"/>
      <point x="66.0" y="265.0" type="curve" smooth="yes"/>
      <point x="66.0" y="358.0"/>
      <point x="150.0" y="505.0"/>
      <point x="278.0" y="530.0" type="curve" smooth="yes"/>
      <point x="378.0" y="550.0"/>
      <point x="463.0" y="483.0"/>
      <point x="463.0" y="369.0" type="curve" smooth="yes"/>
      <point x="463.0" y="344.0"/>
      <point x="463.0" y="203.0"/>
      <point x="463.0" y="150.0" type="curve" smooth="yes"/>
      <point x="463.0" y="82.0"/>
      <point x="373.0" y="82.0"/>
      <point x="373.0" y="150.0" type="curve" smooth="yes"/>
      <point x="373.0" y="200.0"/>
      <point x="373.0" y="232.0"/>
      <point x="373.0" y="260.0" type="curve" smooth="yes"/>
      <point x="373.0" y="364.0"/>
      <point x="457.0" y="505.0"/>
      <point x="585.0" y="530.0" type="curve" smooth="yes"/>
      <point x="685.0" y="550.0"/>
      <point x="770.0" y="483.0"/>
      <point x="770.0" y="369.0" type="curve" smooth="yes"/>
      <point x="770.0" y="344.0"/>
      <point x="770.0" y="303.0"/>
      <point x="770.0" y="283.0" type="curve" smooth="yes"/>
      <point x="770.0" y="253.0"/>
      <point x="770.0" y="203.0"/>
      <point x="770.0" y="153.0" type="curve" smooth="yes"/>
      <point x="770.0" y="85.0"/>
      <point x="680.0" y="85.0"/>
      <point x="680.0" y="153.0" type="curve" smooth="yes"/>
      <point x="680.0" y="195.0"/>
      <point x="680.0" y="248.0"/>
      <point x="680.0" y="280.0" type="curve" smooth="yes"/>
      <point x="680.0" y="318.0"/>
      <point x="680.0" y="348.0"/>
      <point x="680.0" y="374.0" type="curve" smooth="yes"/>
      <point x="680.0" y="420.0"/>
      <point x="651.0" y="451.0"/>
      <point x="599.0" y="441.0" type="curve" smooth="yes"/>
      <point x="525.0" y="427.0"/>
      <point x="463.0" y="335.0"/>
      <point x="463.0" y="270.0" type="curve" smooth="yes"/>
      <point x="463.0" y="229.0"/>
      <point x="463.0" y="197.0"/>
      <point x="463.0" y="150.0" type="curve" smooth="yes"/>
      <point x="463.0" y="82.0"/>
      <point x="373.0" y="82.0"/>
      <point x="373.0" y="150.0" type="curve" smooth="yes"/>
      <point x="373.0" y="200.0"/>
      <point x="373.0" y="348.0"/>
      <point x="373.0" y="374.0" type="curve" smooth="yes"/>
      <point x="373.0" y="420.0"/>
      <point x="344.0" y="451.0"/>
      <point x="292.0" y="441.0" type="curve" smooth="yes"/>
      <point x="218.0" y="427.0"/>
      <point x="156.0" y="339.0"/>
      <point x="156.0" y="264.0" type="curve" smooth="yes"/>
      <point x="156.0" y="226.0"/>
      <point x="156.0" y="223.0"/>
      <point x="156.0" y="159.0" type="curve" smooth="yes"/>
      <point x="156.0" y="91.0"/>
      <point x="66.0" y="91.0"/>
      <point x="66.0" y="159.0" type="curve" smooth="yes"/>
      <point x="66.0" y="215.0"/>
      <point x="66.0" y="377.0"/>
      <point x="66.0" y="395.0" type="curve" smooth="yes"/>
      <point x="66.0" y="428.0"/>
      <point x="66.0" y="440.0"/>
      <point x="66.0" y="471.0" type="curve" smooth="yes"/>
      <point x="66.0" y="525.0"/>
      <point x="156.0" y="523.0"/>
    </contour>
    <contour>
      <point x="156.0" y="472.0" type="curve" smooth="yes"/>
      <point x="156.0" y="439.0"/>
      <point x="156.0" y="426.0"/>
      <point x="156.0" y="397.0" type="curve" smooth="yes"/>
      <point x="156.0" y="376.0"/>
      <point x="156.0" y="217.0"/>
      <point x="156.0" y="159.0" type="curve" smooth="yes"/>
      <point x="156.0" y="91.0"/>
      <point x="66.0" y="91.0"/>
      <point x="66.0" y="159.0" type="curve" smooth="yes"/>
      <point x="66.0" y="215.0"/>
      <point x="66.0" y="217.0"/>
      <point x="66.0" y="265.0" type="curve" smooth="yes"/>
      <point x="66.0" y="358.0"/>
      <point x="150.0" y="505.0"/>
      <point x="278.0" y="530.0" type="curve" smooth="yes"/>
      <point x="378.0" y="550.0"/>
      <point x="463.0" y="483.0"/>
      <point x="463.0" y="369.0" type="curve" smooth="yes"/>
      <point x="463.0" y="346.0"/>
      <point x="463.0" y="206.0"/>
      <point x="463.0" y="150.0" type="curve" smooth="yes"/>
      <point x="463.0" y="82.0"/>
      <point x="373.0" y="82.0"/>
      <point x="373.0" y="150.0" type="curve" smooth="yes"/>
      <point x="373.0" y="198.0"/>
      <point x="373.0" y="232.0"/>
      <point x="373.0" y="260.0" type="curve" smooth="yes"/>
      <point x="373.0" y="364.0"/>
      <point x="457.0" y="505.0"/>
      <point x="585.0" y="530.0" type="curve" smooth="yes"/>
      <point x="685.0" y="550.0"/>
      <point x="770.0" y="483.0"/>
      <point x="770.0" y="369.0" type="curve" smooth="yes"/>
      <point x="770.0" y="345.0"/>
      <point x="770.0" y="312.0"/>
      <point x="770.0" y="285.0" type="curve" smooth="yes"/>
      <point x="770.0" y="243.0"/>
      <point x="770.0" y="201.0"/>
      <point x="770.0" y="153.0" type="curve" smooth="yes"/>
      <point x="770.0" y="85.0"/>
      <point x="680.0" y="85.0"/>
      <point x="680.0" y="153.0" type="curve" smooth="yes"/>
      <point x="680.0" y="194.0"/>
      <point x="680.0" y="257.0"/>
      <point x="680.0" y="280.0" type="curve" smooth="yes"/>
      <point x="680.0" y="307.0"/>
      <point x="680.0" y="347.0"/>
      <point x="680.0" y="374.0" type="curve" smooth="yes"/>
      <point x="680.0" y="420.0"/>
      <point x="651.0" y="451.0"/>
      <point x="599.0" y="441.0" type="curve" smooth="yes"/>
      <point x="525.0" y="427.0"/>
      <point x="463.0" y="335.0"/>
      <point x="463.0" y="270.0" type="curve" smooth="yes"/>
      <point x="463.0" y="229.0"/>
      <point x="463.0" y="199.0"/>
      <point x="463.0" y="150.0" type="curve" smooth="yes"/>
      <point x="463.0" y="82.0"/>
      <point x="373.0" y="82.0"/>
      <point x="373.0" y="150.0" type="curve" smooth="yes"/>
      <point x="373.0" y="196.0"/>
      <point x="373.0" y="344.0"/>
      <point x="373.0" y="374.0" type="curve" smooth="yes"/>
      <point x="373.0" y="420.0"/>
      <point x="344.0" y="451.0"/>
      <point x="292.0" y="441.0" type="curve" smooth="yes"/>
      <point x="218.0" y="427.0"/>
      <point x="156.0" y="339.0"/>
      <point x="156.0" y="264.0" type="curve" smooth="yes"/>
      <point x="156.0" y="232.0"/>
      <point x="156.0" y="217.0"/>
      <point x="156.0" y="159.0" type="curve" smooth="yes"/>
      <point x="156.0" y="91.0"/>
      <point x="66.0" y="91.0"/>
      <point x="66.0" y="159.0" type="curve" smooth="yes"/>
      <point x="66.0" y="215.0"/>
      <point x="66.0" y="382.0"/>
      <point x="66.0" y="397.0" type="curve" smooth="yes"/>
      <point x="66.0" y="425.0"/>
      <point x="66.0" y="440.0"/>
      <point x="66.0" y="471.0" type="curve" smooth="yes"/>
      <point x="66.0" y="525.0"/>
      <point x="156.0" y="523.0"/>
    </contour>
  </outline>
</glyph>
<glyph name="n" format="2">
  <advance width="568"/>
  <unicode hex="006E"/>
  <outline>
    <contour>
      <point x="421.0" y="161.0" type="curve" smooth="yes"/>
      <point x="421.0" y="209.0"/>
      <point x="421.0" y="244.0"/>
      <point x="421.0" y="283.0" type="curve" smooth="yes"/>
      <point x="421.0" y="314.0"/>
      <point x="421.0" y="341.0"/>
      <point x="421.0" y="367.0" type="curve" smooth="yes"/>
      <point x="421.0" y="414.0"/>
      <point x="390.0" y="463.0"/>
      <point x="319.0" y="441.0" type="curve" smooth="yes"/>
      <point x="236.0" y="416.0"/>
      <point x="156.0" y="336.0"/>
      <point x="156.0" y="250.0" type="curve" smooth="yes"/>
      <point x="156.0" y="212.0"/>
      <point x="156.0" y="219.0"/>
      <point x="156.0" y="155.0" type="curve" smooth="yes"/>
      <point x="156.0" y="88.0"/>
      <point x="66.0" y="88.0"/>
      <point x="66.0" y="155.0" type="curve" smooth="yes"/>
      <point x="66.0" y="216.0"/>
      <point x="66.0" y="375.0"/>
      <point x="66.0" y="397.0" type="curve" smooth="yes"/>
      <point x="66.0" y="425.0"/>
      <point x="66.0" y="442.0"/>
      <point x="66.0" y="470.0" type="curve" smooth="yes"/>
      <point x="66.0" y="518.0"/>
      <point x="156.0" y="518.0"/>
      <point x="156.0" y="472.0" type="curve" smooth="yes"/>
      <point x="156.0" y="443.0"/>
      <point x="156.0" y="426.0"/>
      <point x="156.0" y="397.0" type="curve" smooth="yes"/>
      <point x="156.0" y="383.0"/>
      <point x="156.0" y="214.0"/>
      <point x="156.0" y="155.0" type="curve" smooth="yes"/>
      <point x="156.0" y="88.0"/>
      <point x="66.0" y="88.0"/>
      <point x="66.0" y="155.0" type="curve" smooth="yes"/>
      <point x="66.0" y="216.0"/>
      <point x="66.0" y="216.0"/>
      <point x="66.0" y="263.0" type="curve" smooth="yes"/>
      <point x="66.0" y="324.0"/>
      <point x="157.0" y="485.0"/>
      <point x="301.0" y="529.0" type="curve" smooth="yes"/>
      <point x="419.0" y="565.0"/>
      <point x="511.0" y="475.0"/>
      <point x="511.0" y="362.0" type="curve" smooth="yes"/>
      <point x="511.0" y="337.0"/>
      <point x="511.0" y="306.0"/>
      <point x="511.0" y="281.0" type="curve" smooth="yes"/>
      <point x="511.0" y="256.0"/>
      <point x="511.0" y="201.0"/>
      <point x="511.0" y="154.0" type="curve" smooth="yes"/>
      <point x="511.0" y="88.0"/>
      <point x="421.0" y="82.0"/>
    </contour>
  </outline>
</glyph>
<glyph name="o" format="2">
  <advance width="577"/>
  <unicode hex="006F"/>
  <outline>
    <contour>
      <point x="209.52422155680088" y="123.4242415892949" type="curve" smooth="yes"/>
      <point x="155.71285573567923" y="147.71159207710727"/>
      <point x="117.38128698697041" y="177.3941767556269"/>
      <point x="86.60689487903801" y="213.94633556015512" type="curve" smooth="yes"/>
      <point x="56.46935929769786" y="249.74207062074524"/>
      <point x="39.02297717450308" y="288.07003340084935"/>
      <point x="39.01493682323526" y="334.1378529797247" type="curve" smooth="yes"/>
      <point x="38.9957645261517" y="443.9870241835373"/>
      <point x="140.15528164750808" y="530.4665581351203"/>
      <point x="287.9885225600835" y="530.4665581351203" type="curve" smooth="yes"/>
      <point x="436.9256132232534" y="530.4665581351204"/>
      <point x="537.9957760838745" y="443.89296530727046"/>
      <point x="538.0149292230307" y="334.15356094267355" type="curve" smooth="yes"/>
      <point x="538.0228245381845" y="288.9167370867304"/>
      <point x="521.2216409373019" y="250.91802723828303"/>
      <point x="490.34523359981364" y="214.52393386667148" type="curve" smooth="yes"/>
      <point x="459.14567500152333" y="177.74894134995432"/>
      <point x="423.1501589245641" y="148.23604019850106"/>
      <point x="366.1047084158378" y="123.22677519671274" type="curve" smooth="yes"/>
      <point x="304.28475199626536" y="96.12432164943843"/>
      <point x="268.14814726656624" y="178.55093020886838"/>
      <point x="329.9681036861387" y="205.6533837561427" type="curve" smooth="yes"/>
      <point x="372.92179088856426" y="224.48468645371813"/>
      <point x="398.22379419349215" y="245.05756557100895"/>
      <point x="421.71622117817714" y="272.7481440719706" type="curve" smooth="yes"/>
      <point x="438.019744564838" y="291.9651451283071"/>
      <point x="448.01909951974176" y="310.25166675305894"/>
      <point x="448.014930593809" y="334.13785297972476" type="curve" smooth="yes"/>
      <point x="448.003613883582" y="398.9778267079177"/>
      <point x="375.98860877951324" y="440.4665581351204"/>
      <point x="287.9885225600835" y="440.46655813512035" type="curve" smooth="yes"/>
      <point x="200.81517163805512" y="440.4665581351203"/>
      <point x="129.0036300561108" y="398.9287109071318"/>
      <point x="129.01493545245694" y="334.1535609426736" type="curve" smooth="yes"/>
      <point x="129.0192043188329" y="309.69475815361807"/>
      <point x="139.4538851288182" y="290.91657035139275"/>
      <point x="155.45481693046486" y="271.91152881611396" type="curve" smooth="yes"/>
      <point x="178.4216879958156" y="244.63272131019932"/>
      <point x="206.38927289442745" y="223.58152144425955"/>
      <point x="246.54859420058463" y="205.45591736356053" type="curve" smooth="yes"/>
      <point x="308.0723510312838" y="177.68763788072263"/>
      <point x="271.04797838750005" y="95.65596210645701"/>
    </contour>
  </outline>
</glyph>
<glyph name="q" format="2">
  <advance width="584"/>
  <unicode hex="0071"/>
  <outline>
    <contour>
      <point x="429.0487494459243" y="-1.0416885799224673" type="curve" smooth="yes"/>
      <point x="429.0419605923371" y="15.224440848561352"/>
      <point x="429.0366524886276" y="39.97689874583678"/>
      <point x="429.03183857426586" y="67.55859647239626" type="curve" smooth="yes"/>
      <point x="429.02669229946486" y="97.04457925406905"/>
      <point x="429.0123719941961" y="179.12511567164748"/>
      <point x="429.00431721345154" y="232.31551598638427" type="curve" smooth="yes"/>
      <point x="428.98849250527036" y="336.81526461032956"/>
      <point x="364.0092857520579" y="429.9464401764056"/>
      <point x="271.212037339653" y="448.4020208207681" type="curve" smooth="yes"/>
      <point x="191.4057707795954" y="464.273946051557"/>
      <point x="129.00396418793218" y="397.0145820135047"/>
      <point x="129.0150589191793" y="333.4464541614871" type="curve" smooth="yes"/>
      <point x="129.02645548807664" y="268.14892395538016"/>
      <point x="195.56190223920333" y="227.1177490060914"/>
      <point x="279.0414671052136" y="227.1177490060914" type="curve" smooth="yes"/>
      <point x="361.61804924138187" y="227.1177490060914"/>
      <point x="429.02642829868995" y="268.26281976435286"/>
      <point x="429.01505434991805" y="333.43074619853815" type="curve" smooth="yes"/>
      <point x="429.00152071775045" y="410.972747061103"/>
      <point x="428.9974989547511" y="440.20072795265384"/>
      <point x="428.98667204901705" y="467.77121714823244" type="curve" smooth="yes"/>
      <point x="428.96016486318075" y="535.2712119435589"/>
      <point x="518.9601579236161" y="535.3065548580073"/>
      <point x="518.9866651094524" y="467.80656006268083" type="curve" smooth="yes"/>
      <point x="518.9939304385833" y="449.3055512584939"/>
      <point x="519.0059713177258" y="385.48054142326265"/>
      <point x="519.0150529791397" y="333.44645416148705" type="curve" smooth="yes"/>
      <point x="519.0344379447837" y="222.37878185650524"/>
      <point x="419.77923899101944" y="137.1177490060914"/>
      <point x="279.0414671052136" y="137.1177490060914" type="curve" smooth="yes"/>
      <point x="137.25988669495075" y="137.1177490060914"/>
      <point x="39.034416207206505" y="222.52950893923585"/>
      <point x="39.015060289957646" y="333.4307461985381" type="curve" smooth="yes"/>
      <point x="38.995299244729196" y="446.6531958089684"/>
      <point x="146.62295681804622" y="564.9430309774408"/>
      <point x="288.7674763991104" y="536.6732310732036" type="curve" smooth="yes"/>
      <point x="421.87903625306853" y="510.19991241763444"/>
      <point x="518.9816166766658" y="382.227172984831"/>
      <point x="519.0043161815139" y="232.32914495428835" type="curve" smooth="yes"/>
      <point x="519.0163195402413" y="153.0639885129768"/>
      <point x="519.0241681452592" y="111.51477159079876"/>
      <point x="519.0318372034875" y="67.57430443534517" type="curve" smooth="yes"/>
      <point x="519.0373665292136" y="35.89360150944872"/>
      <point x="519.0409438403041" y="17.679365406592105"/>
      <point x="519.0487416073533" y="-1.0041260625263504" type="curve" smooth="yes"/>
      <point x="519.0769134954005" y="-68.50412018359812"/>
      <point x="429.07692133397137" y="-68.54168270099423"/>
    </contour>
  </outline>
</glyph>
<glyph name="r" format="2">
  <advance width="389"/>
  <unicode hex="0072"/>
  <outline>
    <contour>
      <point x="309.9481145167797" y="400.84986028429483" type="curve" smooth="yes"/>
      <point x="197.5891164790171" y="453.29961703499805"/>
      <point x="156.00263421818306" y="403.20966916526015"/>
      <point x="156.01332923513536" y="341.9317355357257" type="curve" smooth="yes"/>
      <point x="156.01799081954877" y="315.22282412750866"/>
      <point x="156.02611055467472" y="277.18544991686366"/>
      <point x="156.02974321924023" y="256.37181501215343" type="curve" smooth="yes"/>
      <point x="156.06049990051199" y="80.14901124677999"/>
      <point x="66.04886468254851" y="16.268419986371615"/>
      <point x="66.01555242704288" y="169.38003636516993" type="curve" smooth="yes"/>
      <point x="66.0105208825147" y="192.50629737341524"/>
      <point x="66.00153313541375" y="244.0336318673822"/>
      <point x="65.99778025948495" y="271.20698854587255" type="curve" smooth="yes"/>
      <point x="65.98968884732467" y="329.79427809045717"/>
      <point x="65.98943380423536" y="372.77437453194926"/>
      <point x="65.97544905099546" y="397.7601303654422" type="curve" smooth="yes"/>
      <point x="65.93766869717616" y="465.2601197924404"/>
      <point x="155.9376545998404" y="465.31049359753285"/>
      <point x="155.97543495365971" y="397.81050417053467" type="curve" smooth="yes"/>
      <point x="155.98692002757406" y="377.2907818965024"/>
      <point x="155.9911342737695" y="319.33462917804394"/>
      <point x="155.99777940115487" y="271.2194183253203" type="curve" smooth="yes"/>
      <point x="156.00337199485304" y="230.7252623232769"/>
      <point x="156.00805221151901" y="203.8627290232584"/>
      <point x="156.0155502969218" y="169.39961752429724" type="curve" smooth="yes"/>
      <point x="156.01678020601918" y="163.74664185396944"/>
      <point x="66.03088014573305" y="249.84985203209297"/>
      <point x="66.02974459001855" y="256.3561070492044" type="curve" smooth="yes"/>
      <point x="66.02433113715146" y="287.3729073942304"/>
      <point x="66.016458733734" y="323.9931752937208"/>
      <point x="66.0133306059137" y="341.91602757277667" type="curve" smooth="yes"/>
      <point x="65.99495761910379" y="447.1854882328448"/>
      <point x="154.99537550549965" y="572.5055365312451"/>
      <point x="348.0170788032772" y="482.40201511881395" type="curve" smooth="yes"/>
      <point x="409.1811949291665" y="453.8502919039408"/>
      <point x="371.11223064266903" y="372.29813706942167"/>
    </contour>
  </outline>
</glyph>
<glyph name="s" format="2">
  <advance width="462"/>
  <unicode hex="0073"/>
  <outline>
    <contour>
      <point x="329.0" y="412.0" type="curve" smooth="yes"/>
      <point x="295.0" y="435.0"/>
      <point x="247.0" y="440.0"/>
      <point x="222.0" y="440.0" type="curve" smooth="yes"/>
      <point x="187.0" y="440.0"/>
      <point x="141.0" y="428.0"/>
      <point x="141.0" y="417.0" type="curve" smooth="yes"/>
      <point x="141.0" y="407.0"/>
      <point x="230.0" y="385.0"/>
      <point x="261.0" y="374.0" type="curve" smooth="yes"/>
      <point x="340.0" y="347.0"/>
      <point x="421.0" y="312.0"/>
      <point x="421.0" y="237.0" type="curve" smooth="yes"/>
      <point x="421.0" y="169.0"/>
      <point x="357.0" y="133.0"/>
      <point x="247.0" y="133.0" type="curve" smooth="yes"/>
      <point x="190.0" y="133.0"/>
      <point x="146.0" y="133.0"/>
      <point x="87.0" y="139.0" type="curve" smooth="yes"/>
      <point x="26.0" y="145.0"/>
      <point x="32.0" y="235.0"/>
      <point x="98.0" y="228.0" type="curve" smooth="yes"/>
      <point x="145.0" y="223.0"/>
      <point x="209.0" y="220.0"/>
      <point x="235.0" y="221.0" type="curve" smooth="yes"/>
      <point x="264.0" y="222.0"/>
      <point x="331.0" y="229.0"/>
      <point x="331.0" y="240.0" type="curve" smooth="yes"/>
      <point x="331.0" y="253.0"/>
      <point x="253.0" y="281.0"/>
      <point x="210.0" y="296.0" type="curve" smooth="yes"/>
      <point x="117.0" y="328.0"/>
      <point x="51.0" y="341.0"/>
      <point x="51.0" y="412.0" type="curve" smooth="yes"/>
      <point x="51.0" y="483.0"/>
      <point x="119.0" y="529.0"/>
      <point x="228.0" y="530.0" type="curve" smooth="yes"/>
      <point x="276.0" y="530.0"/>
      <point x="330.0" y="521.0"/>
      <point x="379.0" y="488.0" type="curve" smooth="yes"/>
      <point x="438.0" y="448.0"/>
      <point x="386.0" y="374.0"/>
    </contour>
  </outline>
</glyph>
<glyph name="t" format="2">
  <advance width="336"/>
  <unicode hex="0074"/>
  <outline>
    <contour>
      <point x="118.03702413610225" y="165.14539499865563" type="curve" smooth="yes"/>
      <point x="118.03528723384244" y="208.77984620542506"/>
      <point x="118.03345059131401" y="228.044365401933"/>
      <point x="118.02530051147959" y="274.7408833600547" type="curve" smooth="yes"/>
      <point x="118.00890977918779" y="368.6528621824945"/>
      <point x="118.00063219589654" y="416.079921137945"/>
      <point x="117.98852331401154" y="485.45870415364584" type="curve" smooth="yes"/>
      <point x="117.98090766066666" y="529.0931838649647"/>
      <point x="117.97851200149745" y="541.5482389769141"/>
      <point x="117.97149365429722" y="564.6488458829068" type="curve" smooth="yes"/>
      <point x="117.95098603663683" y="632.1488427676298"/>
      <point x="207.95098188293423" y="632.1761862578436"/>
      <point x="207.9714895005946" y="564.6761893731206" type="curve" smooth="yes"/>
      <point x="207.97623214599952" y="549.065963194588"/>
      <point x="207.98337566843205" y="514.9603948982676"/>
      <point x="207.9885219432332" y="485.47441211659486" type="curve" smooth="yes"/>
      <point x="208.0065667861234" y="382.0850776331748"/>
      <point x="208.0143002396557" y="337.77565256226524"/>
      <point x="208.02529914070124" y="274.7565913230036" type="curve" smooth="yes"/>
      <point x="208.03282859649778" y="231.61598718659002"/>
      <point x="208.03541942667925" y="205.4606895784676"/>
      <point x="208.03702406479985" y="165.14897751657296" type="curve" smooth="yes"/>
      <point x="208.0397109532378" y="97.64897757004977"/>
      <point x="118.0397110245402" y="97.64539505213244"/>
    </contour>
    <contour>
      <point x="278.9842013923401" y="401.5756851698602" type="curve" smooth="yes"/>
      <point x="265.7093374307816" y="401.5756851698602"/>
      <point x="252.80461967110298" y="396.8563821132315"/>
      <point x="240.17073246070095" y="391.27337055340195" type="curve" smooth="yes"/>
      <point x="191.02310535211726" y="369.5546575622416"/>
      <point x="140.1023707730546" y="367.6779846233698"/>
      <point x="90.93332255792866" y="392.1463166903859" type="curve" smooth="yes"/>
      <point x="80.116781580482" y="397.529026465338"/>
      <point x="70.33876085250995" y="401.5756851698602"/>
      <point x="56.98420477359341" y="401.5756851698602" type="curve" smooth="yes"/>
      <point x="-10.515795226406588" y="401.5756851698602"/>
      <point x="-10.515795226406574" y="491.5756851698602"/>
      <point x="56.984204773593426" y="491.5756851698602" type="curve" smooth="yes"/>
      <point x="85.44286774386322" y="491.5756851698602"/>
      <point x="107.98001577732849" y="484.19137883704576"/>
      <point x="131.03014880775123" y="472.7207824018726" type="curve" smooth="yes"/>
      <point x="155.77648079442395" y="460.40609479918965"/>
      <point x="179.05718458393622" y="462.6628990533842"/>
      <point x="203.79273552372558" y="473.59372853885657" type="curve" smooth="yes"/>
      <point x="228.95752032308684" y="484.7142397556877"/>
      <point x="252.54268824044428" y="491.5756851698602"/>
      <point x="278.9842013923401" y="491.5756851698602" type="curve" smooth="yes"/>
      <point x="346.4842013923401" y="491.5756851698602"/>
      <point x="346.4842013923401" y="401.5756851698602"/>
    </contour>
  </outline>
</glyph>
<glyph name="u" format="2">
  <advance width="568"/>
  <unicode hex="0075"/>
  <outline>
    <contour>
      <point x="146.98667178397025" y="467.80339850290164" type="curve" smooth="yes"/>
      <point x="146.99767068501583" y="433.6921635201821"/>
      <point x="147.01164225584438" y="353.0202242438291"/>
      <point x="147.02011847316385" y="304.45507613283866" type="curve" smooth="yes"/>
      <point x="147.0296618133054" y="249.77576459873956"/>
      <point x="191.1630043627" y="227.1177490060914"/>
      <point x="258.0414673032149" y="227.1177490060914" type="curve" smooth="yes"/>
      <point x="337.9162484548975" y="227.1177490060914"/>
      <point x="413.0267596737108" y="266.36487887305793"/>
      <point x="413.0180163937087" y="316.460183450061" type="curve" smooth="yes"/>
      <point x="413.01215181976943" y="350.0617171571726"/>
      <point x="413.00346227423836" y="399.84914589188463"/>
      <point x="412.9996277949747" y="421.8190938468566" type="curve" smooth="yes"/>
      <point x="412.99854808626264" y="428.00536910902804"/>
      <point x="502.9837371057656" y="343.1682633295912"/>
      <point x="502.98481681447765" y="336.98198806741976" type="curve" smooth="yes"/>
      <point x="502.99308736746923" y="289.5952097625188"/>
      <point x="503.00450062179954" y="224.20207906606151"/>
      <point x="503.0119677656286" y="181.41849620637942" type="curve" smooth="yes"/>
      <point x="503.01590315224126" y="158.8703917262765"/>
      <point x="503.02277420449883" y="116.92238118700186"/>
      <point x="503.02529688822466" y="90.90533755611406" type="curve" smooth="yes"/>
      <point x="503.0318418728556" y="23.405337873423875"/>
      <point x="413.03184229593535" y="23.396611227249352"/>
      <point x="413.0252973113044" y="90.89661090993954" type="curve" smooth="yes"/>
      <point x="413.0215379690357" y="129.667611341222"/>
      <point x="413.0178337103462" y="147.80125453631877"/>
      <point x="413.01196913640695" y="181.4027882434304" type="curve" smooth="yes"/>
      <point x="413.00084148329137" y="245.15954450820607"/>
      <point x="412.9903680894532" y="305.16767122227463"/>
      <point x="412.984818185256" y="336.96628010447097" type="curve" smooth="yes"/>
      <point x="412.95593850784746" y="502.4346438650837"/>
      <point x="502.97074674678777" y="587.3031655704182"/>
      <point x="502.9996264241963" y="421.8348018098055" type="curve" smooth="yes"/>
      <point x="503.00534062444484" y="389.0948458900558"/>
      <point x="503.01407963631766" y="339.02399589311256"/>
      <point x="503.01801502293034" y="316.4758914130099" type="curve" smooth="yes"/>
      <point x="503.03420487215567" y="223.71488778567084"/>
      <point x="405.9448472049206" y="137.1177490060914"/>
      <point x="258.0414673032149" y="137.1177490060914" type="curve" smooth="yes"/>
      <point x="133.82974132798716" y="137.1177490060914"/>
      <point x="57.037844455101386" y="202.8848263612865"/>
      <point x="57.0201198439422" y="304.43936816988963" type="curve" smooth="yes"/>
      <point x="57.007488453919045" y="376.8119023082837"/>
      <point x="57.00306719486503" y="416.94128925366357"/>
      <point x="56.98667646257312" y="467.7743787080116" type="curve" smooth="yes"/>
      <point x="56.9649116164057" y="535.2743751990595"/>
      <point x="146.96490693780282" y="535.3033949939495"/>
    </contour>
  </outline>
</glyph>
<glyph name="v" format="2">
  <advance width="489"/>
  <unicode hex="0076"/>
  <outline>
    <contour>
      <point x="74.99780573841117" y="504.34955007516834" type="curve" smooth="yes"/>
      <point x="102.42825859591997" y="497.4262815012232"/>
      <point x="117.1426987381293" y="478.24180093652444"/>
      <point x="144.2913611067575" y="429.6245928253789" type="curve" smooth="yes"/>
      <point x="175.74493212936628" y="373.2982520472813"/>
      <point x="203.3422918595124" y="318.3682726007439"/>
      <point x="235.73348864580058" y="263.7670268163482" type="curve" smooth="yes"/>
      <point x="239.1446014630082" y="258.01697656166"/>
      <point x="251.6128327309025" y="221.7777463465311"/>
      <point x="254.6993625801218" y="227.32669022537812" type="curve" smooth="yes"/>
      <point x="284.0108283206583" y="280.02265830167124"/>
      <point x="313.4952544089441" y="370.5860228196975"/>
      <point x="345.5002481991801" y="429.2394875480351" type="curve" smooth="yes"/>
      <point x="371.94235802163195" y="477.69821764431026"/>
      <point x="387.7943846238798" y="497.4819624079506"/>
      <point x="414.9611989103289" y="504.3465525045425" type="curve" smooth="yes"/>
      <point x="480.4042964767559" y="520.8829058181095"/>
      <point x="502.4527675615119" y="433.62544239620684"/>
      <point x="437.0096699950849" y="417.0890890826398" type="curve" smooth="yes"/>
      <point x="435.9543956990771" y="416.8224392868565"/>
      <point x="425.5310672777958" y="388.01247947773356"/>
      <point x="424.50394357703226" y="386.13013686116517" type="curve" smooth="yes"/>
      <point x="395.83753908354146" y="333.59508699153605"/>
      <point x="366.0759228747457" y="242.41097937485668"/>
      <point x="333.3507417582369" y="183.57785534511686" type="curve" smooth="yes"/>
      <point x="273.0081077570391" y="75.09424885767315"/>
      <point x="225.01729359346325" y="105.43289718117255"/>
      <point x="158.32895998877925" y="217.8481968728015" type="curve" smooth="yes"/>
      <point x="125.13164997334468" y="273.808292928926"/>
      <point x="96.40260094836187" y="330.78650310814714"/>
      <point x="65.71283919874247" y="385.74503158382134" type="curve" smooth="yes"/>
      <point x="64.6672080493708" y="387.6175241032041"/>
      <point x="54.0295585085453" y="416.81944171623064"/>
      <point x="52.97307419415317" y="417.086091512014" type="curve" smooth="yes"/>
      <point x="-12.474519728212627" y="433.6046401702075"/>
      <point x="9.550211816045376" y="520.8680987333619"/>
    </contour>
  </outline>
</glyph>
<glyph name="w" format="2">
  <advance width="725"/>
  <unicode hex="0077"/>
  <outline>
    <contour>
      <point x="110.15365576803933" y="502.22417579381926" type="curve" smooth="yes"/>
      <point x="125.29736764801976" y="472.2515128021282"/>
      <point x="139.86393019272796" y="441.49887442248007"/>
      <point x="154.38122082959018" y="411.9966790018957" type="curve" smooth="yes"/>
      <point x="171.73195825429403" y="376.7363223004128"/>
      <point x="188.50484958474695" y="340.04204575003735"/>
      <point x="208.26833503508612" y="300.5406079559348" type="curve" smooth="yes"/>
      <point x="217.38298996729938" y="282.3230736184703"/>
      <point x="220.7641761207695" y="275.74257593020815"/>
      <point x="228.15831955166945" y="261.1746534384923" type="curve" smooth="yes"/>
      <point x="231.14413686624502" y="255.2920037956161"/>
      <point x="212.54036378823474" y="169.82891849861014"/>
      <point x="215.13432698953648" y="175.46788587669076" type="curve" smooth="yes"/>
      <point x="221.89009635814529" y="190.154124703943"/>
      <point x="225.14666596867733" y="196.5714531966885"/>
      <point x="231.90293982786034" y="211.74046968751648" type="curve" smooth="yes"/>
      <point x="247.78765437864564" y="247.40443210157017"/>
      <point x="262.6185320393051" y="281.73809237765335"/>
      <point x="277.4232446001622" y="317.4412255380898" type="curve" smooth="yes"/>
      <point x="283.877359348201" y="333.00600718006615"/>
      <point x="284.2828699320971" y="337.44191827239365"/>
      <point x="295.6167505685926" y="369.10868866777366" type="curve" smooth="yes"/>
      <point x="347.13308745370836" y="513.044915285424"/>
      <point x="369.22032449530457" y="549.7019327920001"/>
      <point x="424.74867248182323" y="445.0382637001763" type="curve" smooth="yes"/>
      <point x="435.7252862428555" y="424.3487832439531"/>
      <point x="439.3909662125185" y="413.9084091141981"/>
      <point x="446.60944580560084" y="398.7975434635216" type="curve" smooth="yes"/>
      <point x="465.3653539152272" y="359.5347036997847"/>
      <point x="478.8381432228119" y="325.17760597835627"/>
      <point x="493.41743784238867" y="290.9840814484815" type="curve" smooth="yes"/>
      <point x="500.1769124854752" y="275.13075877077875"/>
      <point x="504.0337376772941" y="270.6651589908933"/>
      <point x="509.72840895410553" y="258.596498604189" type="curve" smooth="yes"/>
      <point x="512.1588569370961" y="253.4456742864267"/>
      <point x="494.00189768029145" y="168.43700761586845"/>
      <point x="496.7824514759685" y="173.98784905026878" type="curve" smooth="yes"/>
      <point x="504.7515948490905" y="189.89671270936282"/>
      <point x="507.4044426762157" y="195.87872240107234"/>
      <point x="517.5688326107194" y="216.70457982596193" type="curve" smooth="yes"/>
      <point x="535.6481566583674" y="253.7473760371332"/>
      <point x="546.0361061196911" y="283.8968486138125"/>
      <point x="568.065552490375" y="354.00017706703693" type="curve" smooth="yes"/>
      <point x="579.7161883758799" y="391.0754780268184"/>
      <point x="599.3117276562643" y="434.0017535345665"/>
      <point x="614.276193044544" y="465.7579362937128" type="curve" smooth="yes"/>
      <point x="643.0495697303229" y="526.8180934675875"/>
      <point x="724.4631126288225" y="488.45359121988224"/>
      <point x="695.6897359430436" y="427.3934340460076" type="curve" smooth="yes"/>
      <point x="682.6822434009298" y="399.79015523264457"/>
      <point x="664.0530757875766" y="359.24595006615095"/>
      <point x="653.9260478277083" y="327.0191589167192" type="curve" smooth="yes"/>
      <point x="629.7233609415173" y="250.00002372451084"/>
      <point x="618.3125520531087" y="217.92653096750817"/>
      <point x="598.4496734461585" y="177.22940299605594" type="curve" smooth="yes"/>
      <point x="588.6307898573606" y="157.1114548447603"/>
      <point x="585.5006707547292" y="150.1477662446047"/>
      <point x="577.2511116571533" y="133.67910646699028" type="curve" smooth="yes"/>
      <point x="512.0964177958372" y="3.610278130223259"/>
      <point x="485.2854477454691" y="99.49477965052064"/>
      <point x="428.33452864302336" y="220.19029796021454" type="curve" smooth="yes"/>
      <point x="424.07026987073516" y="229.22749930550202"/>
      <point x="419.6553828321229" y="234.51428809340675"/>
      <point x="410.628716048242" y="255.68496610983055" type="curve" smooth="yes"/>
      <point x="396.9270221140354" y="287.82021132334216"/>
      <point x="383.02658162409114" y="323.1041254497894"/>
      <point x="365.3996854619732" y="360.00353845075483" type="curve" smooth="yes"/>
      <point x="356.9737839587026" y="377.64197102646915"/>
      <point x="354.64858002597776" y="385.13358402757524"/>
      <point x="345.24490933524277" y="402.85827264360506" type="curve" smooth="yes"/>
      <point x="342.84290473026476" y="407.3857369793618"/>
      <point x="382.58134644518316" y="345.00699286475304"/>
      <point x="380.3528904777968" y="338.7807050010713" type="curve" smooth="yes"/>
      <point x="370.7397562024435" y="311.9216859553494"/>
      <point x="368.1686358769271" y="301.31882114146373"/>
      <point x="360.5592320200898" y="282.9679373904" type="curve" smooth="yes"/>
      <point x="345.44644176289046" y="246.52184221897892"/>
      <point x="330.33207552255493" y="211.52855462659315"/>
      <point x="314.11680904475713" y="175.1224453226359" type="curve" smooth="yes"/>
      <point x="306.99932480499325" y="159.14244835145922"/>
      <point x="303.3111701084766" y="151.79683313883996"/>
      <point x="296.8982573960201" y="137.85592389006067" type="curve" smooth="yes"/>
      <point x="237.64987083691827" y="9.056980696486603"/>
      <point x="216.10280992586596" y="86.0757111585952"/>
      <point x="147.9041329515516" y="220.44057025065737" type="curve" smooth="yes"/>
      <point x="140.43869534022147" y="235.14895635446325"/>
      <point x="136.98283402447836" y="241.87738779343607"/>
      <point x="127.78029577496564" y="260.27057522610824" type="curve" smooth="yes"/>
      <point x="107.8362282225485" y="300.13294392432107"/>
      <point x="90.82249647294259" y="337.318244165241"/>
      <point x="73.62841298646975" y="372.2602470350964" type="curve" smooth="yes"/>
      <point x="58.839023130101076" y="402.31540543950945"/>
      <point x="44.68933592031728" y="432.21742718966823"/>
      <point x="29.8246323810994" y="461.6378726645559" type="curve" smooth="yes"/>
      <point x="-0.6150949658481899" y="521.8846402047609"/>
      <point x="79.71392842109174" y="562.4709433340242"/>
    </contour>
  </outline>
</glyph>
<glyph name="x" format="2">
  <advance width="499"/>
  <unicode hex="0078"/>
  <outline>
    <contour>
      <point x="112.0" y="508.0" type="curve" smooth="yes"/>
      <point x="142.0" y="490.0"/>
      <point x="170.0" y="468.0"/>
      <point x="192.0" y="444.0" type="curve" smooth="yes"/>
      <point x="227.0" y="405.0"/>
      <point x="311.0" y="330.0"/>
      <point x="386.0" y="268.0" type="curve" smooth="yes"/>
      <point x="407.0" y="250.0"/>
      <point x="431.0" y="226.0"/>
      <point x="450.0" y="201.0" type="curve" smooth="yes"/>
      <point x="493.0" y="146.0"/>
      <point x="421.0" y="92.0"/>
      <point x="381.0" y="143.0" type="curve" smooth="yes"/>
      <point x="363.0" y="166.0"/>
      <point x="347.0" y="183.0"/>
      <point x="326.0" y="200.0" type="curve" smooth="yes"/>
      <point x="249.0" y="263.0"/>
      <point x="160.0" y="345.0"/>
      <point x="128.0" y="381.0" type="curve" smooth="yes"/>
      <point x="107.0" y="404.0"/>
      <point x="91.0" y="415.0"/>
      <point x="64.0" y="431.0" type="curve" smooth="yes"/>
      <point x="14.0" y="460.0"/>
      <point x="57.0" y="540.0"/>
    </contour>
    <contour>
      <point x="437.0" y="445.0" type="curve" smooth="yes"/>
      <point x="409.0" y="429.0"/>
      <point x="388.0" y="416.0"/>
      <point x="367.0" y="404.0" type="curve" smooth="yes"/>
      <point x="303.0" y="367.0"/>
      <point x="241.0" y="309.0"/>
      <point x="190.0" y="244.0" type="curve" smooth="yes"/>
      <point x="168.0" y="215.0"/>
      <point x="140.0" y="186.0"/>
      <point x="116.0" y="157.0" type="curve" smooth="yes"/>
      <point x="74.0" y="106.0"/>
      <point x="4.0" y="163.0"/>
      <point x="47.0" y="215.0" type="curve" smooth="yes"/>
      <point x="72.0" y="245.0"/>
      <point x="96.0" y="270.0"/>
      <point x="120.0" y="301.0" type="curve" smooth="yes"/>
      <point x="175.0" y="371.0"/>
      <point x="250.0" y="441.0"/>
      <point x="321.0" y="482.0" type="curve" smooth="yes"/>
      <point x="345.0" y="496.0"/>
      <point x="363.0" y="507.0"/>
      <point x="391.0" y="523.0" type="curve" smooth="yes"/>
      <point x="444.0" y="554.0"/>
      <point x="489.0" y="475.0"/>
    </contour>
  </outline>
</glyph>
<glyph name="z" format="2">
  <advance width="474"/>
  <unicode hex="007A"/>
  <outline>
    <contour>
      <point x="95.25548334584593" y="516.0151278938938" type="curve" smooth="yes"/>
      <point x="151.83375466905548" y="509.347177419837"/>
      <point x="213.3003405788649" y="513.4945287459802"/>
      <point x="270.818009676518" y="516.2720462109307" type="curve" smooth="yes"/>
      <point x="463.02821897311213" y="525.5538412078154"/>
      <point x="478.485066952244" y="388.5466331760863"/>
      <point x="351.62684505333146" y="283.87886751289665" type="curve" smooth="yes"/>
      <point x="296.7978239517631" y="238.64071860699394"/>
      <point x="241.74806811158672" y="193.52812988864528"/>
      <point x="186.89689938007137" y="147.6118964844598" type="curve" smooth="yes"/>
      <point x="151.718999868606" y="118.16427153878801"/>
      <point x="-137.83474814114268" y="269.66556164696357"/>
      <point x="216.35725846256605" y="227.50947063350893" type="curve" smooth="yes"/>
      <point x="272.7019325441621" y="220.803302328122"/>
      <point x="328.1169142711717" y="220.85280347320403"/>
      <point x="382.5931359870416" y="227.4941287743714" type="curve" smooth="yes"/>
      <point x="449.5970454676817" y="235.6627341822841"/>
      <point x="460.4885193448986" y="146.3241882080972"/>
      <point x="393.48460986425846" y="138.1555828001845" type="curve" smooth="yes"/>
      <point x="331.959591661302" y="130.65492201322235"/>
      <point x="269.3557264534319" y="130.56634697290434"/>
      <point x="205.72049278046228" y="138.14024094104698" type="curve" smooth="yes"/>
      <point x="144.8162839517263" y="145.38908711097002"/>
      <point x="-76.46341143932989" y="44.52283724147105"/>
      <point x="129.12679840195614" y="216.62360152772305" type="curve" smooth="yes"/>
      <point x="184.1747963581793" y="262.7046018244189"/>
      <point x="239.32343927338053" y="307.89936549325193"/>
      <point x="294.3492101245802" y="353.29984803729354" type="curve" smooth="yes"/>
      <point x="353.6009835579935" y="402.1871069317056"/>
      <point x="364.93481395691066" y="430.71205439070224"/>
      <point x="275.15903433179534" y="426.37679881184806" type="curve" smooth="yes"/>
      <point x="210.74972956645686" y="423.2664855516338"/>
      <point x="148.07891673330784" y="419.16682806711606"/>
      <point x="84.72156623696614" y="426.63371712888494" type="curve" smooth="yes"/>
      <point x="17.685508163209477" y="434.53415496054487"/>
      <point x="28.219425272089268" y="523.9155657255537"/>
    </contour>
  </outline>
</glyph>
